<svg width="191" height="190" viewBox="0 0 191 190" fill="none" xmlns="http://www.w3.org/2000/svg">
<path d="M95.5957 188.5C147.234 188.5 189.096 146.639 189.096 95C189.096 43.3614 147.234 1.5 95.5957 1.5C43.957 1.5 2.0957 43.3614 2.0957 95C2.0957 146.639 43.957 188.5 95.5957 188.5Z" fill="#B59D80" stroke="#B59D80" stroke-width="2.32797" stroke-miterlimit="10"/>
<path d="M127.104 113.044C125.174 111.098 120.589 108.558 118.148 107.684C115.905 106.876 112.639 105.589 112.54 105.457C111.814 104.633 113.975 104.237 114.519 104.154C114.618 104.154 116.07 103.742 118.065 103.792C118.065 103.792 119.715 103.924 119.83 103.907C119.946 103.907 120.061 103.858 120.16 103.808C120.82 103.462 120.556 102.439 119.814 102.39C119.616 102.39 119.302 102.39 119.187 102.39C117.802 102.373 113.431 103.049 111.171 103.808C111.138 103.808 111.122 103.825 111.089 103.841C109.324 104.418 107.411 103.973 106.025 102.753C104.228 101.136 100.863 97.5571 99.8074 96.1222C99.1807 95.2646 98.6859 95.0996 98.5704 95.0667C98.554 95.0667 98.5375 95.0667 98.521 95.0667L97.8447 95.5779C97.8447 95.5779 97.8118 95.644 97.8447 95.6605C98.0427 95.7594 97.9767 96.5345 98.0756 96.617C98.5044 96.9304 98.6034 97.1613 98.9663 97.5571L104.459 103.495C105.382 104.484 106.57 105.193 107.873 105.573C109.126 105.936 115.476 107.75 117.158 108.443C117.406 108.542 117.571 108.773 117.604 109.036C117.802 111.313 119.319 113.49 119.335 113.523C119.698 114.331 122.255 117.563 123.393 118.982C123.69 119.345 124.217 119.378 124.564 119.064C124.795 118.85 124.778 118.504 124.547 118.306C120.407 114.743 119.137 111.098 119.137 111.098C119.137 111.082 118.379 108.921 119.418 109.267C119.418 109.267 120.127 109.597 120.721 109.861C121.562 110.24 122.997 111.098 123.079 111.164C124.366 111.989 125.504 112.813 126.84 113.968C127.087 114.182 127.335 114.1 127.368 113.753C127.384 113.49 127.302 113.226 127.12 113.044H127.104Z" fill="white"/>
<path d="M138.619 113.044C140.549 111.098 145.134 108.558 147.575 107.684C149.818 106.876 153.084 105.589 153.183 105.457C153.909 104.633 151.748 104.237 151.204 104.154C151.105 104.154 149.653 103.742 147.658 103.792C147.658 103.792 146.008 103.924 145.893 103.907C145.778 103.907 145.662 103.858 145.563 103.808C144.903 103.462 145.167 102.439 145.909 102.39C146.107 102.39 146.421 102.39 146.536 102.39C147.922 102.373 152.292 103.049 154.552 103.808C154.585 103.808 154.601 103.825 154.634 103.841C156.399 104.418 158.312 103.973 159.698 102.753C161.496 101.136 164.86 97.5571 165.916 96.1222C166.542 95.2646 167.037 95.0996 167.153 95.0667C167.169 95.0667 167.186 95.0667 167.202 95.0667L167.878 95.5779C167.878 95.5779 167.911 95.644 167.878 95.6605C167.681 95.7594 167.713 96.4191 167.615 96.5016C167.186 96.8149 167.12 97.1613 166.757 97.5571L161.265 103.495C160.341 104.484 159.154 105.193 157.851 105.573C156.597 105.936 150.247 107.75 148.565 108.443C148.317 108.542 148.153 108.773 148.12 109.036C147.922 111.313 146.404 113.49 146.388 113.523C146.025 114.331 143.468 117.563 142.33 118.982C142.034 119.345 141.506 119.378 141.159 119.064C140.929 118.85 140.945 118.504 141.176 118.306C145.316 114.743 146.586 111.098 146.586 111.098C146.586 111.082 147.344 108.921 146.305 109.267C146.305 109.267 145.596 109.597 145.002 109.861C144.161 110.24 142.726 111.098 142.644 111.164C141.357 111.989 140.219 112.813 138.883 113.968C138.636 114.182 138.389 114.1 138.356 113.753C138.339 113.49 138.422 113.226 138.603 113.044H138.619Z" fill="white"/>
<path d="M108.557 82.7141C108.557 82.7141 116.671 85.7324 121.966 82.7141" stroke="white" stroke-width="3.3186" stroke-miterlimit="10" stroke-linecap="round"/>
<path d="M156.919 82.0547C156.919 82.0547 148.804 85.0729 143.51 82.0547" stroke="white" stroke-width="3.3186" stroke-miterlimit="10" stroke-linecap="round"/>
<path d="M173.926 77.2522C173.893 79.0995 173.629 81.1446 173.036 83.2723C172.755 84.2949 172.36 85.2679 171.865 86.2245C171.419 87.1152 170.743 88.4511 169.968 90.0179C169.869 90.2324 169.754 90.4468 169.638 90.6777C168.385 93.2177 166.933 96.2524 165.713 98.9573C164.096 102.586 163.107 106.379 162.777 110.222C162.645 111.822 162.53 113.719 162.48 115.945C162.48 116.292 162.464 116.638 162.464 117.001C162.464 117.628 162.464 118.287 162.464 118.964C162.464 121.075 162.249 123.087 161.903 124.918C161.589 126.534 161.194 128.018 160.765 129.354C159.891 132.059 158.868 134.137 158.241 135.275C158.241 135.275 158.241 135.275 158.241 135.292C155.85 139.102 152.238 142.071 147.966 143.654C146.811 144.083 145.624 144.413 144.387 144.627C142.936 144.874 141.435 144.594 140.181 143.852C140.181 143.852 140.181 143.852 140.165 143.852C139.142 143.077 138.383 141.922 137.872 140.471C137.559 139.58 137.344 138.591 137.212 137.502C137.146 136.958 137.081 135.407 137.081 134.335C137.081 133.923 137.08 133.527 137.048 133.131C136.784 128.2 134.986 124.373 132.792 124.373C130.599 124.373 128.784 128.2 128.537 133.131C128.521 133.527 128.504 133.923 128.504 134.335C128.504 135.424 128.438 136.974 128.372 137.502C128.24 138.591 128.026 139.58 127.712 140.471C127.201 141.922 126.426 143.077 125.42 143.852C125.42 143.852 125.42 143.852 125.403 143.852C124.15 144.61 122.649 144.891 121.198 144.627C119.961 144.413 118.757 144.083 117.619 143.654C113.347 142.071 109.735 139.102 107.343 135.292V135.275C106.717 134.121 105.694 132.059 104.82 129.354C104.391 128.018 103.995 126.534 103.682 124.918C103.335 123.07 103.121 121.058 103.121 118.947C103.121 118.271 103.121 117.611 103.121 116.984C103.121 116.622 103.121 116.259 103.104 115.912C103.055 113.686 102.94 111.789 102.808 110.189C102.478 106.33 101.488 102.536 99.8718 98.9243C98.6678 96.2194 97.1999 93.1846 95.9464 90.6447C95.831 90.4138 95.732 90.1994 95.6166 89.985C94.8414 88.4182 94.1652 87.0821 93.7199 86.1915C93.2416 85.2514 92.8292 84.2618 92.5489 83.2393C91.9551 81.0951 91.7077 79.0664 91.6582 77.2192C91.9716 66.3996 100.647 57.6748 111.45 57.2625H111.533C112.786 57.2954 114.056 57.3944 115.309 57.5428C116.662 57.6912 117.981 58.0376 119.218 58.5819C119.218 58.5819 119.235 58.5819 119.251 58.5819C120.093 58.9612 120.967 59.3076 121.841 59.6045C125.288 60.8085 128.982 61.4682 132.842 61.4682C136.701 61.4682 140.396 60.8085 143.843 59.6045C144.733 59.2911 145.591 58.9612 146.432 58.5819C146.432 58.5819 146.449 58.5819 146.465 58.5819C147.702 58.0376 149.022 57.6912 150.374 57.5428C151.628 57.3944 152.897 57.2954 154.151 57.2625H154.233C165.037 57.6748 173.695 66.3996 174.025 77.2192L173.926 77.2522Z" stroke="white" stroke-width="2.41052" stroke-miterlimit="10"/>
<path d="M78.5753 29.2522H50.5204C39.5896 29.2522 30.7285 38.1133 30.7285 49.044V133.39C30.7285 144.321 39.5896 153.182 50.5204 153.182H78.5753C89.5061 153.182 98.3672 144.321 98.3672 133.39V49.044C98.3672 38.1133 89.5061 29.2522 78.5753 29.2522Z" fill="white"/>
<path d="M87.5984 43.8726H41.4998C39.596 43.8726 38.0527 45.4159 38.0527 47.3197V51.146C38.0527 53.0498 39.596 54.5931 41.4998 54.5931H87.5984C89.5021 54.5931 91.0454 53.0498 91.0454 51.146V47.3197C91.0454 45.4159 89.5021 43.8726 87.5984 43.8726Z" fill="#EAD9C5"/>
<path d="M87.5984 105.839H41.4998C39.596 105.839 38.0527 107.382 38.0527 109.286V136.253C38.0527 138.156 39.596 139.7 41.4998 139.7H87.5984C89.5021 139.7 91.0454 138.156 91.0454 136.253V109.286C91.0454 107.382 89.5021 105.839 87.5984 105.839Z" fill="#EAD9C5"/>
<path d="M58.6584 59.4209H41.1756C39.2718 59.4209 37.7285 60.9643 37.7285 62.868V91.5826C37.7285 93.4864 39.2718 95.0298 41.1756 95.0298H58.6584C60.5622 95.0298 62.1055 93.4864 62.1055 91.5826V62.868C62.1055 60.9643 60.5622 59.4209 58.6584 59.4209Z" fill="#EAD9C5"/>
<path d="M87.6858 59.7214H70.2029C68.2992 59.7214 66.7559 61.2648 66.7559 63.1686V72.6687C66.7559 74.5724 68.2992 76.1157 70.2029 76.1157H87.6858C89.5895 76.1157 91.1328 74.5724 91.1328 72.6687V63.1686C91.1328 61.2648 89.5895 59.7214 87.6858 59.7214Z" fill="#D5E7C5"/>
<path d="M87.9162 78.803H70.4334C68.5296 78.803 66.9863 80.3463 66.9863 82.2501V91.7502C66.9863 93.654 68.5296 95.1972 70.4334 95.1972H87.9162C89.82 95.1972 91.3633 93.654 91.3633 91.7502V82.2501C91.3633 80.3463 89.82 78.803 87.9162 78.803Z" fill="#F2EDC2"/>
</svg>
