<svg width="189" height="190" viewBox="0 0 189 190" fill="none" xmlns="http://www.w3.org/2000/svg">
<path d="M94.5957 188.5C146.234 188.5 188.096 146.639 188.096 95C188.096 43.3614 146.234 1.5 94.5957 1.5C42.957 1.5 1.0957 43.3614 1.0957 95C1.0957 146.639 42.957 188.5 94.5957 188.5Z" fill="#B59D80" stroke="#B59D80" stroke-width="1.41" stroke-miterlimit="10"/>
<path d="M156.722 91.8295L157.596 91.3677L157.431 92.3408L158.14 93.0335L157.151 93.1819L156.722 94.0726L156.277 93.1819L155.287 93.0335L155.996 92.3408L155.831 91.3677L156.722 91.8295Z" stroke="white" stroke-width="0.8" stroke-miterlimit="10"/>
<path d="M163.089 81.1265L164.343 80.4668L164.095 81.8687L165.118 82.8583L163.716 83.0562L163.089 84.3262L162.462 83.0562L161.061 82.8583L162.067 81.8687L161.836 80.4668L163.089 81.1265Z" stroke="white" stroke-width="1.14" stroke-miterlimit="10"/>
<path d="M169.105 93.0518L170.358 92.3921L170.127 93.794L171.133 94.7836L169.732 94.9815L169.105 96.2515L168.478 94.9815L167.076 94.7836L168.099 93.794L167.851 92.3921L169.105 93.0518Z" stroke="white" stroke-width="1.14" stroke-miterlimit="10"/>
<path d="M181.838 88.1538L182.663 87.7085L182.498 88.6322L183.157 89.2754L182.25 89.4073L181.838 90.2485L181.426 89.4073L180.502 89.2754L181.178 88.6322L181.013 87.7085L181.838 88.1538Z" stroke="white" stroke-width="0.74" stroke-miterlimit="10"/>
<path d="M152.258 50.3867L159.251 59.293L169.889 55.4006L163.572 64.8018L170.566 73.7081L159.68 70.6239L153.363 80.025L152.934 68.6941L142.049 65.6099L152.67 61.701L152.258 50.3867Z" fill="white"/>
<path d="M140.985 73.8031C140.936 75.9307 140.656 78.2892 139.963 80.7467C139.633 81.9177 139.171 83.0558 138.627 84.1443C138.099 85.1669 137.324 86.7008 136.433 88.515C136.318 88.7624 136.186 89.0098 136.054 89.2737C134.603 92.2095 132.937 95.7061 131.535 98.8233C129.671 102.996 128.533 107.367 128.154 111.82C128.005 113.651 127.873 115.861 127.807 118.417C127.807 118.813 127.791 119.225 127.774 119.638C127.774 120.363 127.758 121.122 127.758 121.914C127.758 124.355 127.494 126.664 127.098 128.775C126.752 130.639 126.29 132.354 125.779 133.888C124.773 137.005 123.602 139.397 122.876 140.716C122.876 140.716 122.876 140.732 122.859 140.749C120.105 145.136 115.932 148.567 111.001 150.398C109.681 150.892 108.296 151.272 106.878 151.519C105.212 151.816 103.48 151.486 102.029 150.628C102.029 150.628 102.028 150.628 102.012 150.628C100.841 149.738 99.9504 148.402 99.3566 146.736C98.9938 145.713 98.7464 144.575 98.5979 143.322C98.532 142.695 98.4495 140.914 98.4495 139.66C98.4495 139.182 98.4495 138.72 98.4165 138.275C98.1196 132.585 96.0415 128.181 93.5015 128.181C90.9616 128.181 88.8834 132.585 88.5866 138.275C88.5701 138.737 88.5536 139.199 88.5536 139.66C88.5536 140.914 88.4876 142.695 88.4051 143.322C88.2567 144.575 88.0093 145.713 87.6464 146.736C87.0527 148.402 86.1621 149.738 84.991 150.628C84.991 150.628 84.991 150.628 84.9745 150.628C83.5231 151.503 81.8079 151.816 80.142 151.536C78.7071 151.288 77.3382 150.909 76.0022 150.414C71.0708 148.583 66.9145 145.153 64.1436 140.765C64.1436 140.765 64.1436 140.749 64.1271 140.733C63.4014 139.413 62.2304 137.022 61.2243 133.904C60.7295 132.37 60.2677 130.655 59.9048 128.791C59.509 126.664 59.2451 124.355 59.2451 121.914C59.2451 121.139 59.2452 120.38 59.2287 119.654C59.2287 119.225 59.2121 118.83 59.1956 118.434C59.1297 115.877 58.9977 113.667 58.8493 111.836C58.47 107.4 57.3319 103.013 55.4682 98.8397C54.0662 95.7225 52.3839 92.226 50.949 89.2902C50.8171 89.0263 50.7017 88.7789 50.5697 88.5315C49.6791 86.7337 48.9039 85.1999 48.3761 84.1608C47.8318 83.0722 47.3535 81.9342 47.0401 80.7632C46.3639 78.2892 46.0671 75.9472 46.0176 73.8196C46.3804 61.3342 56.3753 51.2898 68.8277 50.8115H68.9266C70.378 50.8445 71.8459 50.96 73.2809 51.1249C74.8312 51.3063 76.3651 51.6857 77.7835 52.3289C77.7835 52.3289 77.8 52.3289 77.8165 52.3289C78.7896 52.7577 79.7957 53.1536 80.8018 53.5164C84.7766 54.9184 89.0319 55.6605 93.485 55.6605C97.9382 55.6605 102.193 54.9019 106.168 53.5164C107.191 53.1701 108.18 52.7742 109.154 52.3289C109.154 52.3289 109.17 52.3289 109.187 52.3289C110.621 51.7022 112.139 51.3063 113.689 51.1249C115.124 50.96 116.592 50.8445 118.043 50.8115H118.142C130.595 51.2898 140.59 61.3342 140.952 73.8196L140.985 73.8031Z" fill="#B59D80" stroke="white" stroke-width="1.69" stroke-miterlimit="10"/>
<path d="M86.9913 115.086C84.7648 112.843 79.4704 109.924 76.6666 108.901C74.0771 107.978 70.3167 106.477 70.2013 106.345C69.3766 105.388 71.8506 104.943 72.4938 104.828C72.6093 104.811 74.2916 104.349 76.5676 104.415C76.5676 104.415 78.4644 104.564 78.6128 104.564C78.7448 104.564 78.8767 104.514 78.9921 104.448C79.7508 104.052 79.454 102.881 78.5963 102.815C78.3654 102.799 78.0026 102.799 77.8706 102.799C76.2873 102.782 71.2238 103.558 68.6344 104.432C68.6014 104.432 68.5684 104.448 68.5354 104.465C66.5068 105.124 64.2802 104.63 62.6968 103.195C60.6187 101.331 56.7428 97.2077 55.5223 95.5584C54.7966 94.5688 54.2193 94.3709 54.0874 94.3379C54.0709 94.3379 54.0544 94.3379 54.0379 94.3379L53.2627 94.9316C53.2627 94.9316 53.2297 95.0141 53.2627 95.0306C53.4936 95.146 53.4112 96.0367 53.5266 96.1191C54.0214 96.482 54.1368 96.7459 54.5492 97.2077L60.8826 104.069C61.9382 105.223 63.3071 106.032 64.808 106.46C64.808 106.46 64.808 106.46 64.8245 106.46C66.2594 106.873 73.5824 108.967 75.5451 109.776C75.8254 109.891 76.0234 110.155 76.0563 110.468C76.2872 113.091 78.0355 115.598 78.052 115.647C78.4808 116.587 81.4166 120.315 82.7196 121.948C83.0495 122.376 83.6762 122.409 84.0721 122.03C84.336 121.783 84.3194 121.387 84.0556 121.156C79.289 117.049 77.8046 112.843 77.8046 112.843C77.8046 112.81 76.914 110.32 78.118 110.732C78.118 110.732 78.9427 111.111 79.6189 111.408C80.592 111.854 82.2413 112.843 82.3403 112.909C83.8246 113.866 85.1441 114.806 86.678 116.142C86.9748 116.406 87.2387 116.29 87.2882 115.895C87.3212 115.598 87.2058 115.284 86.9913 115.07V115.086Z" fill="white"/>
<path d="M100.277 115.086C102.504 112.843 107.798 109.924 110.602 108.901C113.191 107.978 116.952 106.477 117.067 106.345C117.892 105.388 115.418 104.943 114.775 104.828C114.659 104.811 112.977 104.349 110.701 104.415C110.701 104.415 108.804 104.564 108.656 104.564C108.524 104.564 108.392 104.514 108.276 104.448C107.518 104.052 107.814 102.881 108.672 102.815C108.903 102.799 109.266 102.799 109.398 102.799C110.981 102.782 116.045 103.558 118.634 104.432C118.667 104.432 118.7 104.448 118.733 104.465C120.762 105.124 122.988 104.63 124.572 103.195C126.65 101.331 130.526 97.2077 131.746 95.5584C132.472 94.5688 133.049 94.3709 133.181 94.3379C133.198 94.3379 133.214 94.3379 133.231 94.3379L134.006 94.9316C134.006 94.9316 134.039 95.0141 134.006 95.0306C133.775 95.146 133.824 95.9047 133.709 96.0037C133.214 96.3665 133.132 96.7624 132.719 97.2077L126.386 104.069C125.33 105.223 123.961 106.032 122.46 106.46C122.46 106.46 122.46 106.46 122.444 106.46C121.009 106.873 113.686 108.967 111.723 109.776C111.443 109.891 111.245 110.155 111.212 110.468C110.981 113.091 109.233 115.598 109.216 115.647C108.788 116.587 105.852 120.315 104.549 121.948C104.219 122.376 103.592 122.409 103.196 122.03C102.932 121.783 102.949 121.387 103.213 121.156C107.979 117.049 109.464 112.843 109.464 112.843C109.464 112.81 110.354 110.32 109.15 110.732C109.15 110.732 108.326 111.111 107.65 111.408C106.676 111.854 105.027 112.843 104.928 112.909C103.444 113.866 102.124 114.806 100.59 116.142C100.294 116.406 100.03 116.29 99.9802 115.895C99.9472 115.598 100.063 115.284 100.277 115.07V115.086Z" fill="white"/>
<path d="M65.6309 80.1182C65.6309 80.1182 74.9825 83.5982 81.1015 80.1182" stroke="white" stroke-width="2.31" stroke-miterlimit="10" stroke-linecap="round"/>
<path d="M121.394 79.3452C121.394 79.3452 112.043 82.8253 105.924 79.3452" stroke="white" stroke-width="2.31" stroke-miterlimit="10" stroke-linecap="round"/>
<path d="M153.014 66.416L60.0254 136.248L61.3613 137.931L152.8 71.5454L155.818 69.2363L153.014 66.416Z" fill="white" stroke="white" stroke-width="0.7" stroke-linecap="round" stroke-linejoin="round"/>
<path d="M57.5229 48.7353L99.729 42.3854L105.601 23.8305L87.3426 30.1804L73.6038 14.4624L65.9345 33.8254L46.8848 33.677L57.5229 48.7353Z" stroke="white" stroke-width="1.69" stroke-linecap="round" stroke-linejoin="round"/>
<path d="M107.759 21.7896C108.616 21.7896 109.31 21.0956 109.31 20.2393C109.31 19.3831 108.616 18.689 107.759 18.689C106.903 18.689 106.209 19.3831 106.209 20.2393C106.209 21.0956 106.903 21.7896 107.759 21.7896Z" stroke="white" stroke-width="0.56" stroke-miterlimit="10"/>
<path d="M42.8726 32.3556C43.7289 32.3556 44.423 31.6614 44.423 30.8052C44.423 29.949 43.7289 29.2549 42.8726 29.2549C42.0164 29.2549 41.3223 29.949 41.3223 30.8052C41.3223 31.6614 42.0164 32.3556 42.8726 32.3556Z" stroke="white" stroke-width="0.56" stroke-miterlimit="10"/>
</svg>
