<svg width="189" height="190" viewBox="0 0 189 190" fill="none" xmlns="http://www.w3.org/2000/svg">
<path d="M94.5723 188.5C146.211 188.5 188.072 146.639 188.072 95C188.072 43.3614 146.211 1.5 94.5723 1.5C42.9336 1.5 1.07227 43.3614 1.07227 95C1.07227 146.639 42.9336 188.5 94.5723 188.5Z" fill="#B59D80" stroke="#B59D80" stroke-width="1.41" stroke-miterlimit="10"/>
<path d="M124.524 34.0933H124.392C122.495 34.1427 120.582 34.2912 118.702 34.5221C116.954 34.7365 115.255 35.2148 113.639 35.924H113.606C112.418 36.4683 111.214 36.9466 109.977 37.3754C105.161 39.0742 99.9656 39.9813 94.5724 39.9813C89.1791 39.9813 83.9837 39.0742 79.1677 37.3754C77.9307 36.9466 76.7102 36.4683 75.5392 35.9405H75.5062C73.8899 35.2148 72.1911 34.7365 70.4428 34.5221C68.5626 34.2912 66.6494 34.1427 64.7527 34.0933H64.6207C49.4964 34.6705 37.3574 46.892 36.9121 62.0493C36.9616 64.6387 37.3244 67.492 38.1491 70.4938C38.5449 71.9287 39.1057 73.2976 39.7819 74.6171C40.4087 75.8706 41.3653 77.7343 42.4373 79.9279C42.5858 80.2248 42.7342 80.5381 42.8827 80.835C44.6309 84.3976 46.6761 88.6528 48.3749 92.4297C50.651 97.5097 52.0364 102.82 52.4817 108.214C52.6631 110.44 52.8281 113.112 52.9105 116.229C52.9105 116.708 52.927 117.203 52.9435 117.714C52.9435 118.604 52.96 119.528 52.96 120.468C52.96 123.42 53.2734 126.241 53.7517 128.814C54.1805 131.073 54.7413 133.168 55.3515 135.032C56.572 138.825 58.0069 141.728 58.8811 143.328C58.8811 143.328 58.8811 143.344 58.8976 143.361C61.6519 147.731 65.5443 151.31 70.1459 153.702C70.3109 153.751 74.4342 155.054 75.4073 152.135C76.5453 148.754 75.968 138.792 75.6052 133.976C75.3248 130.298 73.1477 127 69.8326 125.4C69.7831 125.383 69.7336 125.35 69.6841 125.334C65.3794 123.305 58.1224 118.225 56.1597 116.295C55.9948 116.13 55.5494 115.702 55.2691 115.405C54.2795 114.3 55.3185 112.485 56.737 112.898C56.9514 112.964 57.1493 113.063 57.3307 113.211C57.5286 113.36 59.7222 115.834 59.7222 115.834C62.5096 118.654 65.1485 120.089 65.3299 120.204C66.2535 120.848 69.8985 123.256 70.014 121.062C70.014 120.749 67.1112 114.366 65.0001 110.094C62.7075 105.476 59.6233 95.5305 59.5078 90.0547C59.5078 89.5929 59.6398 89.1476 59.9531 88.8012C60.5304 88.1415 61.1077 88.2899 61.1736 89.0486C61.487 92.5617 62.0313 95.316 62.724 98.2848C62.7735 98.4827 63.6311 101.715 64.3238 103.431C64.8021 104.635 65.3959 106.086 65.3959 106.086C66.4185 108.032 68.3152 103.876 68.3317 103.827C68.3317 103.827 71.5479 96.8004 70.4923 85.9479C70.4263 85.3377 70.8881 84.8264 71.5149 84.8264H71.6303C72.5045 84.8264 73.1807 85.5686 73.0982 86.4427C72.7684 90.0052 71.9767 98.3508 71.3664 100.05C71.3335 100.132 70.5088 105.36 67.6555 108.923C67.3256 109.335 67.2431 109.913 67.4575 110.391C68.9254 113.739 74.5496 126.241 76.8752 127.395C79.0688 128.5 90.0697 113.805 94.0116 108.445C94.6548 107.554 96.0073 107.669 96.5186 108.626L96.6505 108.89C96.9309 109.418 96.8649 110.044 96.5021 110.506C93.9456 113.706 83.6868 125.746 81.4768 127.791C78.7389 130.315 79.0193 132.096 78.9863 132.673L78.6234 151.294C78.6069 152.35 78.8049 153.422 79.2832 154.362C79.4151 154.626 79.6625 154.89 79.9759 155.12C81.1799 156.077 82.8622 156.209 84.1982 155.434C84.1982 155.434 84.1981 155.434 84.2146 155.434H84.2476V155.417C85.666 154.329 86.7381 152.712 87.4638 150.684C87.9091 149.447 88.206 148.045 88.3874 146.527C88.4699 145.769 88.5688 143.592 88.5688 142.074C88.5688 141.497 88.5688 140.936 88.6183 140.392C88.9812 133.481 91.5211 128.121 94.5889 128.121C97.6566 128.121 100.197 133.481 100.559 140.392C100.592 140.953 100.609 141.514 100.609 142.074C100.609 143.592 100.691 145.769 100.79 146.527C100.972 148.045 101.269 149.43 101.714 150.684C102.44 152.712 103.512 154.329 104.93 155.417C104.93 155.417 104.947 155.417 104.963 155.417C104.963 155.417 104.963 155.417 104.98 155.417C107.256 156.77 110.208 155.285 110.554 152.646C110.604 152.284 110.637 151.888 110.637 151.475C110.67 150.074 110.389 132.921 110.29 127.065C110.257 125.152 109.944 123.239 109.284 121.441C108.888 120.353 108.822 120.089 107.684 118.588C106.794 117.4 101.236 113.64 98.003 108.164C94.5559 102.342 93.2034 94.9367 92.7251 92.9905C92.6097 92.5452 92.8241 92.0834 93.2364 91.869L93.7477 91.6051C94.325 91.3082 95.0342 91.6051 95.1826 92.2648C95.7929 94.9037 96.9639 101.6 100.23 107.175C104.105 113.805 110.703 117.829 112.088 117.334C113.77 116.724 121.077 100.544 121.308 98.9446C121.357 98.6477 123.452 94.3594 122.842 93.4523C119.23 88.1415 117.267 81.0329 117.267 81.0329C113.952 70.9061 115.238 64.3253 116.178 62.1977C116.261 61.9998 116.228 61.7854 116.508 61.6369C116.822 61.4885 117.218 61.6204 117.382 61.9173C118.801 64.4078 117.069 68.9104 118.586 77.289C119.23 80.8185 124.227 93.9966 126.47 92.2153C128.482 90.599 131.567 86.5252 132.771 79.565C134.387 70.2629 132.193 70.2629 132.424 67.9868C132.523 67.0137 133.892 66.42 134.882 67.2611C136.811 68.8774 137.405 73.7594 134.305 83.4574C131.847 91.1598 127.493 92.9245 124.541 98.9116C122.528 102.985 118.372 110.556 118.966 111.496C119.84 112.898 122.495 110.473 122.842 110.193C123.518 109.665 126.124 107.488 126.124 107.488C128.565 105.41 131.369 102.408 132.325 101.287C132.325 101.287 135.096 97.6581 135.937 99.1425C135.937 99.1425 136.465 101.353 134.024 103.991C132.474 105.657 124.491 112.518 119.807 115.372C117.547 116.757 116.145 118.802 115.288 120.683C114.397 122.645 113.952 124.773 113.886 126.917C113.737 131.914 113.342 147.995 113.935 151.212C114.645 155.12 116.195 154.939 116.541 154.84C122.248 152.564 127.048 148.523 130.264 143.377C130.264 143.377 130.264 143.361 130.28 143.344C131.154 141.728 132.589 138.842 133.81 135.048C134.42 133.184 134.981 131.09 135.41 128.83C135.888 126.241 136.201 123.437 136.201 120.485C136.201 119.528 136.201 118.621 136.218 117.73C136.218 117.219 136.234 116.724 136.251 116.246C136.333 113.129 136.482 110.457 136.68 108.23C137.141 102.837 138.527 97.5261 140.786 92.4462C142.485 88.6693 144.53 84.414 146.279 80.8515C146.427 80.5381 146.575 80.2248 146.724 79.9279C147.812 77.7343 148.753 75.8706 149.379 74.6171C150.056 73.2976 150.616 71.9122 151.012 70.4938C151.837 67.492 152.2 64.6387 152.249 62.0493C151.804 46.892 139.665 34.6705 124.541 34.0933H124.524Z" fill="white"/>
</svg>
