<svg width="189" height="190" viewBox="0 0 189 190" fill="none" xmlns="http://www.w3.org/2000/svg">
<path d="M94.5879 188.5C146.227 188.5 188.088 146.639 188.088 95C188.088 43.3613 146.227 1.5 94.5879 1.5C42.9493 1.5 1.08789 43.3613 1.08789 95C1.08789 146.639 42.9493 188.5 94.5879 188.5Z" fill="#B59D80" stroke="#B59D80" stroke-width="1.41" stroke-miterlimit="10"/>
<path d="M97.8887 46.8101C103.249 46.8101 108.411 45.903 113.211 44.2207C114.448 43.7919 115.652 43.3136 116.823 42.7858C116.823 42.7858 116.839 42.7858 116.856 42.7858C118.588 42.0271 120.418 41.5488 122.299 41.3344C124.047 41.1365 125.812 40.9881 127.56 40.9551H127.692C142.734 41.5323 154.807 53.6713 155.252 68.7626C155.203 71.3356 154.84 74.1724 154.015 77.1577C153.619 78.5761 153.058 79.945 152.399 81.2645C151.772 82.5015 150.832 84.3652 149.76 86.5423C149.611 86.8392 149.463 87.1361 149.314 87.4494C147.566 90.9955 145.538 95.2177 143.855 98.9782C141.596 104.025 140.227 109.303 139.765 114.68C139.584 116.906 139.419 119.562 139.336 122.646C139.336 123.124 139.32 123.619 139.303 124.13C139.303 125.021 139.287 125.928 139.287 126.868C139.287 129.804 138.973 132.608 138.495 135.164C138.066 137.424 137.522 139.486 136.912 141.349C135.691 145.126 134.273 148.013 133.399 149.612C133.399 149.612 133.399 149.629 133.382 149.645C130.05 154.956 125.02 159.096 119.066 161.306C117.466 161.9 115.8 162.362 114.085 162.658C112.073 163.005 109.978 162.626 108.213 161.57C108.213 161.57 108.197 161.57 108.18 161.57C106.762 160.481 105.69 158.865 104.981 156.853C104.535 155.616 104.239 154.23 104.057 152.73C103.975 151.971 103.892 149.81 103.892 148.309C103.892 147.732 103.892 147.171 103.843 146.627C103.48 139.749 100.956 134.422 97.9052 134.422" fill="white"/>
<path d="M97.8887 46.8101C103.249 46.8101 108.411 45.903 113.211 44.2207C114.448 43.7919 115.652 43.3136 116.823 42.7858C116.823 42.7858 116.839 42.7858 116.856 42.7858C118.588 42.0271 120.418 41.5488 122.299 41.3344C124.047 41.1365 125.812 40.9881 127.56 40.9551H127.692C142.734 41.5323 154.807 53.6713 155.252 68.7626C155.203 71.3356 154.84 74.1724 154.015 77.1577C153.619 78.5761 153.058 79.945 152.399 81.2645C151.772 82.5015 150.832 84.3652 149.76 86.5423C149.611 86.8392 149.463 87.1361 149.314 87.4494C147.566 90.9955 145.538 95.2177 143.855 98.9782C141.596 104.025 140.227 109.303 139.765 114.68C139.584 116.906 139.419 119.562 139.336 122.646C139.336 123.124 139.32 123.619 139.303 124.13C139.303 125.021 139.287 125.928 139.287 126.868C139.287 129.804 138.973 132.608 138.495 135.164C138.066 137.424 137.522 139.486 136.912 141.349C135.691 145.126 134.273 148.013 133.399 149.612C133.399 149.612 133.399 149.629 133.382 149.645C130.05 154.956 125.02 159.096 119.066 161.306C117.466 161.9 115.8 162.362 114.085 162.658C112.073 163.005 109.978 162.626 108.213 161.57C108.213 161.57 108.197 161.57 108.18 161.57C106.762 160.481 105.69 158.865 104.981 156.853C104.535 155.616 104.239 154.23 104.057 152.73C103.975 151.971 103.892 149.81 103.892 148.309C103.892 147.732 103.892 147.171 103.843 146.627C103.48 139.749 100.956 134.422 97.9052 134.422" stroke="#B39B80" stroke-width="1.69" stroke-miterlimit="10"/>
<path d="M137.635 59.8553L149.79 57.8431L151.555 41.251L153.353 57.8431L164.7 59.8223L153.27 61.4221L151.374 78.9875L149.79 61.3397L137.635 59.8553Z" fill="#FAF6CB" stroke="#F0E40D" stroke-width="0.6" stroke-miterlimit="10"/>
<path d="M94.8493 46.6436H32.8184V148.671H94.8493V46.6436Z" fill="white" stroke="#B59D80" stroke-width="1.51" stroke-miterlimit="10"/>
<path d="M88.156 58.0859H41.002" stroke="#B59D80" stroke-width="1.05" stroke-miterlimit="10"/>
<path d="M88.3374 72.8965H52.4316" stroke="#B59D80" stroke-width="1.05" stroke-miterlimit="10"/>
<path d="M47.1227 72.8965H40.8223" stroke="#B59D80" stroke-width="1.05" stroke-miterlimit="10"/>
<path d="M88.0564 87.7217H63.498" stroke="#B59D80" stroke-width="1.05" stroke-miterlimit="10"/>
<path d="M58.3046 87.7217H40.9043" stroke="#B59D80" stroke-width="1.05" stroke-miterlimit="10"/>
<path d="M41.002 105.767H88.156" stroke="#B59D80" stroke-width="1.05" stroke-miterlimit="10"/>
<path d="M40.8223 120.59H76.728" stroke="#B59D80" stroke-width="1.05" stroke-miterlimit="10"/>
<path d="M82.0215 120.59H88.3384" stroke="#B59D80" stroke-width="1.05" stroke-miterlimit="10"/>
<path d="M41.1035 135.405H65.6619" stroke="#B59D80" stroke-width="1.05" stroke-miterlimit="10"/>
<path d="M70.8418 135.405H88.2421" stroke="#B59D80" stroke-width="1.05" stroke-miterlimit="10"/>
</svg>
