<svg width="189" height="190" viewBox="0 0 189 190" fill="none" xmlns="http://www.w3.org/2000/svg">
<path d="M94.5801 188.5C146.219 188.5 188.08 146.639 188.08 95C188.08 43.3614 146.219 1.5 94.5801 1.5C42.9415 1.5 1.08008 43.3614 1.08008 95C1.08008 146.639 42.9415 188.5 94.5801 188.5Z" fill="#B59D80" stroke="#B59D80" stroke-width="1.41" stroke-miterlimit="10"/>
<path d="M76.3879 161.102C76.3879 161.102 79.3567 162.421 80.0329 160.393C80.8081 158.084 80.4122 151.255 80.1813 147.957C79.9999 145.433 78.499 143.174 76.223 142.085C76.19 142.069 76.157 142.052 76.124 142.036C73.1717 140.65 68.2072 137.17 66.8713 135.851C66.7558 135.735 66.4589 135.438 66.261 135.24C65.5848 134.482 66.2941 133.245 67.2672 133.525C67.4156 133.558 67.5476 133.641 67.6795 133.74C67.8115 133.839 69.3123 135.537 69.3123 135.537C71.2255 137.467 73.0232 138.457 73.1552 138.539C73.7819 138.984 76.2889 140.617 76.3548 139.133C76.3548 138.918 74.3757 134.548 72.9243 131.628C71.341 128.462 69.2298 121.601 69.1638 117.857C69.1638 117.494 69.3123 117.147 69.5927 116.917C69.939 116.62 70.2689 116.752 70.3019 117.213C70.5163 119.621 70.8792 121.502 71.374 123.547C71.407 123.679 72.0007 125.889 72.479 127.076C72.8089 127.901 73.2047 128.891 73.2047 128.891C73.8974 130.226 75.2003 127.373 75.2168 127.34C75.2168 127.34 77.4105 122.524 76.7012 115.086C76.6683 114.657 76.9816 114.311 77.4104 114.311H77.4929C78.0866 114.311 78.565 114.822 78.499 115.416C78.2846 117.857 77.7238 123.563 77.3115 124.734C77.295 124.784 76.7178 128.363 74.7716 130.804C74.5407 131.084 74.4912 131.48 74.6396 131.81C75.6457 134.102 79.505 142.662 81.0884 143.454C82.5893 144.213 90.1267 134.152 92.8151 130.474C93.2605 129.864 94.184 129.93 94.5304 130.606L94.6294 130.787C94.8108 131.15 94.7778 131.579 94.5304 131.892C92.7821 134.086 85.756 142.333 84.2387 143.734C82.3749 145.466 82.5564 146.687 82.5234 147.083L82.276 159.832C82.276 160.558 82.4079 161.283 82.7213 161.926C83.0017 162.487 84.3706 163.295 85.0138 163.411C85.7725 163.543 83.348 163.576 80.8905 162.949C78.6804 162.388 76.4209 161.151 76.4209 161.151L76.3879 161.102Z" fill="white"/>
<path d="M108.239 162.204C108.239 162.204 106.953 162.749 106.409 159.73C106.013 157.537 106.277 146.519 106.376 143.089C106.425 141.621 106.722 140.153 107.332 138.817C107.926 137.53 108.883 136.129 110.433 135.172C113.633 133.209 119.108 128.525 120.164 127.371C121.83 125.573 121.467 124.055 121.467 124.055C120.906 123.033 118.993 125.523 118.993 125.523C118.35 126.282 116.42 128.344 114.754 129.762C114.754 129.762 112.973 131.247 112.511 131.609C112.28 131.791 110.466 133.457 109.856 132.5C109.46 131.857 112.297 126.678 113.682 123.874C115.694 119.767 118.696 118.563 120.362 113.285C122.473 106.639 122.077 103.307 120.758 102.185C120.081 101.608 119.141 102.021 119.075 102.68C118.91 104.231 120.428 104.231 119.323 110.614C118.498 115.38 116.387 118.184 115.001 119.272C113.468 120.493 110.037 111.471 109.608 109.047C108.602 103.554 109.658 100.487 108.883 98.7384C108.701 98.3096 108.487 98.0787 108.107 98.3591C107.992 98.4581 108.008 98.5735 107.942 98.7054C107.299 100.157 106.425 104.676 108.685 111.603C108.685 111.603 110.021 116.469 112.495 120.114C112.907 120.724 111.472 123.66 111.439 123.874C111.291 124.979 106.277 136.046 105.122 136.475C104.165 136.821 99.6463 134.067 97.0074 129.515C94.7808 125.688 93.9726 121.103 93.5603 119.305C93.4613 118.877 92.9666 118.646 92.5707 118.86L92.2244 119.042C91.944 119.19 91.8121 119.503 91.8781 119.8C92.2079 121.136 93.1316 126.2 95.4901 130.191C97.7167 133.951 101.51 136.508 102.12 137.333C102.895 138.355 102.945 138.553 103.209 139.295C103.654 140.532 103.869 141.835 103.885 143.138C103.951 147.146 104.149 158.889 104.116 159.846C104.067 162.039 103.291 162.897 101.922 163.227C101.922 163.227 103.11 163.474 105.007 163.144C106.639 162.848 108.19 162.171 108.19 162.171L108.239 162.204Z" fill="white"/>
<path d="M132.665 98.692C132.632 100.457 132.385 102.419 131.824 104.465C131.56 105.438 131.164 106.378 130.702 107.285C130.273 108.143 129.63 109.413 128.888 110.913C128.789 111.111 128.69 111.326 128.575 111.54C127.371 113.981 125.969 116.884 124.814 119.473C123.264 122.953 122.307 126.582 121.994 130.276C121.862 131.81 121.763 133.641 121.697 135.769C121.697 136.099 121.681 136.445 121.681 136.791C121.681 137.402 121.681 138.028 121.681 138.672C121.681 140.7 121.466 142.613 121.136 144.378C120.839 145.929 120.46 147.363 120.048 148.633C119.207 151.239 118.233 153.219 117.623 154.324C117.623 154.324 117.623 154.324 117.623 154.34C115.331 158.002 111.867 160.838 107.76 162.372C106.655 162.785 105.517 163.098 104.33 163.296C102.944 163.543 101.509 163.279 100.289 162.554C100.289 162.554 100.289 162.554 100.272 162.554C99.2992 161.811 98.5571 160.69 98.0623 159.304C97.7654 158.447 97.551 157.507 97.4355 156.468C97.3695 155.94 97.3201 154.455 97.3201 153.416C97.3201 153.021 97.32 152.641 97.287 152.262C97.0396 147.528 95.3079 143.867 93.1967 143.867C91.0856 143.867 89.3539 147.528 89.1065 152.262C89.09 152.641 89.0734 153.021 89.0734 153.416C89.0734 154.455 89.0075 155.94 88.958 156.468C88.8425 157.507 88.6281 158.463 88.3312 159.304C87.8364 160.69 87.0943 161.795 86.1212 162.554C86.1212 162.554 86.1212 162.554 86.1047 162.554C84.9007 163.279 83.4658 163.543 82.0803 163.296C80.8928 163.081 79.7383 162.768 78.6332 162.372C74.5264 160.855 71.0629 158.002 68.7703 154.34V154.324C68.1601 153.219 67.1869 151.239 66.3458 148.633C65.9334 147.347 65.5541 145.929 65.2573 144.378C64.9274 142.613 64.7129 140.684 64.7129 138.655C64.7129 138.012 64.7129 137.369 64.7129 136.775C64.7129 136.428 64.7129 136.082 64.6964 135.752C64.647 133.625 64.5315 131.794 64.3996 130.26C64.0862 126.566 63.1462 122.92 61.5793 119.457C60.4083 116.867 59.0228 113.948 57.8188 111.524C57.7198 111.309 57.6044 111.095 57.5054 110.897C56.7632 109.396 56.12 108.126 55.6912 107.268C55.2294 106.361 54.8501 105.421 54.5697 104.448C54.0089 102.403 53.7615 100.44 53.7285 98.6755C54.0419 88.3013 62.3545 79.9227 72.7122 79.5269H72.7947C73.9987 79.5598 75.2192 79.6588 76.4232 79.7908C77.7097 79.9392 78.9796 80.2691 80.1671 80.7804C80.1671 80.7804 80.1836 80.7804 80.2001 80.7804C81.0083 81.1432 81.8494 81.4731 82.6906 81.77C85.9892 82.9245 89.5353 83.5512 93.2463 83.5512C96.9572 83.5512 100.487 82.9245 103.802 81.77C104.643 81.4731 105.484 81.1432 106.292 80.7804C106.292 80.7804 106.309 80.7804 106.325 80.7804C107.513 80.2526 108.783 79.9392 110.069 79.7908C111.273 79.6588 112.477 79.5598 113.698 79.5269H113.78C124.138 79.9227 132.451 88.2848 132.764 98.6755L132.665 98.692Z" stroke="white" stroke-width="0.84" stroke-miterlimit="10"/>
<path d="M97.107 5.57324C82.7414 6.46388 68.3593 7.35448 53.9938 8.22862C53.3175 8.87186 52.4434 9.61405 51.3219 10.2903C50.3818 10.8675 49.4911 11.2964 48.7324 11.5933C63.8567 10.9665 78.9975 10.3398 94.1218 9.72951L97.9152 9.46562L97.1235 5.57324H97.107Z" fill="white" stroke="white" stroke-width="0.7" stroke-linecap="round" stroke-linejoin="round"/>
<path d="M118.795 77.664L64.1699 79.2308L78.0242 26.568L99.086 25.5454L118.795 77.664Z" fill="url(#paint0_linear_6663_2979)"/>
<path d="M97.8545 11.9406L77.9746 12.9824L78.4848 22.7165L98.3647 21.6746L97.8545 11.9406Z" fill="white" stroke="white" stroke-width="0.64" stroke-linecap="round" stroke-linejoin="round"/>
<defs>
<linearGradient id="paint0_linear_6663_2979" x1="90.4064" y1="24.6339" x2="91.4246" y2="79.0819" gradientUnits="userSpaceOnUse">
<stop stop-color="white"/>
<stop offset="0.1" stop-color="#FCFAF9" stop-opacity="0.97"/>
<stop offset="0.27" stop-color="#F5F0EB" stop-opacity="0.87"/>
<stop offset="0.49" stop-color="#EADED4" stop-opacity="0.72"/>
<stop offset="0.75" stop-color="#DAC6B5" stop-opacity="0.51"/>
<stop offset="1" stop-color="#CBAE95" stop-opacity="0.3"/>
</linearGradient>
</defs>
</svg>
