<svg width="189" height="190" viewBox="0 0 189 190" fill="none" xmlns="http://www.w3.org/2000/svg">
<path d="M94.5723 188.5C146.211 188.5 188.072 146.639 188.072 95C188.072 43.3614 146.211 1.5 94.5723 1.5C42.9336 1.5 1.07227 43.3614 1.07227 95C1.07227 146.639 42.9336 188.5 94.5723 188.5Z" fill="#B59D80" stroke="#B59D80" stroke-width="1.41" stroke-miterlimit="10"/>
<path d="M56.6718 106.689C55.1874 105.188 51.6579 103.242 49.7776 102.566C48.0458 101.939 45.5389 100.949 45.4564 100.85C44.8956 100.224 46.5614 99.9102 46.9903 99.8443C47.0727 99.8443 48.1943 99.5308 49.7117 99.5638C49.7117 99.5638 50.9816 99.6628 51.0806 99.6628C51.1795 99.6628 51.262 99.6298 51.328 99.5803C51.8228 99.3164 51.6414 98.5248 51.0641 98.4918C50.8992 98.4918 50.6682 98.4918 50.5693 98.4918C49.5137 98.4918 46.1326 99.0031 44.4008 99.5803C44.3843 99.5803 44.3514 99.5803 44.3349 99.5968C42.9824 100.042 41.4981 99.6958 40.4425 98.7557C39.0571 97.5022 36.4676 94.7479 35.6594 93.6593C35.1646 92.9996 34.7853 92.8676 34.7028 92.8511C34.7028 92.8511 34.6864 92.8511 34.6699 92.8511L34.1421 93.247C34.1421 93.247 34.1256 93.2964 34.1421 93.3129C34.2905 93.3954 34.241 93.9892 34.3235 94.0386C34.6534 94.286 34.7358 94.4675 35.0162 94.7643L39.2384 99.3329C39.9476 100.108 40.8548 100.652 41.8609 100.933C42.8175 101.213 47.7159 102.615 49.0189 103.143C49.2168 103.225 49.3323 103.39 49.3653 103.605C49.5137 105.353 50.6847 107.035 50.7012 107.068C50.9816 107.695 52.9443 110.186 53.8185 111.274C54.0494 111.554 54.4617 111.587 54.7256 111.34C54.8905 111.175 54.8905 110.911 54.7256 110.746C51.5424 108.008 50.5529 105.205 50.5529 105.205C50.5529 105.188 49.9591 103.522 50.7673 103.786C50.7673 103.786 51.3115 104.034 51.7733 104.248C52.4166 104.545 53.5216 105.205 53.5876 105.254C54.5771 105.897 55.4678 106.524 56.4904 107.415C56.6883 107.58 56.8697 107.514 56.8862 107.25C56.9027 107.052 56.8367 106.854 56.6883 106.705L56.6718 106.689Z" fill="#EFD8E9"/>
<path d="M42.4004 83.3369C42.4004 83.3369 48.6512 85.6625 52.7251 83.3369" stroke="#EFD8E9" stroke-width="1.54" stroke-miterlimit="10" stroke-linecap="round"/>
<path d="M79.643 82.8279C79.643 82.8279 73.3922 85.1534 69.3184 82.8279" stroke="#EFD8E9" stroke-width="1.54" stroke-miterlimit="10" stroke-linecap="round"/>
<path d="M92.7216 79.1313C92.6887 80.5497 92.4908 82.1166 92.0455 83.7659C91.8311 84.5576 91.5177 85.3162 91.1549 86.0419C90.8085 86.7346 90.2807 87.7572 89.687 88.9612C89.6045 89.1262 89.522 89.2911 89.4395 89.456C88.4829 91.4187 87.345 93.7443 86.4213 95.8225C85.1678 98.6098 84.4092 101.529 84.1618 104.498C84.0628 105.718 83.9638 107.186 83.9308 108.902C83.9308 109.165 83.9308 109.446 83.9143 109.726C83.9143 110.221 83.9143 110.716 83.9143 111.244C83.9143 112.86 83.7494 114.41 83.469 115.829C83.2381 117.066 82.9248 118.22 82.5949 119.243C81.9187 121.337 81.1435 122.921 80.6487 123.811C80.6487 123.811 80.6487 123.811 80.6487 123.828C78.8015 126.764 76.0305 129.04 72.7319 130.277C71.8413 130.607 70.9342 130.854 69.9775 131.019C68.856 131.217 67.7015 131.002 66.7284 130.425C65.9533 129.831 65.3595 128.941 64.9637 127.819C64.7163 127.143 64.5513 126.368 64.4524 125.543C64.4029 125.131 64.3534 123.927 64.3534 123.102C64.3534 122.789 64.3534 122.475 64.3369 122.179C64.139 118.385 62.7536 115.433 61.0548 115.433C59.356 115.433 57.9706 118.385 57.7726 122.179C57.7726 122.475 57.7561 122.789 57.7561 123.102C57.7561 123.943 57.7067 125.131 57.6572 125.543C57.5582 126.384 57.3933 127.143 57.1459 127.819C56.75 128.941 56.1563 129.831 55.3811 130.425C54.408 131.002 53.2534 131.217 52.1484 131.019C51.1918 130.854 50.2682 130.607 49.3941 130.277C46.0954 129.056 43.3246 126.764 41.4773 123.828C41.4773 123.828 41.4773 123.828 41.4773 123.811C40.999 122.921 40.2073 121.337 39.5311 119.243C39.2012 118.22 38.8879 117.066 38.657 115.829C38.3931 114.41 38.2116 112.86 38.2116 111.244C38.2116 110.716 38.2116 110.221 38.2116 109.726C38.2116 109.446 38.2116 109.165 38.1951 108.902C38.1456 107.186 38.0632 105.718 37.9643 104.498C37.7169 101.529 36.9582 98.6098 35.7047 95.8225C34.7646 93.7443 33.643 91.4022 32.6864 89.456C32.604 89.2746 32.5215 89.1097 32.439 88.9447C31.8452 87.7407 31.3175 86.7182 30.9712 86.0255C30.6083 85.2998 30.2949 84.5411 30.0805 83.7494C29.6187 82.1001 29.4373 80.5333 29.4043 79.1148C29.6517 70.7858 36.3314 64.073 44.644 63.7432H44.7099C45.683 63.7762 46.6562 63.8421 47.6128 63.9576C48.6518 64.073 49.6744 64.3369 50.6145 64.7657C50.6145 64.7657 50.6146 64.7657 50.631 64.7657C51.2743 65.0626 51.9504 65.3265 52.6267 65.5574C55.2821 66.481 58.1189 66.9923 61.0877 66.9923C64.0565 66.9923 66.9098 66.4975 69.5487 65.5574C70.2249 65.3265 70.9012 65.0626 71.5444 64.7657C71.5444 64.7657 71.5444 64.7657 71.5609 64.7657C72.5175 64.3369 73.5401 64.0895 74.5627 63.9576C75.5193 63.8421 76.5088 63.7762 77.4654 63.7432H77.5315C85.844 64.0565 92.5238 70.7693 92.7712 79.1148L92.7216 79.1313Z" stroke="#EFD8E9" stroke-width="1.13" stroke-miterlimit="10"/>
<path d="M97.2245 109.709C95.806 108.537 93.7939 106.74 93.7444 106.624C93.4475 105.833 95.0968 106.113 95.5256 106.195C95.6081 106.195 96.7627 106.311 98.1811 106.872C98.1811 106.872 99.3355 107.399 99.4345 107.432C99.517 107.449 99.616 107.465 99.6984 107.432C100.259 107.35 100.342 106.558 99.8304 106.311C99.682 106.245 99.451 106.163 99.3851 106.13C98.3955 105.75 95.0474 105.09 93.2166 105.057C93.2001 105.057 93.1671 105.057 93.1506 105.057C91.7322 105.008 90.4457 104.183 89.7695 102.93C88.8954 101.281 87.3945 97.8169 87.0152 96.4974C86.7842 95.7058 86.4709 95.4584 86.3884 95.4089C86.3884 95.4089 86.3719 95.4089 86.3554 95.4089L85.7286 95.6068C85.7286 95.6068 85.6956 95.6563 85.7121 95.6728C85.8276 95.8047 85.5802 96.3325 85.6297 96.415C85.8606 96.7614 85.8771 96.9593 86.0255 97.3221L88.417 103.012C88.8294 104.002 89.5056 104.843 90.3797 105.47C91.1879 106.047 95.2453 108.983 96.3173 109.972C96.4823 110.121 97.0925 110.649 97.7357 111.176C97.7357 111.176 98.1645 111.605 98.5274 111.952C99.0387 112.446 98.7748 110.978 97.241 109.709H97.2245Z" fill="#EFD8E9"/>
<path d="M90.8934 109.961C92.2458 108.707 94.1591 106.811 94.2086 106.695C94.4724 105.887 92.8232 106.266 92.4109 106.365C92.3284 106.382 91.1903 106.547 89.7884 107.173C89.7884 107.173 88.6669 107.767 88.5679 107.784C88.4854 107.817 88.3864 107.817 88.304 107.817C87.7432 107.767 87.6113 106.975 88.1226 106.712C88.271 106.646 88.4854 106.547 88.5679 106.514C89.541 106.085 92.8562 105.244 94.6704 105.112C94.6869 105.112 94.7199 105.112 94.7364 105.112C96.1548 104.996 97.3917 104.106 97.9855 102.819C98.7771 101.137 100.08 97.5908 100.41 96.2548C100.608 95.4632 100.905 95.1828 100.971 95.1333C100.971 95.1333 100.987 95.1333 101.004 95.1333L101.647 95.2983C101.647 95.2983 101.68 95.3312 101.664 95.3642C101.548 95.4962 101.779 95.9579 101.729 96.0404C101.532 96.3868 101.581 96.6507 101.433 97.0466L99.3214 102.902C98.9751 103.891 98.3484 104.749 97.5237 105.392C96.7485 106.019 92.7901 109.219 91.8005 110.225C91.6521 110.373 91.0913 110.917 90.4646 111.478C90.4646 111.478 90.0523 111.923 89.7225 112.286C89.2441 112.814 89.4255 111.33 90.8769 109.977L90.8934 109.961Z" fill="#CCE8F8"/>
<path d="M132.636 107.547C134.12 106.046 137.65 104.1 139.53 103.424C141.262 102.797 143.769 101.808 143.851 101.709C144.412 101.082 142.746 100.769 142.317 100.703C142.235 100.703 141.113 100.389 139.596 100.422C139.596 100.422 138.326 100.521 138.227 100.521C138.128 100.521 138.046 100.488 137.98 100.439C137.485 100.175 137.666 99.3831 138.244 99.3501C138.409 99.3501 138.639 99.3501 138.738 99.3501C139.794 99.3501 143.175 99.8615 144.907 100.439C144.923 100.439 144.956 100.439 144.973 100.455C146.325 100.901 147.81 100.554 148.865 99.6141C150.251 98.3606 152.84 95.6062 153.648 94.5176C154.143 93.8579 154.522 93.726 154.605 93.7095C154.605 93.7095 154.621 93.7095 154.638 93.7095L155.166 94.1053C155.166 94.1053 155.182 94.1548 155.166 94.1713C155.017 94.2538 155.05 94.765 154.968 94.8145C154.638 95.0619 154.588 95.3258 154.308 95.6226L150.086 100.191C149.377 100.966 148.469 101.511 147.463 101.791C146.507 102.072 141.608 103.473 140.305 104.001C140.107 104.084 139.992 104.249 139.959 104.463C139.81 106.211 138.639 107.894 138.623 107.927C138.343 108.553 136.38 111.044 135.506 112.132C135.275 112.413 134.863 112.446 134.599 112.198C134.434 112.033 134.434 111.769 134.599 111.605C137.782 108.867 138.771 106.063 138.771 106.063C138.771 106.046 139.365 104.381 138.557 104.644C138.557 104.644 138.013 104.892 137.551 105.106C136.908 105.403 135.803 106.063 135.737 106.112C134.747 106.756 133.856 107.382 132.834 108.273C132.636 108.438 132.455 108.372 132.438 108.108C132.422 107.91 132.487 107.712 132.636 107.564V107.547Z" fill="#CCE8F8"/>
<path d="M109.498 84.1926C109.498 84.1926 115.749 86.5182 119.823 84.1926" stroke="#CCE8F8" stroke-width="1.54" stroke-miterlimit="10" stroke-linecap="round"/>
<path d="M146.741 83.6836C146.741 83.6836 140.49 86.0091 136.416 83.6836" stroke="#CCE8F8" stroke-width="1.54" stroke-miterlimit="10" stroke-linecap="round"/>
<path d="M159.819 79.9897C159.786 81.4082 159.588 82.975 159.143 84.6243C158.929 85.416 158.615 86.1747 158.253 86.9004C157.906 87.5931 157.378 88.6157 156.785 89.8197C156.702 89.9847 156.62 90.1496 156.537 90.3145C155.581 92.2772 154.443 94.6027 153.519 96.6809C152.266 99.4682 151.507 102.388 151.259 105.356C151.16 106.577 151.061 108.045 151.028 109.76C151.028 110.024 151.028 110.304 151.012 110.585C151.012 111.079 151.012 111.574 151.012 112.102C151.012 113.718 150.847 115.269 150.567 116.687C150.336 117.924 150.022 119.079 149.693 120.101C149.016 122.196 148.241 123.779 147.746 124.67C147.746 124.67 147.746 124.67 147.746 124.686C145.899 127.622 143.128 129.898 139.83 131.135C138.939 131.465 138.032 131.712 137.075 131.877C135.954 132.075 134.799 131.861 133.826 131.284C133.051 130.69 132.457 129.799 132.061 128.678C131.814 128.001 131.649 127.226 131.55 126.402C131.501 125.989 131.451 124.785 131.451 123.961C131.451 123.647 131.451 123.334 131.435 123.037C131.237 119.244 129.851 116.291 128.152 116.291C126.454 116.291 125.068 119.244 124.87 123.037C124.87 123.334 124.854 123.647 124.854 123.961C124.854 124.802 124.804 125.989 124.755 126.402C124.656 127.243 124.491 128.001 124.244 128.678C123.848 129.799 123.254 130.69 122.479 131.284C121.506 131.861 120.351 132.075 119.246 131.877C118.289 131.712 117.366 131.465 116.492 131.135C113.193 129.915 110.422 127.622 108.575 124.686C108.575 124.686 108.575 124.686 108.575 124.67C108.097 123.779 107.305 122.196 106.629 120.101C106.299 119.079 105.986 117.924 105.755 116.687C105.491 115.269 105.309 113.718 105.309 112.102C105.309 111.574 105.309 111.079 105.309 110.585C105.309 110.304 105.309 110.024 105.293 109.76C105.243 108.045 105.161 106.577 105.062 105.356C104.815 102.388 104.056 99.4682 102.802 96.6809C101.862 94.6027 100.741 92.2607 99.7841 90.3145C99.7016 90.1331 99.6191 89.9682 99.5366 89.8032C98.9429 88.5992 98.4152 87.5766 98.0688 86.8839C97.706 86.1582 97.3925 85.3995 97.1781 84.6078C96.7163 82.9585 96.5349 81.3917 96.502 79.9732C96.7494 71.6442 103.429 64.9314 111.742 64.6016H111.808C112.781 64.6345 113.754 64.7005 114.71 64.816C115.749 64.9314 116.772 65.1954 117.712 65.6242C117.712 65.6242 117.712 65.6242 117.729 65.6242C118.372 65.9211 119.048 66.185 119.724 66.4159C122.38 67.3395 125.217 67.8508 128.185 67.8508C131.154 67.8508 134.007 67.356 136.646 66.4159C137.323 66.185 137.999 65.9211 138.642 65.6242C138.642 65.6242 138.642 65.6242 138.659 65.6242C139.615 65.1954 140.638 64.9479 141.66 64.816C142.617 64.7005 143.607 64.6345 144.563 64.6016H144.629C152.942 64.9149 159.621 71.6277 159.869 79.9732L159.819 79.9897Z" stroke="#CCE8F8" stroke-width="1.13" stroke-miterlimit="10"/>
</svg>
