<svg width="190" height="189" viewBox="0 0 190 189" fill="none" xmlns="http://www.w3.org/2000/svg">
<path d="M95.002 187.801C146.641 187.801 188.502 145.939 188.502 94.3008C188.502 42.6622 146.641 0.800781 95.002 0.800781C43.3633 0.800781 1.50195 42.6622 1.50195 94.3008C1.50195 145.939 43.3633 187.801 95.002 187.801Z" fill="#B59D80" stroke="#B59D80" stroke-width="1.41" stroke-miterlimit="10"/>
<path d="M164.984 69.4276C164.934 71.7531 164.621 74.3425 163.862 77.0309C163.516 78.3174 163.005 79.5544 162.394 80.7584C161.817 81.8799 160.976 83.5622 160.003 85.5414C159.871 85.8052 159.739 86.0856 159.59 86.366C158.007 89.5822 156.16 93.4087 154.643 96.8228C152.597 101.391 151.344 106.191 150.932 111.056C150.767 113.069 150.618 115.477 150.552 118.28C150.552 118.726 150.536 119.155 150.519 119.616C150.519 120.425 150.503 121.249 150.503 122.107C150.503 124.779 150.222 127.302 149.777 129.628C149.398 131.673 148.886 133.553 148.342 135.235C147.237 138.666 145.951 141.272 145.159 142.723C145.159 142.723 145.159 142.74 145.142 142.756C142.124 147.572 137.556 151.316 132.162 153.328C130.711 153.873 129.21 154.285 127.643 154.549C125.812 154.862 123.916 154.516 122.332 153.559C122.332 153.559 122.332 153.559 122.316 153.559C121.029 152.57 120.056 151.118 119.413 149.288C119.017 148.166 118.737 146.913 118.572 145.544C118.489 144.851 118.407 142.905 118.407 141.536C118.407 141.025 118.407 140.513 118.374 140.018C118.044 133.784 115.768 128.951 112.997 128.951C110.226 128.951 107.934 133.784 107.62 140.018C107.587 140.513 107.587 141.025 107.587 141.536C107.587 142.905 107.505 144.867 107.422 145.544C107.258 146.913 106.977 148.166 106.581 149.288C105.938 151.118 104.965 152.57 103.678 153.559C103.678 153.559 103.679 153.559 103.662 153.559C102.062 154.516 100.182 154.862 98.3512 154.549C96.7843 154.269 95.267 153.856 93.8156 153.328C88.4058 151.316 83.8537 147.572 80.8354 142.756C80.8354 142.756 80.8354 142.74 80.8189 142.723C80.0272 141.272 78.7408 138.666 77.6357 135.235C77.0915 133.553 76.5802 131.673 76.2008 129.628C75.7555 127.302 75.4751 124.762 75.4751 122.09C75.4751 121.233 75.4751 120.408 75.4586 119.6C75.4586 119.138 75.4422 118.693 75.4257 118.247C75.3597 115.444 75.2112 113.036 75.0463 111.023C74.634 106.158 73.3805 101.358 71.3353 96.7897C69.8014 93.3756 67.9707 89.5493 66.3874 86.3331C66.2554 86.0527 66.107 85.7723 65.975 85.5084C65.0019 83.5293 64.1443 81.8469 63.5835 80.7254C62.9732 79.5379 62.462 78.2844 62.1157 76.9979C61.3735 74.293 61.0436 71.7201 60.9941 69.3945C61.4065 55.7217 72.3414 44.7042 85.9813 44.1929H86.0968C87.6801 44.2424 89.28 44.3578 90.8633 44.5393C92.5621 44.7372 94.2279 45.166 95.7948 45.8587C95.7948 45.8587 95.8113 45.8587 95.8278 45.8587C96.8998 46.337 97.9884 46.7659 99.1099 47.1617C103.464 48.6956 108.132 49.5202 112.997 49.5202C117.863 49.5202 122.547 48.6956 126.884 47.1617C128.006 46.7824 129.095 46.337 130.167 45.8587C130.167 45.8587 130.183 45.8587 130.2 45.8587C131.766 45.166 133.432 44.7372 135.131 44.5393C136.714 44.3578 138.314 44.2259 139.898 44.1929H140.013C153.653 44.7042 164.604 55.7217 165 69.3945L164.984 69.4276Z" fill="#F9F9F7"/>
<path d="M119.543 60.1062H34.4217C29.2388 60.1062 25.0371 64.3078 25.0371 69.4908V103.071C25.0371 108.254 29.2388 112.456 34.4217 112.456H119.543C124.726 112.456 128.928 108.254 128.928 103.071V69.4908C128.928 64.3078 124.726 60.1062 119.543 60.1062Z" fill="#F9F9F7" stroke="#B59D80" stroke-width="1.26" stroke-miterlimit="10"/>
<path d="M90.7605 82.7954H63.1838C62.7921 82.7954 62.4746 83.1129 62.4746 83.5046V89.5741C62.4746 89.9658 62.7921 90.2833 63.1838 90.2833H90.7605C91.1522 90.2833 91.4697 89.9658 91.4697 89.5741V83.5046C91.4697 83.1129 91.1522 82.7954 90.7605 82.7954Z" fill="#B59D80"/>
<path d="M80.8809 100.064V72.4878C80.8809 72.0961 80.5633 71.7786 80.1717 71.7786H74.1021C73.7104 71.7786 73.3929 72.0961 73.3929 72.4878V100.064C73.3929 100.456 73.7104 100.774 74.1021 100.774H80.1717C80.5633 100.774 80.8809 100.456 80.8809 100.064Z" fill="#B59D80"/>
</svg>
