<svg width="189" height="190" viewBox="0 0 189 190" fill="none" xmlns="http://www.w3.org/2000/svg">
<path d="M94.5879 188.5C146.227 188.5 188.088 146.639 188.088 95C188.088 43.3614 146.227 1.5 94.5879 1.5C42.9493 1.5 1.08789 43.3614 1.08789 95C1.08789 146.639 42.9493 188.5 94.5879 188.5Z" fill="#B59D80" stroke="#B59D80" stroke-width="1.41" stroke-miterlimit="10"/>
<path d="M122.819 43.3557C138.4 58.9367 138.4 84.2209 122.819 99.802L94.5957 128.025L66.3725 99.802C50.7914 84.2209 50.7915 58.9368 66.3726 43.3557C81.9536 27.7747 107.238 27.7746 122.819 43.3557Z" fill="white" stroke="white" stroke-width="0.7" stroke-linecap="round" stroke-linejoin="round"/>
<path d="M93.4656 81.8714C99.1496 81.8714 103.757 77.2636 103.757 71.5796C103.757 65.8956 99.1496 61.2878 93.4656 61.2878C87.7816 61.2878 83.1738 65.8956 83.1738 71.5796C83.1738 77.2636 87.7816 81.8714 93.4656 81.8714Z" fill="#B59D80"/>
</svg>
