<svg width="140" height="140" viewBox="0 0 140 140" fill="none" xmlns="http://www.w3.org/2000/svg">
<g clip-path="url(#clip0_6716_679)">
<path d="M68.75 92.4155C94.1227 92.4155 114.691 71.8469 114.691 46.4741C114.691 21.1014 94.1227 0.532715 68.75 0.532715C43.3773 0.532715 22.8086 21.1014 22.8086 46.4741C22.8086 71.8469 43.3773 92.4155 68.75 92.4155Z" fill="#25D366"/>
<path d="M65.8344 20.4914C53.84 21.973 44.4056 31.6034 43.1637 43.6306C42.9785 45.4063 43.0875 48.7835 43.3925 50.4939C43.8609 53.1847 44.6453 55.5596 45.8655 57.989L46.4755 59.2092L44.6562 65.8655C43.654 69.5368 42.8478 72.5436 42.8696 72.5545C42.8914 72.5763 45.9417 71.781 49.6566 70.8005C55.0601 69.3734 56.4655 69.0357 56.6833 69.1228C56.8359 69.1773 57.544 69.4932 58.263 69.8201C60.5943 70.8768 63.0455 71.574 65.6274 71.9226C67.425 72.1623 70.5734 72.1623 72.3164 71.9226C78.0467 71.1165 83.1561 68.589 87.1869 64.5582C89.3004 62.4556 90.7057 60.5274 92.0348 57.9019C93.2332 55.5378 94.0829 52.9559 94.5623 50.2324C94.8346 48.6419 94.8346 43.9465 94.5623 42.2797C94.0938 39.4581 93.3639 37.203 92.1329 34.7083C88.6141 27.6162 82.1211 22.5613 74.3536 20.8727C71.9351 20.3498 68.3292 20.1864 65.8344 20.4914ZM72.6432 25.0016C75.7699 25.579 78.3627 26.6248 80.9228 28.3352C85.3022 31.2657 88.516 35.8086 89.7906 40.8417C90.7275 44.5457 90.6513 48.7508 89.5945 52.3132C87.8733 58.0653 83.788 62.9132 78.428 65.5278C75.3123 67.053 72.4363 67.7175 68.9392 67.7175C64.9302 67.7175 61.3896 66.7479 57.7619 64.6562L57.1518 64.3076L53.1427 65.3644C50.9421 65.9418 49.1119 66.3993 49.101 66.3775C49.0792 66.3557 49.5259 64.6345 50.1033 62.5428C50.6698 60.4511 51.1491 58.6645 51.1491 58.5773C51.16 58.4793 50.8768 57.9346 50.5282 57.3681C45.3861 49.0014 46.737 37.9765 53.7419 31.0043C57.228 27.5399 61.6511 25.4047 66.597 24.7946C67.937 24.6312 71.2706 24.751 72.6432 25.0016Z" fill="white"/>
<path d="M58.754 34.5227C58.133 34.8277 56.9782 36.1895 56.4989 37.1917C55.5511 39.1527 55.5729 41.6366 56.5534 43.9243C57.7517 46.7459 60.9001 50.7549 64.0049 53.4131C66.1838 55.276 68.0031 56.3763 70.6722 57.4222C73.4066 58.4898 73.9295 58.6096 75.7379 58.6096C77.1651 58.6096 77.3938 58.5878 78.0475 58.3373C79.1369 57.9233 79.954 57.4113 80.7601 56.616C81.392 55.995 81.5227 55.7989 81.7297 55.1453C81.9803 54.3173 82.1328 52.9991 82.0129 52.5416C81.9585 52.3019 81.6425 52.1058 80.0956 51.3323C77.2631 49.9161 76.1192 49.4259 75.6399 49.4259C75.2368 49.4259 75.1714 49.4694 74.6921 50.1013C73.5918 51.5502 72.5786 52.6723 72.3172 52.7377C72.0012 52.8139 71.3803 52.5852 69.9531 51.8661C67.6327 50.7114 65.748 49.1535 64.1248 47.0727C63.2424 45.9397 62.4471 44.6542 62.4471 44.3492C62.4471 44.2294 62.8611 43.5866 63.3622 42.933C64.3427 41.6583 64.6259 41.179 64.6259 40.8195C64.6259 40.6997 64.408 40.1005 64.1575 39.4795C63.896 38.8694 63.3731 37.6057 62.9918 36.6797C62.5124 35.5249 62.1856 34.8822 61.9459 34.6316L61.5973 34.283H60.4208C59.4294 34.283 59.157 34.3266 58.754 34.5227Z" fill="white"/>
</g>
<path d="M4.97175 128.853L1.89975 114.021C1.81975 113.669 1.89175 113.357 2.11575 113.085C2.35575 112.813 2.65175 112.677 3.00375 112.677H3.69975C4.09975 112.677 4.44375 112.805 4.73175 113.061C5.01975 113.317 5.19575 113.637 5.25975 114.021L7.25175 126.645C7.25175 126.661 7.25975 126.669 7.27575 126.669C7.30775 126.669 7.32375 126.661 7.32375 126.645L9.24375 114.021C9.30775 113.637 9.48375 113.317 9.77175 113.061C10.0598 112.805 10.4038 112.677 10.8038 112.677H12.2438C12.6438 112.677 12.9878 112.805 13.2758 113.061C13.5638 113.317 13.7398 113.637 13.8038 114.021L15.7478 126.645C15.7478 126.661 15.7558 126.669 15.7718 126.669C15.7878 126.669 15.7958 126.661 15.7958 126.645L17.7878 114.021C17.8518 113.637 18.0278 113.317 18.3158 113.061C18.6038 112.805 18.9478 112.677 19.3478 112.677H19.9478C20.2998 112.677 20.5878 112.813 20.8118 113.085C21.0358 113.357 21.1158 113.669 21.0518 114.021L17.9798 128.853C17.8998 129.237 17.7078 129.557 17.4038 129.813C17.0998 130.069 16.7478 130.197 16.3478 130.197H15.0758C14.6758 130.197 14.3238 130.069 14.0198 129.813C13.7318 129.557 13.5558 129.237 13.4918 128.853L11.4998 116.229C11.4998 116.213 11.4918 116.205 11.4758 116.205C11.4598 116.205 11.4518 116.213 11.4518 116.229L9.45975 128.853C9.39575 129.237 9.21175 129.557 8.90775 129.813C8.61975 130.069 8.27575 130.197 7.87575 130.197H6.60375C6.20375 130.197 5.85175 130.069 5.54775 129.813C5.24375 129.557 5.05175 129.237 4.97175 128.853ZM28.0341 130.197C27.6661 130.197 27.3461 130.061 27.0741 129.789C26.8181 129.517 26.6901 129.197 26.6901 128.829V113.565C26.6901 113.197 26.8181 112.877 27.0741 112.605C27.3461 112.333 27.6661 112.197 28.0341 112.197H28.5141C28.8821 112.197 29.2021 112.333 29.4741 112.605C29.7461 112.877 29.8821 113.197 29.8821 113.565V119.133C29.8821 119.149 29.8901 119.157 29.9061 119.157C29.9221 119.157 29.9381 119.149 29.9541 119.133C31.0741 118.029 32.3061 117.477 33.6501 117.477C35.1061 117.477 36.1621 117.893 36.8181 118.725C37.4741 119.557 37.8021 120.981 37.8021 122.997V128.829C37.8021 129.197 37.6661 129.517 37.3941 129.789C37.1221 130.061 36.8021 130.197 36.4341 130.197H36.0501C35.6821 130.197 35.3621 130.061 35.0901 129.789C34.8181 129.517 34.6821 129.197 34.6821 128.829V123.477C34.6821 122.085 34.5301 121.165 34.2261 120.717C33.9381 120.269 33.3861 120.045 32.5701 120.045C31.9301 120.045 31.3221 120.333 30.7461 120.909C30.1701 121.485 29.8821 122.101 29.8821 122.757V128.829C29.8821 129.197 29.7461 129.517 29.4741 129.789C29.2021 130.061 28.8821 130.197 28.5141 130.197H28.0341ZM49.8641 124.197C47.5761 124.197 46.4321 124.901 46.4321 126.309C46.4321 126.821 46.5761 127.237 46.8641 127.557C47.1681 127.877 47.5521 128.037 48.0161 128.037C48.9281 128.037 49.6641 127.757 50.2241 127.197C50.7841 126.621 51.0641 125.837 51.0641 124.845V124.413C51.0641 124.269 50.9921 124.197 50.8481 124.197H49.8641ZM47.1521 130.437C46.0641 130.437 45.1601 130.085 44.4401 129.381C43.7361 128.661 43.3841 127.733 43.3841 126.597C43.3841 125.205 43.9121 124.125 44.9681 123.357C46.0401 122.589 47.6721 122.205 49.8641 122.205H50.8481C50.9921 122.205 51.0641 122.133 51.0641 121.989V121.797C51.0641 121.061 50.8881 120.549 50.5361 120.261C50.1841 119.957 49.5601 119.805 48.6641 119.805C47.7361 119.805 46.6001 119.973 45.2561 120.309C44.9681 120.389 44.7041 120.341 44.4641 120.165C44.2241 119.973 44.1041 119.725 44.1041 119.421C44.1041 119.053 44.2161 118.725 44.4401 118.437C44.6641 118.133 44.9521 117.949 45.3041 117.885C46.5201 117.613 47.6641 117.477 48.7361 117.477C50.7841 117.477 52.2161 117.845 53.0321 118.581C53.8481 119.317 54.2561 120.605 54.2561 122.445V128.829C54.2561 129.197 54.1201 129.517 53.8481 129.789C53.5921 130.061 53.2801 130.197 52.9121 130.197H52.6481C52.2641 130.197 51.9361 130.069 51.6641 129.813C51.3921 129.541 51.2481 129.213 51.2321 128.829V128.493C51.2321 128.477 51.2241 128.469 51.2081 128.469C51.1761 128.469 51.1601 128.477 51.1601 128.493C50.1841 129.789 48.8481 130.437 47.1521 130.437ZM60.2627 120.525C59.9427 120.525 59.6707 120.413 59.4467 120.189C59.2227 119.949 59.1107 119.669 59.1107 119.349C59.1107 119.029 59.2227 118.757 59.4467 118.533C59.6707 118.309 59.9427 118.197 60.2627 118.197H61.4147C61.5587 118.197 61.6307 118.125 61.6307 117.981V115.005C61.6307 114.637 61.7587 114.317 62.0147 114.045C62.2867 113.773 62.6067 113.637 62.9747 113.637H63.4547C63.8227 113.637 64.1427 113.773 64.4147 114.045C64.6867 114.317 64.8227 114.637 64.8227 115.005V117.981C64.8227 118.125 64.8947 118.197 65.0387 118.197H67.7747C68.0947 118.197 68.3667 118.309 68.5907 118.533C68.8307 118.757 68.9507 119.029 68.9507 119.349C68.9507 119.669 68.8307 119.949 68.5907 120.189C68.3667 120.413 68.0947 120.525 67.7747 120.525H65.0387C64.8947 120.525 64.8227 120.589 64.8227 120.717V125.565C64.8227 126.605 64.9347 127.277 65.1587 127.581C65.3827 127.885 65.8467 128.037 66.5507 128.037C66.9347 128.037 67.2227 128.021 67.4147 127.989C67.7347 127.957 68.0147 128.029 68.2547 128.205C68.4947 128.381 68.6147 128.621 68.6147 128.925C68.6147 129.277 68.4947 129.597 68.2547 129.885C68.0307 130.157 67.7507 130.309 67.4147 130.341C66.7107 130.405 66.1827 130.437 65.8307 130.437C64.2787 130.437 63.1907 130.109 62.5667 129.453C61.9427 128.781 61.6307 127.589 61.6307 125.877V120.717C61.6307 120.589 61.5587 120.525 61.4147 120.525H60.2627ZM79.3348 125.157C77.6548 124.789 76.4548 124.285 75.7348 123.645C75.0308 123.005 74.6788 122.173 74.6788 121.149C74.6788 119.997 75.1028 119.101 75.9508 118.461C76.8148 117.805 78.0868 117.477 79.7668 117.477C80.8228 117.477 81.8708 117.573 82.9108 117.765C83.2628 117.829 83.5428 118.005 83.7508 118.293C83.9748 118.565 84.0868 118.885 84.0868 119.253C84.0868 119.557 83.9668 119.805 83.7268 119.997C83.4868 120.173 83.2148 120.221 82.9108 120.141C82.0148 119.917 81.0708 119.805 80.0788 119.805C78.6388 119.805 77.9188 120.205 77.9188 121.005C77.9188 121.389 78.0548 121.709 78.3268 121.965C78.5988 122.221 79.0628 122.421 79.7188 122.565C81.5588 122.933 82.8148 123.429 83.4868 124.053C84.1748 124.677 84.5188 125.589 84.5188 126.789C84.5188 127.941 84.0868 128.837 83.2228 129.477C82.3588 130.117 81.1028 130.437 79.4548 130.437C78.3828 130.437 77.2868 130.309 76.1668 130.053C75.8148 129.973 75.5268 129.789 75.3028 129.501C75.0788 129.197 74.9668 128.853 74.9668 128.469C74.9668 128.165 75.0868 127.933 75.3268 127.773C75.5828 127.613 75.8548 127.573 76.1428 127.653C77.1828 127.941 78.1668 128.085 79.0948 128.085C80.5508 128.085 81.2788 127.653 81.2788 126.789C81.2788 126.373 81.1348 126.045 80.8468 125.805C80.5748 125.565 80.0708 125.349 79.3348 125.157ZM96.4903 115.653L94.3783 123.189C94.3623 123.237 94.3703 123.285 94.4023 123.333C94.4343 123.381 94.4743 123.405 94.5223 123.405H98.5063C98.5543 123.405 98.5943 123.381 98.6263 123.333C98.6583 123.285 98.6663 123.237 98.6503 123.189L96.5383 115.653C96.5383 115.637 96.5303 115.629 96.5143 115.629C96.4983 115.629 96.4903 115.637 96.4903 115.653ZM90.2743 130.197C89.9383 130.197 89.6743 130.061 89.4823 129.789C89.2903 129.517 89.2503 129.221 89.3623 128.901L94.3303 113.973C94.4743 113.589 94.7063 113.277 95.0263 113.037C95.3623 112.797 95.7303 112.677 96.1303 112.677H96.9943C97.4103 112.677 97.7783 112.797 98.0983 113.037C98.4343 113.277 98.6663 113.589 98.7943 113.973L103.762 128.901C103.874 129.221 103.834 129.517 103.642 129.789C103.45 130.061 103.186 130.197 102.85 130.197H101.986C101.602 130.197 101.242 130.077 100.906 129.837C100.586 129.581 100.37 129.261 100.258 128.877L99.4903 126.165C99.4743 126.037 99.3863 125.973 99.2263 125.973H93.8023C93.6583 125.973 93.5703 126.037 93.5383 126.165L92.7703 128.877C92.6743 129.261 92.4583 129.581 92.1223 129.837C91.8023 130.077 91.4423 130.197 91.0423 130.197H90.2743ZM112.074 122.325V125.589C112.074 126.229 112.346 126.797 112.89 127.293C113.45 127.789 114.098 128.037 114.834 128.037C115.682 128.037 116.354 127.693 116.85 127.005C117.346 126.317 117.594 125.301 117.594 123.957C117.594 121.237 116.674 119.877 114.834 119.877C114.098 119.877 113.45 120.125 112.89 120.621C112.346 121.117 112.074 121.685 112.074 122.325ZM110.274 135.477C109.906 135.477 109.586 135.341 109.314 135.069C109.042 134.797 108.906 134.477 108.906 134.109V119.085C108.906 118.717 109.042 118.397 109.314 118.125C109.586 117.853 109.906 117.717 110.274 117.717H110.562C110.946 117.717 111.274 117.853 111.546 118.125C111.818 118.381 111.962 118.701 111.978 119.085V119.253C111.978 119.269 111.986 119.277 112.002 119.277C112.018 119.277 112.034 119.269 112.05 119.253C112.626 118.613 113.202 118.157 113.778 117.885C114.354 117.613 115.026 117.477 115.794 117.477C117.298 117.477 118.498 118.045 119.394 119.181C120.29 120.301 120.738 121.893 120.738 123.957C120.738 125.957 120.266 127.541 119.322 128.709C118.394 129.861 117.218 130.437 115.794 130.437C114.402 130.437 113.194 129.933 112.17 128.925C112.154 128.909 112.138 128.901 112.122 128.901C112.106 128.901 112.098 128.909 112.098 128.925V134.109C112.098 134.477 111.962 134.797 111.69 135.069C111.434 135.341 111.122 135.477 110.754 135.477H110.274ZM129.488 122.325V125.589C129.488 126.229 129.76 126.797 130.304 127.293C130.864 127.789 131.512 128.037 132.248 128.037C133.096 128.037 133.768 127.693 134.264 127.005C134.76 126.317 135.008 125.301 135.008 123.957C135.008 121.237 134.088 119.877 132.248 119.877C131.512 119.877 130.864 120.125 130.304 120.621C129.76 121.117 129.488 121.685 129.488 122.325ZM127.688 135.477C127.32 135.477 127 135.341 126.728 135.069C126.456 134.797 126.32 134.477 126.32 134.109V119.085C126.32 118.717 126.456 118.397 126.728 118.125C127 117.853 127.32 117.717 127.688 117.717H127.976C128.36 117.717 128.688 117.853 128.96 118.125C129.232 118.381 129.376 118.701 129.392 119.085V119.253C129.392 119.269 129.4 119.277 129.416 119.277C129.432 119.277 129.448 119.269 129.464 119.253C130.04 118.613 130.616 118.157 131.192 117.885C131.768 117.613 132.44 117.477 133.208 117.477C134.712 117.477 135.912 118.045 136.808 119.181C137.704 120.301 138.152 121.893 138.152 123.957C138.152 125.957 137.68 127.541 136.736 128.709C135.808 129.861 134.632 130.437 133.208 130.437C131.816 130.437 130.608 129.933 129.584 128.925C129.568 128.909 129.552 128.901 129.536 128.901C129.52 128.901 129.512 128.909 129.512 128.925V134.109C129.512 134.477 129.376 134.797 129.104 135.069C128.848 135.341 128.536 135.477 128.168 135.477H127.688Z" fill="black"/>
<defs>
<clipPath id="clip0_6716_679">
<rect width="91.8828" height="91.8828" fill="white" transform="translate(22.8125 0.532715)"/>
</clipPath>
</defs>
</svg>
