<svg width="79" height="74" viewBox="0 0 79 74" fill="none" xmlns="http://www.w3.org/2000/svg">
<rect width="78.5156" height="73.8691" rx="15" fill="#BDB295"/>
<g clipPath="url(#clip0_5377_7644)">
<path d="M45.6245 20.1249L44.5916 20.7967H34.5146C26.8476 20.7967 24.3536 20.8219 24.0932 20.8975C23.6314 21.0319 22.9344 21.7289 22.8 22.1907C22.6489 22.6946 22.6489 52.489 22.8 52.9929C22.9344 53.4548 23.6314 54.1518 24.0932 54.2861C24.5971 54.4289 47.6735 54.4289 48.1774 54.2861C48.6392 54.1518 49.3362 53.4548 49.4706 52.9929C49.5462 52.7326 49.5714 50.8095 49.5714 45.2588V37.8689L50.4195 37.0376C53.2663 34.2412 55.0214 30.6386 55.4832 26.6666C55.6512 25.2306 55.6596 23.6603 55.5 23.274C55.3321 22.8709 55.1053 22.7618 54.106 22.6022C52.099 22.2747 50.3607 21.5609 48.2614 20.2005C47.5308 19.7302 47.0269 19.4531 46.8842 19.4531C46.7414 19.4531 46.2711 19.7051 45.6245 20.1249ZM47.7239 21.4601C48.7988 22.1655 50.5203 23.0221 51.5364 23.358C52.1998 23.5763 53.9717 23.9878 54.2404 23.9878C54.316 23.9878 54.2656 25.5161 54.148 26.5071C53.7281 30.1432 52.1578 33.3846 49.5714 35.9795C48.8828 36.6765 47.0437 38.1796 46.8842 38.1796C46.859 38.1796 46.4307 37.8773 45.9436 37.5078C41.9128 34.4847 39.4943 29.6729 39.4943 24.6932V23.9962L39.8134 23.9374C41.2914 23.6771 42.3579 23.3748 43.4664 22.8877C44.2053 22.5602 45.8429 21.6281 46.4643 21.183C46.6238 21.0655 46.8002 20.9731 46.859 20.9647C46.9177 20.9647 47.304 21.1914 47.7239 21.4601ZM41.5013 22.1739C41.4425 22.2327 40.057 22.5434 39.4103 22.6442C38.2011 22.8373 38.1087 23.0137 38.1759 25.0795C38.2347 26.6918 38.3691 27.6659 38.7301 29.0767C39.5531 32.209 41.2074 35.0054 43.5839 37.2643C44.3733 38.0117 45.6413 39.0026 46.3047 39.3805C46.8842 39.7164 46.9849 39.6996 48.127 38.9942C48.2026 38.9354 48.2278 40.321 48.2278 45.7794V52.6318L48.0178 52.8333L47.8163 53.0433H36.1353H24.4543L24.2528 52.8333L24.0428 52.6318V37.5918V22.5518L24.2528 22.3503L24.4543 22.1403H32.9946C37.6972 22.1403 41.5181 22.1571 41.5013 22.1739Z" fill="white"/>
<path d="M44.9863 25.1131L44.7008 25.3986V26.3727V27.3468H43.7267H42.7526L42.467 27.6323L42.1815 27.9178V29.5302V31.1425L42.467 31.428L42.7526 31.7135H43.7267H44.7008V32.6876V33.6618L44.9863 33.9473L45.2718 34.2328H46.8841H48.4965L48.782 33.9473L49.0675 33.6618V32.6876V31.7135H50.0332C50.9821 31.7135 50.9989 31.7051 51.2677 31.47L51.5448 31.2265L51.57 29.5722L51.5952 27.9262L51.3096 27.6407L51.0157 27.3468H50.0416H49.0675V26.3727V25.3986L48.782 25.1131L48.4965 24.8275H46.8841H45.2718L44.9863 25.1131ZM47.9758 27.3048V28.4385H49.1095H50.2432V29.5302V30.6218H49.1095H47.9758V31.7555V32.8892H46.8841H45.7925V31.7555V30.6218H44.6588H43.5251V29.5302V28.4385H44.6588H45.7925V27.3048V26.1712H46.8841H47.9758V27.3048Z" fill="white"/>
<path d="M30.7693 25.9276C29.812 26.2048 29.0814 27.1789 29.0814 28.195C29.0814 29.1607 29.812 30.1516 30.7189 30.4203C32.5664 30.9494 34.1955 29.3202 33.6665 27.4728C33.4733 26.8094 32.8267 26.1628 32.1885 25.9696C31.6931 25.8185 31.1976 25.8101 30.7693 25.9276ZM32.1381 27.5064C32.3565 27.7331 32.3984 27.8339 32.3984 28.1866C32.3984 28.5477 32.3565 28.64 32.1213 28.8752C31.8862 29.1103 31.7938 29.1523 31.4327 29.1523C31.0716 29.1523 30.9793 29.1103 30.7441 28.8752C30.509 28.64 30.467 28.5477 30.467 28.195C30.467 27.7583 30.677 27.4224 31.0548 27.2544C31.3656 27.1201 31.861 27.2292 32.1381 27.5064Z" fill="white"/>
<path d="M30.4334 31.3441C28.9135 31.7472 27.7294 33.0488 27.4607 34.5939C27.3935 35.0138 27.3935 35.1902 27.4859 35.4001C27.6958 35.9124 27.721 35.9124 31.4327 35.9124C35.1444 35.9124 35.1696 35.9124 35.3796 35.4001C35.4719 35.1902 35.4719 35.0138 35.4048 34.5939C35.0101 32.2846 32.6588 30.7479 30.4334 31.3441ZM32.5664 32.8137C33.0954 33.0656 33.6077 33.5694 33.8512 34.0817C33.952 34.3 34.036 34.5016 34.036 34.5268C34.036 34.552 32.8687 34.5687 31.4327 34.5687C30.0052 34.5687 28.8295 34.552 28.8295 34.5268C28.8295 34.4344 29.0562 33.9893 29.2662 33.6702C29.938 32.6625 31.4327 32.2762 32.5664 32.8137Z" fill="white"/>
<path d="M27.6118 38.4735C27.4774 38.5995 27.4019 38.7758 27.4019 38.9354C27.4019 39.0949 27.4774 39.2713 27.6118 39.3972L27.8133 39.6072H31.4327H35.052L35.2536 39.3972C35.3879 39.2713 35.4635 39.0949 35.4635 38.9354C35.4635 38.7758 35.3879 38.5995 35.2536 38.4735L35.052 38.2636H31.4327H27.8133L27.6118 38.4735Z" fill="white"/>
<path d="M27.6118 41.8325C27.4774 41.9585 27.4019 42.1348 27.4019 42.2944C27.4019 42.4539 27.4774 42.6303 27.6118 42.7562L27.8133 42.9662H36.1353H44.4573L44.6588 42.7562C44.7932 42.6303 44.8687 42.4539 44.8687 42.2944C44.8687 42.1348 44.7932 41.9585 44.6588 41.8325L44.4573 41.6226H36.1353H27.8133L27.6118 41.8325Z" fill="white"/>
<path d="M27.6118 45.1915C27.4774 45.3175 27.4019 45.4938 27.4019 45.6534C27.4019 45.8129 27.4774 45.9893 27.6118 46.1153L27.8133 46.3252H36.1353H44.4573L44.6588 46.1153C44.7932 45.9893 44.8687 45.8129 44.8687 45.6534C44.8687 45.4938 44.7932 45.3175 44.6588 45.1915L44.4573 44.9816H36.1353H27.8133L27.6118 45.1915Z" fill="white"/>
<path d="M27.6118 48.5507C27.4774 48.6766 27.4019 48.853 27.4019 49.0125C27.4019 49.1721 27.4774 49.3484 27.6118 49.4744L27.8133 49.6843H36.1353H44.4573L44.6588 49.4744C44.7932 49.3484 44.8687 49.1721 44.8687 49.0125C44.8687 48.853 44.7932 48.6766 44.6588 48.5507L44.4573 48.3407H36.1353H27.8133L27.6118 48.5507Z" fill="white"/>
</g>
<defs>
<clipPath id="clip0_5377_7644">
<rect width="43" height="43" fill="white" transform="translate(17.3555 15.0312)"/>
</clipPath>
</defs>
</svg>
