<svg width="80" height="75" viewBox="0 0 80 75" fill="none" xmlns="http://www.w3.org/2000/svg">
<rect x="0.675781" y="0.570312" width="78.5156" height="73.8691" rx="15" fill="#BDB295"/>
<g clipPath="url(#clip0_5377_7642)">
<path d="M33.7265 17.414L33.8542 17.3255L35.114 16.452L36.2462 15.6671L38.1885 15.6593L38.1905 15.6593L40.1261 15.6593L41.2113 16.4451L41.2126 16.4461L42.4206 17.327L42.5523 17.423H42.7152H45.134H47.0527V18.4347V19.9464V20.4464H47.5527H50.8701H53.6875V27.8157V35.6935V35.9045L53.8387 36.0517L54.4755 36.6718C54.4757 36.6719 54.4759 36.6721 54.476 36.6723C55.7758 37.9485 56.5609 39.4415 56.9211 41.3622L56.9214 41.3639C57.1583 42.604 57.0432 44.4032 56.6638 45.4794L56.6627 45.4824L56.5032 45.9443L56.4014 46.239L56.6212 46.4601L59.6272 49.4829L33.7265 17.414ZM33.7265 17.414L33.5711 17.4146L31.2028 17.423H31.201H29.3242M33.7265 17.414L29.3242 17.423M29.3242 17.423V18.4347V19.9464V20.4464H28.8242H25.5488H22.7734V39.0529V57.6593H38.2305H53.6875V56.1269V54.1029V52.9125L54.5375 53.7458L56.2424 55.4171L56.2432 55.4178C56.7822 55.9485 57.2378 56.3812 57.5907 56.6971C57.7673 56.8552 57.9146 56.9809 58.0316 57.0738C58.1559 57.1726 58.2233 57.2159 58.2462 57.2277L58.2462 57.2277L58.2528 57.2312C59.9676 58.1472 61.926 57.5181 62.7927 55.7628L62.7938 55.7605C62.9544 55.4394 62.9976 55.3396 63.0214 55.212C63.0496 55.0612 63.0518 54.8646 63.0518 54.3464C63.0518 53.837 63.0478 53.6307 63.0206 53.4775C62.9977 53.3486 62.9578 53.252 62.8169 52.9616C62.7153 52.7553 62.6051 52.5758 62.1739 52.1012C61.7336 51.6167 60.9869 50.8552 59.6279 49.4835L29.3242 17.423Z" stroke="white"/>
<path d="M27.3125 29.2333C27.3125 29.6776 27.6727 30.0377 28.1169 30.0377H34.9551H41.7932C42.2375 30.0377 42.5977 29.6776 42.5977 29.2333C42.5977 28.789 42.2375 28.4288 41.7932 28.4288H34.9551H28.1169C27.6727 28.4288 27.3125 28.789 27.3125 29.2333Z" fill="white"/>
<path d="M27.3125 34.7696C27.3125 35.2142 27.6729 35.5746 28.1175 35.5746H32.3516H36.5856C37.0302 35.5746 37.3906 35.2142 37.3906 34.7696C37.3906 34.325 37.0302 33.9646 36.5856 33.9646H32.3516H28.1175C27.6729 33.9646 27.3125 34.325 27.3125 34.7696Z" fill="white"/>
<path d="M27.3125 40.2215C27.3125 40.6661 27.6729 41.0265 28.1175 41.0265H30.5879H33.0583C33.5029 41.0265 33.8633 40.6661 33.8633 40.2215C33.8633 39.7769 33.5029 39.4165 33.0583 39.4165H30.5879H28.1175C27.6729 39.4165 27.3125 39.7769 27.3125 40.2215Z" fill="white"/>
<path d="M27.3125 45.2606C27.3125 45.7051 27.6729 46.0656 28.1175 46.0656H31.4697H34.822C35.2665 46.0656 35.627 45.7051 35.627 45.2606C35.627 44.816 35.2665 44.4556 34.822 44.4556H31.4697H28.1175C27.6729 44.4556 27.3125 44.816 27.3125 45.2606Z" fill="white"/>
<path d="M27.3125 50.2996C27.3125 50.7442 27.6729 51.1046 28.1175 51.1046H32.3516H36.5856C37.0302 51.1046 37.3906 50.7442 37.3906 50.2996C37.3906 49.855 37.0302 49.4946 36.5856 49.4946H32.3516H28.1175C27.6729 49.4946 27.3125 49.855 27.3125 50.2996Z" fill="white"/>
<path d="M48.9217 41.5472L47.2168 43.2521L46.6037 42.639L45.999 42.0343L45.092 42.9413L44.1934 43.84L45.7051 45.3517L47.2168 46.8634L49.8623 44.2179L52.5078 41.5724L51.6512 40.7157C51.1725 40.237 50.7525 39.8507 50.7021 39.8507C50.6602 39.8507 49.8539 40.615 48.9217 41.5472Z" fill="white"/>
</g>
<defs>
<clipPath id="clip0_5377_7642">
<rect width="43" height="43" fill="white" transform="translate(21.4336 15.1593)"/>
</clipPath>
</defs>
</svg>
