<svg width="80" height="75" viewBox="0 0 80 75" fill="none" xmlns="http://www.w3.org/2000/svg">
<rect x="0.675781" y="0.25" width="78.5156" height="73.8691" rx="15" fill="#BDB295"/>
<path d="M39.1873 24.2137C39.0404 24.3606 39.034 24.3989 38.9893 26.136C38.9446 27.8412 38.9446 27.9178 39.0659 28.0838C39.2448 28.3138 39.4747 28.384 39.7237 28.2818C40.0686 28.1349 40.0878 28.0328 40.1133 26.1296L40.1389 24.3989L39.9856 24.2329C39.7748 24.0094 39.398 24.003 39.1873 24.2137Z" fill="white"/>
<path d="M32.2454 26.0402C32.124 26.1679 32.0602 26.2957 32.0602 26.4234C32.0602 26.5511 32.3348 27.1131 32.9032 28.1286C33.6376 29.4505 33.7653 29.6485 33.9569 29.7251C34.3401 29.8912 34.7424 29.623 34.7424 29.2015C34.7424 28.9971 33.2608 26.2893 33.0117 26.0274C32.7755 25.7912 32.4945 25.7975 32.2454 26.0402Z" fill="white"/>
<path d="M46.2825 26.0338C46.0271 26.1935 44.3666 29.0099 44.3602 29.2845C44.3602 29.706 44.8967 29.9806 45.2352 29.7252C45.4204 29.5847 47.1319 26.6916 47.1319 26.5128C47.1319 26.2765 47.017 26.1105 46.7807 26.0083C46.506 25.8933 46.4997 25.8933 46.2825 26.0338Z" fill="white"/>
<path d="M38.702 30.0445C35.4705 30.4532 32.8968 32.3499 31.7025 35.1919C30.9362 37.0056 30.8467 39.1897 31.4598 41.0992C31.6961 41.8401 32.2581 42.9321 32.7243 43.5516C35.7642 47.5878 41.7163 48.0859 45.3821 44.6181C46.6466 43.4175 47.5407 41.789 47.86 40.0966C48.4986 36.731 47.1128 33.3654 44.3092 31.475C42.9425 30.5554 41.4417 30.0828 39.7557 30.0381C39.3023 30.0253 38.8233 30.0317 38.702 30.0445ZM40.7839 31.3153C41.9143 31.5133 42.9936 31.9731 43.8813 32.6309C44.4241 33.0333 45.3055 33.9529 45.6503 34.4766C47.2533 36.9162 47.2022 40.2626 45.5162 42.7405C45.1777 43.2387 44.4625 43.9923 43.9452 44.3818C43.4279 44.7714 42.3039 45.3462 41.7227 45.5186C39.8898 46.0614 38.0059 45.9209 36.3518 45.1163C35.5854 44.7395 35.0937 44.401 34.5061 43.8454C32.9287 42.3446 32.1049 40.3201 32.207 38.1871C32.2965 36.3542 32.9606 34.8151 34.2507 33.4739C35.6812 31.9859 37.4119 31.2387 39.4747 31.2259C39.8898 31.2195 40.471 31.2643 40.7839 31.3153Z" fill="white"/>
<path d="M38.5295 32.6565C36.8627 32.9566 35.4641 33.8763 34.5445 35.2685C33.8675 36.2967 33.5801 37.2802 33.5737 38.5638C33.5737 40.0646 34.0335 41.3036 35.0554 42.517C36.0452 43.6921 37.7696 44.5032 39.2767 44.5032C39.7557 44.5032 39.7813 44.4968 39.9409 44.3052L40.107 44.1072V38.5958C40.107 34.451 40.0878 33.0333 40.0303 32.9119C39.8707 32.5607 39.4428 32.4904 38.5295 32.6565ZM38.9574 38.5V43.3536L38.7531 43.3153C38.4082 43.2578 37.7312 43.0279 37.3928 42.8555C35.1512 41.7379 34.1293 39.145 34.9979 36.7693C35.5343 35.3004 36.9202 34.0742 38.421 33.7485C38.6637 33.6974 38.8808 33.6527 38.9127 33.6527C38.9383 33.6464 38.9574 35.8305 38.9574 38.5Z" fill="white"/>
<path d="M27.1746 31.1174C27.0916 31.2004 27.0021 31.3409 26.983 31.4303C26.8936 31.7688 27.066 31.9157 28.5285 32.7651C30.1634 33.7166 30.2273 33.7422 30.4763 33.64C30.6679 33.5633 30.8467 33.2951 30.8467 33.0844C30.8467 32.8353 30.5593 32.6182 29.1607 31.8007C27.6089 30.8939 27.4492 30.8428 27.1746 31.1174Z" fill="white"/>
<path d="M50.0058 31.8326C49.2139 32.2733 48.5114 32.6884 48.4412 32.7587C48.1346 33.0524 48.3901 33.7102 48.8116 33.7102C49.0032 33.7102 51.8387 32.2094 52.0814 31.9795C52.2794 31.7879 52.2538 31.3728 52.0303 31.1812C51.7174 30.913 51.5641 30.9641 50.0058 31.8326Z" fill="white"/>
<path d="M25.4822 37.9061C25.0224 38.0657 24.9585 38.7044 25.3864 38.9279C25.5716 39.0237 28.784 39.1067 29.0075 39.0173C29.2757 38.9151 29.4098 38.666 29.3396 38.3914C29.231 37.9572 29.1672 37.938 27.2704 37.9061C26.338 37.8933 25.5333 37.8933 25.4822 37.9061Z" fill="white"/>
<path d="M49.8781 38.104C49.7759 38.2126 49.6865 38.3595 49.6865 38.4361C49.6865 38.6533 49.859 38.9215 50.0505 38.9981C50.1591 39.0428 50.9127 39.0748 51.9345 39.0875L53.6333 39.1067L53.7993 38.9534C54.0739 38.698 54.0101 38.2445 53.678 38.0721C53.6077 38.0338 52.8095 37.9827 51.8132 37.9572L50.0761 37.9061L49.8781 38.104Z" fill="white"/>
<path d="M28.6115 44.0881C27.8196 44.5287 27.1107 44.963 27.0277 45.0524C26.9511 45.1418 26.8872 45.2951 26.8872 45.4036C26.8872 45.6655 27.1938 45.972 27.4556 45.972C27.5833 45.972 28.1453 45.6974 29.1607 45.129C30.4827 44.3946 30.6807 44.2669 30.7573 44.0753C30.9234 43.6857 30.6552 43.2898 30.2273 43.2898C30.1187 43.2898 29.4801 43.6091 28.6115 44.0881Z" fill="white"/>
<path d="M48.5434 43.3792C48.2241 43.558 48.1347 43.9348 48.3454 44.203C48.5306 44.4393 51.2959 46.0359 51.5194 46.0359C51.7685 46.0359 51.9601 45.889 52.0495 45.6272C52.1709 45.2568 52.0367 45.1099 51.1107 44.5734C49.2076 43.4686 48.8883 43.2898 48.7989 43.2898C48.7414 43.2961 48.6264 43.3345 48.5434 43.3792Z" fill="white"/>
<path d="M33.8355 47.2748C33.7717 47.3196 33.331 48.0029 32.8584 48.7884C31.9516 50.2892 31.8749 50.4936 32.0921 50.8065C32.239 51.0172 32.5838 51.1067 32.8073 50.9981C33.05 50.8704 34.6977 48.0157 34.6977 47.7155C34.7105 47.294 34.1676 47.0194 33.8355 47.2748Z" fill="white"/>
<path d="M44.6604 47.2812C44.4305 47.377 44.3219 47.5431 44.3219 47.7985C44.3219 48.0093 45.8802 50.7873 46.0973 50.9598C46.2825 51.1067 46.4996 51.113 46.7423 50.9853C47.1638 50.7682 47.1191 50.583 46.1612 48.8714C45.4331 47.5558 45.299 47.3515 45.1138 47.2748C44.8647 47.1727 44.9158 47.1663 44.6604 47.2812Z" fill="white"/>
<path d="M39.2703 48.7501C39.1809 48.8012 39.0723 48.9225 39.034 49.0183C38.9893 49.1269 38.9573 49.8805 38.9446 50.9023L38.9254 52.6011L39.0787 52.7671C39.2894 52.9906 39.6662 52.997 39.877 52.7863C40.0239 52.6394 40.0239 52.6011 40.075 50.9278C40.126 49.0566 40.1069 48.9161 39.7812 48.7501C39.5641 48.6351 39.481 48.6351 39.2703 48.7501Z" fill="white"/>
</svg>
