<svg width="80" height="74" viewBox="0 0 80 74" fill="none" xmlns="http://www.w3.org/2000/svg">
<rect x="0.675781" y="0.00787354" width="78.5156" height="73.8691" rx="15" fill="#BDB295"/>
<path d="M34.663 17.1416C32.3871 17.6371 30.6066 19.426 30.1195 21.7188C30.0355 22.1219 30.0019 23.0121 30.0019 25.0949V27.9252L29.6912 27.9756C25.4332 28.6811 22.1074 31.4777 20.8056 35.4418C20.2513 37.1299 20.2513 37.1803 20.2765 45.8223L20.3017 53.5908L20.4865 53.9855C20.7552 54.5818 21.3515 55.1697 21.9646 55.4469L22.4853 55.6904H40.416H58.3466L58.9093 55.4133C59.556 55.0941 60.0011 54.6406 60.3119 53.9771L60.5302 53.5068V45.5703C60.5302 36.8779 60.5386 37.1215 60.0179 35.4922C59.4552 33.7453 58.6826 32.4939 57.3052 31.125C55.9615 29.7813 54.5757 28.9162 52.9632 28.4123C52.4509 28.2443 51.0652 27.9336 50.872 27.9336C50.8552 27.9336 50.83 26.5646 50.8132 24.885C50.7796 21.9875 50.7712 21.8195 50.5865 21.2568C49.8726 19.09 48.1089 17.4943 46.0093 17.108C45.2451 16.9652 35.3181 16.9988 34.663 17.1416ZM46.4796 18.4518C48.0669 19.0648 49.1923 20.3666 49.5283 21.9539C49.6207 22.3738 49.6542 23.1969 49.6542 25.1789V27.8496H48.7724H47.8906V25.2125C47.8906 22.8106 47.8738 22.5334 47.7226 22.0463C47.5126 21.3744 47.1095 20.8201 46.5804 20.4674C45.7826 19.9467 45.833 19.9467 40.2396 19.9719L35.1669 19.9971L34.6042 20.2742C33.9576 20.5934 33.5124 21.0469 33.2017 21.7104C32.9917 22.1639 32.9833 22.2395 32.9582 23.9527L32.933 25.7248L33.1597 25.9096C33.4537 26.1363 33.6552 26.1363 33.9072 25.876C34.1171 25.6744 34.1171 25.6576 34.1171 24.1795C34.1171 23.3396 34.1591 22.5334 34.2095 22.3486C34.3355 21.9119 34.8982 21.3492 35.3349 21.2232C35.8136 21.0889 45.0687 21.0973 45.4634 21.2232C45.8917 21.3744 46.2781 21.6852 46.488 22.0799C46.6644 22.4242 46.6728 22.525 46.698 25.1369L46.7232 27.8496H38.9546H31.1777V25.1789C31.1777 22.2311 31.2197 21.8027 31.6312 20.9209C32.2443 19.6107 33.5628 18.5525 34.9234 18.2838C35.1669 18.2418 37.5605 18.2082 40.6259 18.2166L45.9169 18.2334L46.4796 18.4518ZM51.5019 29.227C55.0544 30.0668 57.7587 32.4436 58.8505 35.6938C59.3544 37.1803 59.3376 36.9703 59.3712 43.4035L59.4048 49.3496H44.8251H30.2455L30.0439 49.5596C29.7919 49.8115 29.7835 50.0131 30.0103 50.307L30.1783 50.5254H44.7915H59.3964V51.76C59.3964 52.4486 59.3544 53.1541 59.3041 53.3389C59.1697 53.8344 58.5986 54.3467 58.0527 54.4643C57.7503 54.5314 52.6105 54.5566 40.3404 54.5566C21.2843 54.5566 22.5021 54.5902 21.9646 54.0359C21.5027 53.5572 21.4355 53.2801 21.4355 51.8271V50.5254H24.5765C27.4992 50.5254 27.7259 50.517 27.9107 50.3742C28.171 50.1559 28.171 49.7191 27.9107 49.5008C27.7259 49.358 27.4992 49.3496 24.5681 49.3496H21.4271L21.4607 43.3615C21.4943 36.9367 21.4859 37.1131 21.9394 35.7273C23.1152 32.2168 26.3906 29.5545 30.0943 29.1178C30.4386 29.0758 35.2509 29.0506 40.7939 29.059C50.1078 29.0758 50.9224 29.0842 51.5019 29.227Z" fill="white"/>
<path d="M37.6781 33.317C37.5354 33.4766 37.5186 33.6613 37.4934 35.2906L37.4682 37.0879H35.6793C34.05 37.0879 33.882 37.1047 33.7561 37.2391C33.6301 37.3734 33.6133 37.6926 33.6133 39.9686V42.5385L33.8316 42.7064C34.0416 42.8744 34.1592 42.8828 35.7633 42.8828H37.4766V44.5625C37.4766 45.6543 37.5102 46.3094 37.5773 46.4521C37.7369 46.8049 38.0729 46.8469 40.5924 46.8133C42.7424 46.7881 42.9355 46.7797 43.0951 46.6285C43.2631 46.4773 43.2715 46.3934 43.2715 44.6717V42.8828H45.0268C46.6729 42.8828 46.7904 42.8744 47.0004 42.7064L47.2188 42.5385V39.9937C47.2188 37.9361 47.1936 37.4238 47.1012 37.2894C46.992 37.1467 46.8408 37.1299 45.1443 37.0879L43.3135 37.0459L43.2883 35.2402C43.2715 33.5186 43.2631 33.4262 43.0951 33.2834C42.9355 33.1574 42.6752 33.1406 40.374 33.1406C37.9049 33.1406 37.8377 33.149 37.6781 33.317ZM42.1125 36.1221C42.1377 37.7178 42.1545 37.9361 42.2889 38.0705C42.4232 38.2049 42.6416 38.2217 44.2373 38.2469L46.043 38.2721V39.9937V41.707H44.2457H42.44L42.2721 41.9254C42.1041 42.1353 42.0957 42.2529 42.0957 43.9074V45.6543L40.3992 45.6375L38.6943 45.6123L38.6691 43.815C38.6523 42.2865 38.6271 41.9842 38.5096 41.8582C38.3836 41.7238 38.2072 41.707 36.5779 41.707H34.7891V39.9853V38.2637H36.4771C38.1148 38.2637 38.4256 38.2217 38.5852 37.9781C38.6188 37.9277 38.6523 37.0795 38.6523 36.0969V34.3164H40.3656H42.0873L42.1125 36.1221Z" fill="white"/>
</svg>
