<svg width="80" height="75" viewBox="0 0 80 75" fill="none" xmlns="http://www.w3.org/2000/svg">
<rect x="0.675781" y="0.492188" width="78.5156" height="73.8691" rx="15" fill="#BDB295"/>
<g clipPath="url(#clip0_5377_7636)">
<path d="M56.0788 16.0593C55.8604 16.1349 55.5329 16.3701 55.2809 16.622C54.9114 16.9999 54.7014 17.3863 53.3997 20.1577C52.5934 21.8626 51.9216 23.2736 51.9132 23.2904C51.9048 23.3072 51.5772 23.2232 51.1993 23.0972C50.813 22.9796 50.0823 22.7949 49.57 22.7025C48.6882 22.5345 48.3438 22.5261 41.3815 22.4925C33.8565 22.4505 32.9495 22.4841 31.4294 22.8033C29.5061 23.198 27.2721 24.1722 25.6764 25.306C24.6518 26.0283 22.779 27.9011 22.0399 28.9341C20.9145 30.5214 19.9319 32.7638 19.5456 34.6451C19.1676 36.4591 19.1173 39.197 19.4112 40.9019C19.9739 44.0849 21.4436 46.9404 23.6524 49.1743L24.4083 49.9386L24.2403 52.9704C24.1395 54.6417 24.0891 56.1283 24.1227 56.2794C24.1899 56.6574 24.5175 56.9009 24.9542 56.9009C25.2313 56.9009 25.878 56.5986 28.4059 55.3052L31.5134 53.7095H34.9315H38.3497L38.5176 53.4911C38.7192 53.2308 38.736 53.13 38.5932 52.8277C38.4253 52.4581 38.1481 52.4413 34.4948 52.4665L31.0934 52.4917L28.2884 53.9363C26.743 54.7341 25.4497 55.3892 25.4161 55.3892C25.3825 55.3892 25.3741 55.1708 25.3909 54.9021C25.4497 54.1714 25.6764 49.905 25.6764 49.6279C25.6764 49.4347 25.5421 49.2583 25.0214 48.7544C21.9643 45.8318 20.4694 42.3128 20.4694 38.0716C20.4694 36.3079 20.6878 34.9138 21.1917 33.3853C22.8378 28.4302 27.0202 24.8441 32.2272 23.9286C33.0419 23.7775 33.6885 23.7691 40.7516 23.7691C47.7391 23.7691 48.4614 23.7859 49.1921 23.9202C50.2755 24.1218 51.2917 24.4074 51.2917 24.5081C51.2917 24.5501 50.8214 25.5915 50.2335 26.8177C49.0997 29.2197 49.0493 29.4044 49.4608 29.7152C49.696 29.8915 50.0067 29.8663 50.2167 29.6564C50.2839 29.5976 51.2329 27.6408 52.3415 25.3144C53.4417 22.988 54.3571 21.0648 54.3655 21.048C54.3907 21.0228 58.6571 23.0216 58.7495 23.0972C58.7831 23.1224 51.2161 39.0374 51.1405 39.1046C51.0481 39.1802 46.7985 37.1058 46.8237 36.9966C46.8321 36.9462 47.3696 35.7872 48.0163 34.4267C48.663 33.0661 49.1921 31.8652 49.1921 31.756C49.1921 31.3193 48.5034 31.0337 48.1758 31.3361C48.1003 31.4033 47.42 32.7554 46.6641 34.3343L45.2952 37.2066L45.0684 40.6919C44.9341 42.6068 44.8333 44.2025 44.8333 44.2361C44.8249 44.2781 41.1632 44.3033 36.6952 44.3033C28.9182 44.3033 28.5487 44.3117 28.4227 44.4544C28.2212 44.6812 28.238 45.1683 28.4563 45.3615C28.6243 45.5126 28.9014 45.521 36.8212 45.5462C43.8926 45.563 45.0348 45.5798 45.186 45.689C45.2868 45.7562 45.5219 45.815 45.7151 45.815C46.1434 45.815 46.051 45.8906 49.4692 42.7076L51.9551 40.4064L54.7014 34.6031C56.2132 31.4201 57.4813 28.7745 57.5149 28.7326C57.6577 28.5646 59.0518 30.6138 59.6145 31.84C60.4628 33.6708 60.8491 35.3253 60.9247 37.4585C61.0171 40.23 60.6307 42.2288 59.5557 44.4712C57.6493 48.4605 54.1303 51.2236 49.7128 52.2146C48.9569 52.3742 48.579 52.3993 44.7829 52.4413C42.5237 52.4749 40.6089 52.5253 40.5333 52.5589C40.3905 52.6261 40.2057 52.9704 40.2057 53.1552C40.2057 53.214 40.2897 53.3652 40.3821 53.4911L40.5585 53.7179L44.7325 53.6927C48.6882 53.6591 48.9485 53.6507 49.8219 53.4659C55.2809 52.3322 59.6733 48.4605 61.4202 43.2451C62.2852 40.6583 62.4532 37.4921 61.8737 34.6535C61.4118 32.3691 60.278 30.0007 58.7411 28.1195C58.4303 27.7415 58.1784 27.3972 58.1784 27.3636C58.1784 27.33 58.9426 25.6923 59.8749 23.7271L61.5798 20.1577L61.6049 19.5027C61.6385 18.9064 61.6133 18.7972 61.3782 18.3101C61.0087 17.571 60.6055 17.2435 59.1946 16.5632C57.9852 15.9753 57.96 15.9669 57.2126 15.9417C56.6751 15.9249 56.3475 15.9585 56.0788 16.0593ZM58.7915 17.7558C59.6733 18.1925 59.9169 18.3521 60.1184 18.6292C60.5132 19.1751 60.4712 19.5447 59.8413 20.8632L59.3122 21.9634L57.1538 20.9388C55.9612 20.3677 54.987 19.8638 54.987 19.8134C54.987 19.763 55.2305 19.2171 55.5329 18.6124C56.188 17.2771 56.3391 17.1511 57.1706 17.2015C57.6325 17.2267 57.876 17.3107 58.7915 17.7558ZM50.2335 40.1376C50.3259 40.1712 48.7134 41.7753 48.579 41.7837C48.537 41.7837 48.0163 41.5486 47.4116 41.263L46.3198 40.7423L46.3786 39.8605C46.4038 39.3734 46.4458 38.8359 46.471 38.6679L46.513 38.3572L48.327 39.2306C49.3264 39.7093 50.1831 40.1124 50.2335 40.1376ZM47.462 42.7076C47.5292 42.7747 46.3786 43.9505 46.177 44.0345C46.1182 44.0513 46.135 43.3626 46.219 42.5648L46.261 42.1281L46.8237 42.38C47.1344 42.5228 47.42 42.6656 47.462 42.7076Z" fill="white"/>
<path d="M28.4478 30.9497C28.1959 31.2017 28.2211 31.6468 28.5066 31.8736C28.725 32.0415 28.767 32.0415 33.0921 32.0247L37.4509 31.9995L37.6105 31.798C37.8289 31.5292 37.8121 31.1849 37.5769 30.9665L37.3837 30.7818H32.9998C28.725 30.7818 28.6074 30.7902 28.4478 30.9497Z" fill="white"/>
<path d="M28.6998 35.2917C28.2715 35.4513 28.1287 36.0056 28.4479 36.3247C28.6159 36.4927 28.725 36.4927 35.7041 36.4927C42.3389 36.4927 42.8008 36.4843 42.9688 36.3415C43.2459 36.1232 43.2291 35.6781 42.9436 35.4261L42.7168 35.2329L35.7713 35.2413C31.95 35.2413 28.767 35.2665 28.6998 35.2917Z" fill="white"/>
<path d="M28.4479 39.9361C28.196 40.188 28.2212 40.6331 28.4983 40.8515C28.7251 41.0279 28.7671 41.0279 35.679 41.0279C40.7012 41.0279 42.6917 41.0027 42.8428 40.9355C43.1284 40.8011 43.2376 40.4568 43.1032 40.1292C43.0444 39.9949 42.9352 39.8521 42.8512 39.8185C42.7756 39.7933 39.5422 39.7681 35.6622 39.7681C28.7251 39.7681 28.6159 39.7681 28.4479 39.9361Z" fill="white"/>
</g>
<defs>
<clipPath id="clip0_5377_7636">
<rect width="43" height="43" fill="white" transform="translate(19.2097 14.9087)"/>
</clipPath>
</defs>
</svg>
