<svg width="80" height="75" viewBox="0 0 80 75" fill="none" xmlns="http://www.w3.org/2000/svg">
<rect x="0.675781" y="0.8125" width="78.5156" height="73.8691" rx="15" fill="#BDB295"/>
<g clipPath="url(#clip0_5377_7643)">
<path d="M29.5782 18.0707C28.7887 18.3562 28.2428 18.9441 28.0328 19.7336C27.8901 20.3047 27.8733 28.5268 28.016 28.9467C28.1084 29.207 28.4528 29.459 28.7215 29.459C28.9903 29.459 29.3346 29.207 29.427 28.9467C29.4858 28.7619 29.5194 27.2922 29.5194 24.3275V19.9771L29.7209 19.742L29.9225 19.5068H44.8045H59.6866L59.9301 19.784L60.1737 20.0527V35.8838V51.7148H57.2594C54.3619 51.7148 54.3367 51.7148 53.9084 51.9164C53.4045 52.1516 52.9594 52.5715 52.7326 53.025C52.5815 53.3273 52.5731 53.5793 52.5479 56.3508L52.5227 59.3574H48.1555H43.7799L43.5364 59.601C43.2424 59.8949 43.2172 60.2477 43.4692 60.5668L43.6371 60.7852H49.0289H54.4207L57.9229 57.283L61.4334 53.7725V36.4465V19.1205L60.9883 18.6754C60.1989 17.8859 61.7442 17.9531 44.8129 17.9531C32.484 17.9615 29.8385 17.9783 29.5782 18.0707ZM56.9823 56.124L54.0848 59.0215L54.0596 56.4096C54.0428 53.5793 54.0512 53.4869 54.4879 53.3105C54.5887 53.2686 55.8401 53.235 57.2762 53.235L59.8797 53.2266L56.9823 56.124Z" fill="white"/>
<path d="M47.1981 21.934C44.5274 22.5471 42.4698 24.5375 41.7727 27.1578C41.5292 28.0985 41.5208 29.6606 41.7727 30.5928C42.453 33.1627 44.3763 35.086 46.9462 35.7662C47.8868 36.0182 49.4489 36.0182 50.3895 35.7662C52.9847 35.0776 54.9499 33.0703 55.563 30.5088C55.7141 29.8705 55.7309 29.5682 55.7058 28.6192C55.6722 27.6198 55.6386 27.393 55.395 26.6875C55.0255 25.5873 54.4712 24.6971 53.6565 23.8824C52.8503 23.0678 51.96 22.5219 50.8431 22.144C50.1292 21.9004 49.936 21.8668 48.8778 21.85C48.0884 21.8248 47.5341 21.8584 47.1981 21.934ZM49.8856 23.4541C51.4058 23.7733 52.9091 24.9406 53.6061 26.36C54.4292 28.0229 54.4124 29.8789 53.5641 31.4998C53.0854 32.4069 52.1028 33.3643 51.1874 33.8178C50.1376 34.3217 49.5833 34.4393 48.4159 34.3973C47.6013 34.3637 47.3409 34.3133 46.7614 34.0949C45.8796 33.7674 45.2833 33.3727 44.6198 32.6588C43.654 31.6426 43.2089 30.6012 43.1417 29.1987C43.0913 28.0733 43.2509 27.2922 43.7296 26.3264C44.4015 24.9742 45.8628 23.8321 47.3661 23.4625C48.0212 23.303 49.1466 23.303 49.8856 23.4541Z" fill="white"/>
<path d="M51.4729 26.4607C51.3721 26.5195 50.6582 27.3174 49.894 28.2412C49.1213 29.165 48.4662 29.9293 48.4326 29.9461C48.3906 29.9545 47.9539 29.5514 47.4584 29.0391C46.9629 28.5267 46.459 28.09 46.3414 28.0648C45.8207 27.9305 45.2748 28.5519 45.468 29.0475C45.51 29.1566 46.1231 29.8453 46.8369 30.576C48.0463 31.8189 48.1387 31.9029 48.4326 31.8945C48.6594 31.8945 48.819 31.8273 48.9953 31.6594C49.4069 31.2898 52.4555 27.5861 52.5395 27.3678C52.7914 26.7295 52.0692 26.1164 51.4729 26.4607Z" fill="white"/>
<path d="M28.9399 31.2647C27.4366 31.5922 26.0257 32.7008 25.3874 34.0445C24.7239 35.4555 24.7743 37.152 25.5721 39.873C26.412 42.7369 26.58 43.3836 26.7731 44.3242C27.0167 45.4832 27.2518 47.3813 27.2518 48.1119V48.5822L26.5548 48.6242C25.043 48.725 24.2536 49.5313 24.1528 51.085L24.1024 51.8408L22.3807 51.8828C20.7598 51.9248 20.6339 51.9332 20.2475 52.1348C19.7016 52.4119 19.0802 53.1174 18.845 53.7137C18.6854 54.1252 18.6518 54.4023 18.6182 55.6453C18.5679 57.6105 18.677 57.8457 19.6261 57.8457H20.1132V58.8283C20.1132 59.7102 20.1384 59.8529 20.3063 60.1385C20.4155 60.3148 20.6087 60.5332 20.7514 60.6172C20.9866 60.7768 21.2302 60.7852 30.1829 60.7852H39.3708L39.6479 60.5752C40.0847 60.2393 40.1434 60.0797 40.1854 58.9375L40.2274 57.8877L40.7565 57.8457C41.2184 57.8121 41.3192 57.7701 41.504 57.5602L41.7139 57.3166L41.6804 55.7125C41.6552 54.1168 41.6552 54.1084 41.3864 53.5457C41.0757 52.8906 40.6222 52.4119 40.0511 52.1264C39.6647 51.9416 39.5388 51.9248 38.0354 51.8996L36.4313 51.8744L36.3893 51.1857C36.3305 50.2955 36.0954 49.7412 35.5663 49.2457C35.0792 48.7922 34.5333 48.6074 33.6514 48.6074H33.03L33.0888 47.8684C33.2483 45.6512 33.5759 43.9463 34.2813 41.5107C35.2555 38.1934 35.4571 37.0932 35.3731 35.7662C35.18 32.726 32.1145 30.5844 28.9399 31.2647ZM31.0983 32.7764C32.3917 33.0871 33.3575 33.9689 33.727 35.1867C34.0294 36.1777 33.8782 37.3955 33.1559 39.873C32.1649 43.2408 31.871 44.8281 31.6526 47.8264L31.5938 48.6074H30.1409H28.6796V48.0783C28.6796 47.4316 28.4696 45.4748 28.2932 44.4082C28.1085 43.266 27.7473 41.8131 27.2602 40.167C26.1516 36.4297 26.2104 34.8928 27.529 33.6834C28.478 32.81 29.805 32.474 31.0983 32.7764ZM34.6005 50.4215C34.7432 50.5811 34.8104 50.7742 34.8524 51.1689C34.886 51.4629 34.886 51.74 34.8524 51.7904C34.8188 51.8576 34.021 51.8828 32.3665 51.8828H29.9309L29.7294 52.0928C29.4102 52.4035 29.4354 52.8906 29.7798 53.1762L30.0401 53.3945H34.6341H39.2364L39.5136 53.5793C39.9923 53.9068 40.135 54.31 40.1686 55.385L40.2022 56.334H30.1997H20.1971V55.3514C20.1971 54.4611 20.2139 54.3436 20.4071 54.0244C20.7682 53.3945 20.7766 53.3945 24.3124 53.3945H27.4366L27.6802 53.151C27.9993 52.8318 28.0161 52.3867 27.7138 52.0928C27.5206 51.8912 27.4534 51.8828 26.5716 51.8828H25.6393L25.6729 51.2613C25.6981 50.7406 25.7317 50.5979 25.8997 50.4215L26.1013 50.2031H30.2501H34.3989L34.6005 50.4215ZM38.6737 58.6016V59.3574H30.1493H21.6249V58.6016V57.8457H30.1493H38.6737V58.6016Z" fill="white"/>
<path d="M42.2852 38.6721C41.966 38.7896 41.7812 39.0668 41.7812 39.4195C41.7812 39.7135 41.8232 39.8143 42.0416 39.9906C42.3859 40.2846 42.7387 40.2762 43.0494 39.9654C43.4441 39.5623 43.3686 38.9912 42.873 38.7393C42.6211 38.6049 42.4951 38.5965 42.2852 38.6721Z" fill="white"/>
<path d="M45.023 38.9576C44.9055 39.1004 44.8047 39.2851 44.8047 39.3775C44.8047 39.6547 45.0398 40.0158 45.2834 40.1166C45.4598 40.1838 47.0051 40.209 51.0867 40.1922L56.6633 40.167L56.8648 39.9318C57.1336 39.6127 57.1336 39.176 56.8564 38.9072L56.6549 38.6972H50.9439H45.2414L45.023 38.9576Z" fill="white"/>
<path d="M37.4055 42.7201C36.9688 43.1569 37.12 43.7951 37.6994 43.9883C38.4805 44.2403 39.0432 43.224 38.4133 42.6949C38.069 42.401 37.7162 42.4094 37.4055 42.7201Z" fill="white"/>
<path d="M40.5297 42.6949C40.1854 42.9805 40.1602 43.4676 40.4793 43.7783L40.6809 43.9883H48.6678H56.6547L56.8563 43.7783C57.1754 43.4676 57.1502 42.9805 56.8059 42.6949L56.5455 42.4766H48.6678H40.79L40.5297 42.6949Z" fill="white"/>
<path d="M41.9912 46.5498C41.6973 46.8354 41.6973 47.3561 41.9912 47.6416C42.302 47.9608 42.7891 47.9356 43.0746 47.5912C43.3686 47.2469 43.3686 46.8522 43.0746 46.5582C42.7723 46.2643 42.2768 46.2559 41.9912 46.5498Z" fill="white"/>
<path d="M45.0818 46.5414C44.8971 46.701 44.8467 46.8102 44.8467 47.0957C44.8467 47.3812 44.8971 47.4904 45.0818 47.65L45.317 47.8516H50.902C56.6465 47.8516 56.7053 47.8516 56.9572 47.524C57.142 47.2889 57.0916 46.7766 56.8564 46.5498L56.6549 46.3398H50.9859H45.317L45.0818 46.5414Z" fill="white"/>
</g>
<defs>
<clipPath id="clip0_5377_7643">
<rect width="43" height="43" fill="white" transform="translate(18.4336 17.7852)"/>
</clipPath>
</defs>
</svg>
