<svg width="83" height="77" viewBox="0 0 83 77" fill="none" xmlns="http://www.w3.org/2000/svg">
<rect x="0.695312" y="0.638672" width="81.3573" height="76.2081" rx="15.4476" fill="#BDB295"/>
<path d="M31.6903 20.5652C31.4936 20.7776 29.5353 22.9892 27.3357 25.4928L23.3477 30.0311V45.0527C23.3477 59.4816 23.3566 60.0743 23.5086 60.207C23.6606 60.3486 24.4028 60.3574 32.3162 60.3574C40.8466 60.3574 40.9628 60.3574 41.1417 60.1805C41.3652 59.9593 41.3652 59.7293 41.1506 59.4639L40.9807 59.2516L32.7007 59.2251L24.4207 59.2074V45.0527V30.907L28.9899 30.8804L33.5591 30.8539L33.729 30.6416C33.8899 30.4469 33.8989 30.2523 33.8989 26.9967C33.8989 23.6704 33.8899 23.5466 33.7201 23.3785C33.4786 23.1396 33.0494 23.1485 32.8795 23.3962C32.7543 23.5643 32.7365 24.0331 32.7365 26.6694V29.7481H28.972C26.7366 29.7481 25.2254 29.7127 25.2433 29.6684C25.2612 29.6242 26.8975 27.731 28.8915 25.4663L32.5129 21.3437H42.2773H52.0506V27.616C52.0506 33.8175 52.0506 33.8883 52.2384 34.1183C52.4619 34.3925 52.7838 34.4191 53.0342 34.1714C53.213 33.9944 53.213 33.8794 53.213 27.2445C53.213 20.8129 53.2041 20.4768 53.052 20.3441C52.9 20.2025 52.0327 20.1937 42.474 20.1937H32.0569L31.6903 20.5652Z" fill="white"/>
<path d="M49.1433 35.7742C48.7656 35.8613 48.3788 35.8874 47.8392 35.8439C47.4164 35.8177 46.7689 35.7742 46.3911 35.7481C45.5007 35.6784 45.1589 35.8264 44.2055 36.6538C43.6658 37.1242 43.3151 37.3506 42.8114 37.5509C41.4083 38.0996 41.0665 38.4741 40.6888 39.8154C40.4999 40.4773 40.329 40.8605 39.9872 41.357C39.1148 42.646 39.0248 43.125 39.4386 44.3095C39.6364 44.8669 39.6904 45.2153 39.7354 46.2517C39.7893 47.4275 39.8073 47.5407 40.0412 47.9239C40.1851 48.1591 40.5538 48.5423 40.9046 48.821C41.2464 49.0823 41.6062 49.4046 41.7051 49.5352L41.885 49.7791L39.8253 53.2193C38.701 55.1093 37.7746 56.738 37.7656 56.8338C37.7656 56.9296 37.8286 57.1038 37.9095 57.2083C38.0804 57.4434 38.3323 57.4521 40.0951 57.2605C40.7967 57.1909 41.4533 57.1386 41.5612 57.156C41.7051 57.1734 41.885 57.487 42.3977 58.6105C42.7574 59.3944 43.1172 60.1085 43.1981 60.1956C43.369 60.3959 43.8187 60.4134 43.9986 60.2305C44.0706 60.1695 45.015 58.6192 46.0943 56.7989C47.7492 54.0032 48.073 53.5154 48.154 53.6374C48.2169 53.7158 49.0984 55.1964 50.1327 56.9209C51.158 58.6453 52.0575 60.126 52.1384 60.2043C52.3183 60.4047 52.804 60.4047 52.9839 60.2043C53.0558 60.126 53.4156 59.3944 53.7844 58.5844L54.4499 57.1212L54.9896 57.1647C55.2864 57.1909 56.0869 57.2605 56.7614 57.3215C57.9307 57.426 58.0026 57.426 58.1825 57.2692C58.2815 57.1821 58.3624 56.9992 58.3624 56.8599C58.3624 56.6857 57.7058 55.5012 56.3387 53.2106C55.2234 51.3468 54.315 49.7878 54.315 49.7442C54.315 49.6833 54.6028 49.4133 55.6462 48.4988C56.3027 47.9239 56.4107 47.6104 56.4736 46.1211C56.5186 45.0846 56.5726 44.7188 56.7255 44.3356C57.1662 43.2644 57.0762 42.6634 56.3387 41.5834C55.7901 40.7909 55.7361 40.6689 55.4753 39.7283C55.1425 38.5177 54.7557 38.1083 53.4696 37.5858C52.813 37.3245 52.3273 37.0022 51.5448 36.3142C51.23 36.0355 50.9062 35.8439 50.6094 35.7568C50.0517 35.6 49.8449 35.6 49.1433 35.7742ZM47.1286 36.9848C47.9201 37.1067 48.163 37.1154 48.8645 37.0196C50.2586 36.828 50.3575 36.8542 51.176 37.5858C51.7786 38.117 52.2194 38.3783 53.1727 38.7615C53.5955 38.927 53.9283 39.1273 54.0182 39.2493C54.0991 39.3712 54.2341 39.7806 54.324 40.1638C54.5129 40.9476 54.7737 41.4702 55.3493 42.2976C55.835 42.9769 55.853 43.186 55.5112 44.1353C55.3044 44.7188 55.2684 44.9801 55.2504 45.973C55.2234 47.3317 55.2144 47.3404 54.324 48.0372C53.6314 48.5597 53.3616 48.8733 52.8759 49.6745C52.4442 50.4061 52.1564 50.5716 51.239 50.65C50.3216 50.7284 49.611 50.9374 48.9904 51.3032C48.2799 51.73 48.0101 51.73 47.2006 51.3206C46.3911 50.9026 45.7795 50.7284 44.8711 50.65C44.0166 50.5716 43.7648 50.4236 43.369 49.7791C42.8564 48.9255 42.4516 48.4726 41.795 47.9849C41.4533 47.7323 41.1115 47.4188 41.0395 47.2881C40.9496 47.1227 40.9136 46.7482 40.9226 46.0601C40.9226 45.0237 40.8596 44.623 40.5448 43.7695C40.32 43.1511 40.3829 42.8376 40.8596 42.2366C41.3094 41.6618 41.6152 41.026 41.858 40.1376C42.1098 39.2406 42.2717 39.0228 42.8743 38.8051C43.7288 38.4915 44.3404 38.1345 44.934 37.6119C45.4647 37.1503 45.9234 36.8629 46.1482 36.8454C46.1842 36.8454 46.6249 36.9064 47.1286 36.9848ZM42.9913 51.251C43.369 51.5819 44.0616 51.8258 44.6462 51.8258C45.1589 51.8258 45.9414 52.0348 46.58 52.3484C46.8768 52.4964 47.1196 52.6271 47.1196 52.6445C47.1196 52.7055 43.8547 58.2273 43.7558 58.3318C43.6748 58.4189 43.5219 58.1489 43.1082 57.2431C42.7484 56.4593 42.4966 56.0151 42.3797 55.9541C42.2358 55.8931 41.822 55.9018 40.9226 55.9889C40.2211 56.0586 39.6274 56.1022 39.6094 56.076C39.5645 56.0412 42.5416 50.9636 42.6135 50.9548C42.6315 50.9548 42.8024 51.0855 42.9913 51.251ZM55.1155 53.5241C55.943 54.9177 56.5816 56.0673 56.5366 56.0847C56.4916 56.1022 56.0239 56.0673 55.4933 56.0151C54.0632 55.8583 53.8743 55.867 53.6854 56.0586C53.5955 56.1457 53.3077 56.6944 53.0558 57.2692C52.795 57.8441 52.5611 58.3492 52.5252 58.3841C52.4712 58.4363 49.1793 53.0713 49.0264 52.6967C48.9994 52.6271 49.7549 52.2613 50.4025 52.0261C50.6004 51.9564 51.1221 51.8606 51.5718 51.8171C52.4442 51.73 53.0558 51.5035 53.3077 51.1639C53.3886 51.0506 53.4965 50.9723 53.5325 50.981C53.5775 50.9897 54.288 52.1393 55.1155 53.5241Z" fill="white"/>
<path d="M47.5152 39.8706C45.8189 40.2799 44.4759 41.6381 44.0695 43.336C43.3274 46.4443 46.0221 49.4221 49.1851 48.9868C51.0493 48.7343 52.5955 47.3673 53.0814 45.5301C53.2846 44.7552 53.2581 44.4069 52.9842 44.198C52.6838 43.9629 52.5689 43.9716 52.3039 44.2067C52.1537 44.346 52.0653 44.5637 51.9947 44.9468C51.8003 46.0787 51.0228 47.0799 49.9714 47.5675C49.5208 47.7765 49.353 47.8026 48.5755 47.8026C47.7538 47.8026 47.6478 47.7852 47.1 47.5153C45.3683 46.6794 44.6527 44.5724 45.5185 42.8484C45.8807 42.1257 46.6582 41.403 47.3562 41.1418C48.0365 40.8806 48.9995 40.8632 49.7152 41.0896C50.1835 41.2463 50.2541 41.2463 50.4662 41.1331C50.7931 40.9503 50.7931 40.4018 50.475 40.1754C49.9449 39.7923 48.4694 39.6355 47.5152 39.8706Z" fill="white"/>
<path d="M50.7132 42.3469C49.7899 43.2026 48.8226 44.0831 48.5764 44.3074L48.1104 44.7227L47.4597 44.1246C47.0992 43.7924 46.7298 43.5265 46.6331 43.5265C46.3517 43.5265 46 43.8422 46 44.0997C46 44.2742 46.1847 44.4984 46.8705 45.1298C47.6883 45.8857 47.7586 45.9355 48.1016 45.9355C48.4533 45.9355 48.5324 45.8857 49.5876 44.947C51.5837 43.1859 53.2104 41.5744 53.2104 41.375C53.2104 41.1424 52.8323 40.7852 52.5861 40.7852C52.4454 40.7852 51.8739 41.2587 50.7132 42.3469Z" fill="white"/>
<path d="M28.6203 35.7432C28.4463 35.9577 28.4637 36.3437 28.6551 36.5325C28.7769 36.6526 29.3947 36.6697 34.1712 36.6697C40.0875 36.6697 39.8265 36.6955 39.8265 36.155C39.8265 35.6145 40.0875 35.6403 34.1364 35.6403C29.8993 35.6403 28.6899 35.666 28.6203 35.7432Z" fill="white"/>
<path d="M28.6769 40.9904C28.4309 41.2043 28.44 41.4182 28.7134 41.6797C28.841 41.8143 29.1691 41.8223 33.1516 41.8223C37.3163 41.8223 37.453 41.8143 37.6171 41.6638C37.8358 41.4499 37.8176 41.1092 37.5715 40.9349C37.3801 40.8003 37.0885 40.7923 33.1333 40.7923H28.9048L28.6769 40.9904Z" fill="white"/>
<path d="M28.6708 46.0556C28.4243 46.2061 28.4517 46.6419 28.7073 46.832C28.9081 46.9667 29.1729 46.9746 33.1438 46.9746C37.0874 46.9746 37.3795 46.9667 37.5712 46.832C37.8177 46.6577 37.8359 46.317 37.6168 46.1031C37.4525 45.9526 37.3156 45.9447 33.1438 45.9447C29.6658 45.9447 28.8077 45.9684 28.6708 46.0556Z" fill="white"/>
<path d="M28.6268 51.2047C28.4435 51.4173 28.4618 51.7999 28.6634 51.987C28.7917 52.106 29.3233 52.123 33.145 52.123C36.9666 52.123 37.4982 52.106 37.6265 51.987C37.8006 51.8339 37.819 51.3493 37.6632 51.2047C37.4982 51.0517 28.7642 51.0602 28.6268 51.2047Z" fill="white"/>
</svg>
