<svg width="80" height="75" viewBox="0 0 80 75" fill="none" xmlns="http://www.w3.org/2000/svg">
<rect x="0.675781" y="0.328125" width="78.5156" height="73.8691" rx="15" fill="#BDB295"/>
<path d="M22.8812 20.893L22.699 21.0679V38.7836V56.4994L22.8812 56.6743L23.0561 56.8564H36.1078H49.1596L49.3345 56.6743L49.5167 56.4994V54.3423V52.1925H51.2657H53.0147V52.5933C53.0147 52.9285 53.0438 53.0305 53.1968 53.1763L53.3717 53.3585H55.9296H58.4875L58.6624 53.1763L58.8446 53.0014V47.5285V42.0557L58.6624 41.8808L58.4875 41.6986H55.9296H53.3717L53.1968 41.8808C53.0292 42.0411 53.0147 42.114 53.0147 42.7553V43.4476H52.5556H52.1037L51.375 42.7188L50.6535 41.9901L51.5426 41.0937C52.3296 40.2994 52.4317 40.161 52.4317 39.9423C52.4317 39.7237 52.3005 39.5707 51.0981 38.3682C49.8956 37.1585 49.7426 37.0346 49.5167 37.0346C49.2908 37.0346 49.1378 37.1658 47.8042 38.4921L46.3394 39.9496H44.6123H42.8851L42.5645 40.2411L42.2511 40.5326H37.4269H32.6099V41.1156V41.6986H36.8512H41.0997L40.5167 42.2816L39.9337 42.8646H36.2754H32.6099V43.4476V44.0306H35.6779H38.7386L38.5928 44.22C38.4471 44.4022 38.4398 44.5043 38.4398 46.1294V47.8492L37.5799 48.731L36.72 49.6055L36.4066 51.2306C35.9475 53.5844 35.8819 53.5188 38.2358 53.0597L39.8609 52.7463L41.0997 51.522L42.3459 50.2978L42.5936 50.3706C42.7321 50.4144 43.6357 50.4435 44.5904 50.4435H46.3394L47.2212 51.318C47.7094 51.799 48.1612 52.1925 48.2268 52.1925C48.3361 52.1925 48.3507 52.3601 48.3507 53.9415V55.6905H36.1078H23.865V38.7836V21.8768H36.1078H48.3507V28.8727V35.8687H48.9337H49.5167V28.4719V21.0679L49.3345 20.893L49.1596 20.7108H36.1078H23.0561L22.8812 20.893ZM50.2819 39.2209L51.0106 39.9496L47.8114 43.1488L44.6123 46.348L43.5847 46.3771C42.6811 46.399 42.5208 46.4209 42.2293 46.5739C41.7847 46.8071 41.5224 47.0621 41.2965 47.4921C41.0414 47.9804 41.0196 48.7966 41.26 49.2484L41.4204 49.5472L40.5094 50.4508L39.6058 51.3544L38.8552 50.6038L38.1119 49.8605L43.7961 44.1763C46.9224 41.05 49.4948 38.4921 49.5167 38.4921C49.5386 38.4921 49.8811 38.8201 50.2819 39.2209ZM42.4115 43.8848L39.6422 46.654L39.6204 45.765L39.5985 44.8759L41.4787 42.9958L43.3588 41.1156H44.2698H45.1807L42.4115 43.8848ZM50.7191 43.7391L51.6082 44.6136H52.3078H53.0147V47.82V51.0265H50.8139H48.6058L47.7531 50.1739L46.8932 49.314L44.8163 49.2775L42.7394 49.2411L42.5062 49.0006C42.3021 48.7966 42.2657 48.7164 42.2657 48.403C42.2657 48.0897 42.3021 48.0095 42.5062 47.8055L42.7394 47.565L45.5451 47.5431L48.3507 47.5213V46.9455V46.3626H47.3159H46.2738L48.0228 44.6136C48.9847 43.6516 49.7863 42.8646 49.8009 42.8646C49.8228 42.8646 50.2382 43.2581 50.7191 43.7391ZM57.6786 47.5285V52.1925H55.9296H54.1807V47.5285V42.8646H55.9296H57.6786V47.5285ZM38.3086 51.8354C38.2576 51.8791 37.4706 52.0467 37.4414 52.0176C37.4269 52.003 37.5653 51.318 37.609 51.1795C37.6309 51.1067 37.7548 51.1795 38.0026 51.4273C38.2066 51.6241 38.3451 51.8063 38.3086 51.8354Z" fill="white"/>
<path d="M31.0723 24.9084L30.5913 25.3821L27.997 25.3748L25.3954 25.3675L25.2132 25.5497L25.031 25.7319V28.2897V30.8476L25.2132 31.0225L25.3881 31.2047H27.946H30.5039L30.6788 31.0225L30.8609 30.8476V28.8217V26.7958L31.6261 26.0306C32.0488 25.608 32.3913 25.2363 32.3913 25.1926C32.3913 25.0978 31.7209 24.4274 31.6261 24.4274C31.5824 24.4274 31.3346 24.646 31.0723 24.9084ZM28.6966 27.2841L27.946 28.0347L27.5962 27.6849C27.4067 27.4954 27.2172 27.3424 27.1808 27.3424C27.0861 27.3424 26.4156 28.0128 26.4156 28.1076C26.4156 28.1513 26.7071 28.4719 27.0642 28.8217C27.946 29.6889 27.9533 29.6889 28.9371 28.7124L29.695 27.9691V29.0039V30.0387H27.946H26.197V28.2897V26.5408H27.8148H29.4399L28.6966 27.2841Z" fill="white"/>
<path d="M32.6099 27.1238V27.7068H39.8973H47.1847V27.1238V26.5408H39.8973H32.6099V27.1238Z" fill="white"/>
<path d="M32.6099 29.4557V30.0387H38.7313H44.8527V29.4557V28.8727H38.7313H32.6099V29.4557Z" fill="white"/>
<path d="M46.0187 29.4557V30.0387H46.6017H47.1847V29.4557V28.8727H46.6017H46.0187V29.4557Z" fill="white"/>
<path d="M31.0723 31.9043L30.5913 32.378L27.997 32.3707L25.3954 32.3635L25.2132 32.5456L25.031 32.7278V35.2857V37.8436L25.2132 38.0185L25.3881 38.2007H27.946H30.5039L30.6788 38.0185L30.8609 37.8436V35.8177V33.7918L31.6261 33.0266C32.0488 32.6039 32.3913 32.2323 32.3913 32.1886C32.3913 32.0938 31.7209 31.4234 31.6261 31.4234C31.5824 31.4234 31.3346 31.642 31.0723 31.9043ZM28.6966 34.28L27.946 35.0307L27.5962 34.6809C27.4067 34.4914 27.2172 34.3383 27.1808 34.3383C27.0861 34.3383 26.4156 35.0088 26.4156 35.1035C26.4156 35.1473 26.7071 35.4679 27.0642 35.8177C27.946 36.6849 27.9533 36.6849 28.9371 35.7084L29.695 34.9651V35.9999V37.0347H27.946H26.197V35.2857V33.5367H27.8148H29.4399L28.6966 34.28Z" fill="white"/>
<path d="M32.6099 34.1196V34.7026H39.8973H47.1847V34.1196V33.5366H39.8973H32.6099V34.1196Z" fill="white"/>
<path d="M32.6099 36.4517V37.0347H38.7313H44.8527V36.4517V35.8687H38.7313H32.6099V36.4517Z" fill="white"/>
<path d="M46.0187 36.4517V37.0347H46.6017H47.1847V36.4517V35.8687H46.6017H46.0187V36.4517Z" fill="white"/>
<path d="M31.0723 38.9002L30.5913 39.3739L27.997 39.3666L25.3954 39.3593L25.2132 39.5415L25.031 39.7237V42.2816V44.8394L25.2132 45.0143L25.3881 45.1965H27.946H30.5039L30.6788 45.0143L30.8609 44.8394V42.8135V40.7876L31.6261 40.0225C32.0488 39.5998 32.3913 39.2281 32.3913 39.1844C32.3913 39.0897 31.7209 38.4192 31.6261 38.4192C31.5824 38.4192 31.3346 38.6379 31.0723 38.9002ZM28.6966 41.2759L27.946 42.0265L27.5962 41.6767C27.4067 41.4872 27.2172 41.3342 27.1808 41.3342C27.0861 41.3342 26.4156 42.0046 26.4156 42.0994C26.4156 42.1431 26.7071 42.4637 27.0642 42.8135C27.946 43.6807 27.9533 43.6807 28.9371 42.7042L29.695 41.9609V42.9957V44.0305H27.946H26.197V42.2816V40.5326H27.8148H29.4399L28.6966 41.2759Z" fill="white"/>
<path d="M31.0723 45.8962L30.5913 46.3699L27.997 46.3626L25.3954 46.3553L25.2132 46.5375L25.031 46.7196V49.2775V51.8354L25.2132 52.0103L25.3881 52.1925H27.946H30.5039L30.6788 52.0103L30.8609 51.8354V49.8095V47.7836L31.6261 47.0184C32.0488 46.5958 32.3913 46.2241 32.3913 46.1804C32.3913 46.0856 31.7209 45.4152 31.6261 45.4152C31.5824 45.4152 31.3346 45.6338 31.0723 45.8962ZM28.6966 48.2719L27.946 49.0225L27.5962 48.6727C27.4067 48.4832 27.2172 48.3302 27.1808 48.3302C27.0861 48.3302 26.4156 49.0006 26.4156 49.0953C26.4156 49.1391 26.7071 49.4597 27.0642 49.8095C27.946 50.6767 27.9533 50.6767 28.9371 49.7002L29.695 48.9569V49.9917V51.0265H27.946H26.197V49.2775V47.5286H27.8148H29.4399L28.6966 48.2719Z" fill="white"/>
<path d="M32.6099 48.1116V48.6946H34.0673H35.5248V48.1116V47.5286H34.0673H32.6099V48.1116Z" fill="white"/>
<path d="M32.6099 50.4435V51.0265H34.0673H35.5248V50.4435V49.8605H34.0673H32.6099V50.4435Z" fill="white"/>
</svg>
