<svg width="173" height="163" viewBox="0 0 173 163" fill="none" xmlns="http://www.w3.org/2000/svg">
<path d="M10.7422 162.625H2.80279C1.66475 162.625 0.742188 161.414 0.742188 159.906V155.344C0.742188 153.844 1.66475 152.625 2.80279 152.625H10.7422V154.361H2.06205V160.881H10.7422V162.617V162.625Z" fill="#1F3475"/>
<path d="M24.7422 154.361H20.4089V162.625H19.0755V154.361H14.7422V152.625H24.7354V154.361H24.7422Z" fill="#1F3475"/>
<path d="M38.7422 159.906C38.7422 161.406 37.8196 162.625 36.6816 162.625H30.8028C29.6647 162.625 28.7422 161.414 28.7422 159.906V155.344C28.7422 153.844 29.6647 152.625 30.8028 152.625H36.6816C37.8196 152.625 38.7422 153.836 38.7422 155.344V159.906ZM37.4223 160.881V154.361H30.0621V160.881H37.4223Z" fill="#1F3475"/>
<path d="M56.7422 162.47H55.3877V153.753L51.5687 161.681C51.2964 162.242 50.8147 162.625 50.2422 162.625C49.6697 162.625 49.1879 162.242 48.9157 161.681L45.1106 153.753V162.47H43.7422V154.52C43.7422 153.466 44.4264 152.625 45.2782 152.625C45.8646 152.625 46.3464 153.031 46.6326 153.606L50.2352 161.128L53.8517 153.606C54.124 153.031 54.6197 152.625 55.1922 152.625C56.044 152.625 56.7282 153.466 56.7282 154.52V162.47H56.7422Z" fill="#1F3475"/>
<path d="M71.7422 162.625H62.9307C61.722 162.625 60.7422 161.414 60.7422 159.906V159.472C60.7422 157.972 61.722 156.753 62.9307 156.753H70.3404V154.361H61.1213V152.625H69.5536C70.7623 152.625 71.7422 153.836 71.7422 155.344V162.625ZM70.3404 160.889V158.497H62.1369V160.889H70.3404Z" fill="#1F3475"/>
<path d="M85.7422 154.361H81.4089V162.625H80.0755V154.361H75.7422V152.625H85.7354V154.361H85.7422Z" fill="#1F3475"/>
<path d="M99.7422 159.906C99.7422 161.406 98.8196 162.625 97.6816 162.625H91.8028C90.6647 162.625 89.7422 161.414 89.7422 159.906V155.344C89.7422 153.844 90.6647 152.625 91.8028 152.625H97.6816C98.8196 152.625 99.7422 153.836 99.7422 155.344V159.906ZM98.4223 160.881V154.361H91.0621V160.881H98.4223Z" fill="#1F3475"/>
<path d="M102.749 162.625L107.827 153.622C108.15 153.052 108.651 152.625 109.256 152.625C109.861 152.625 110.362 153.052 110.685 153.622L115.742 162.625H114.045L109.235 153.944L104.439 162.625H102.742H102.749Z" fill="#1F3475"/>
<path d="M129.742 159.906C129.742 161.406 128.82 162.625 127.682 162.625H121.803C120.665 162.625 119.742 161.414 119.742 159.906V155.344C119.742 153.844 120.665 152.625 121.803 152.625H127.682C128.82 152.625 129.742 153.836 129.742 155.344V159.906ZM128.422 160.881V154.361H121.062V160.881H128.422Z" fill="#1F3475"/>
<path d="M134.749 155.344C134.749 153.844 135.668 152.625 136.803 152.625H142.742V154.361H136.058V162.625H134.742V155.344H134.749Z" fill="#1F3475"/>
<path d="M149.182 161.253L155.972 153.185C156.273 152.831 156.677 152.625 157.126 152.625C158.022 152.625 158.742 153.466 158.742 154.52V162.47H157.302V153.997L150.512 162.065C150.211 162.419 149.807 162.625 149.359 162.625C148.462 162.625 147.742 161.784 147.742 160.73V152.78H149.182V161.253Z" fill="#1F3475"/>
<path d="M163.577 158.718C163.072 158.352 162.742 157.705 162.742 156.867V155.344C162.742 153.844 163.665 152.625 164.803 152.625H172.742V162.625H171.422V159.579H164.062V162.625H162.742V160.561C162.742 159.731 163.072 159.076 163.577 158.71V158.718ZM171.422 154.369H164.062V157.85H171.422V154.369Z" fill="#1F3475"/>
<path d="M21.7422 124.625V142.866C20.9231 144.275 16.7076 145.779 11.6376 145.612C8.39652 145.504 3.58785 144.825 1.53304 142.765H4.38577C5.96041 144.059 9.3286 144.543 11.6376 144.622C15.5354 144.76 18.6917 143.668 18.8895 142.866V138.963C12.725 141.319 4.32928 140.141 1.82255 136.087C1.067 134.859 0.742188 133.673 0.742188 132.56V126.056L3.59491 124.632V131.903C3.59491 135.357 5.53674 138.501 9.94999 139.151C12.1178 139.469 14.6386 139.216 17.1524 138.313C17.1312 138.32 17.9362 137.908 18.8895 137.294V126.063L21.7422 124.632V124.625Z" fill="#1F3475"/>
<path d="M47.9151 144.625V126.654C41.2743 126.798 33.6959 130.555 32.5692 144.625H29.7422C31.5756 128.497 41.2673 125.769 47.9151 125.625H50.7422V144.625H47.9151Z" fill="#1F3475"/>
<path d="M79.4529 133.224C82.9255 138.881 77.217 143.683 72.864 144.316C68.8953 144.898 64.2559 144.819 59.7422 142.605V127.048L62.565 125.625V130.348C68.6648 128.004 76.9725 129.176 79.4529 133.209V133.224ZM71.4107 130.176C69.2657 129.859 66.7713 130.111 64.2838 131.009C64.3048 131.002 63.5083 131.412 62.565 132.023V142.612C65.8979 143.928 77.1122 145.315 77.6013 137.386C77.8249 133.827 75.7777 130.822 71.4037 130.176H71.4107ZM84.7422 125.632V144.625H81.9194V127.048L84.7422 125.632Z" fill="#1F3475"/>
<path d="M114.741 141.482C112.198 144.722 101.079 145.536 94.7422 143.555V125.625H114.133V127.627H97.5961V132.912C101.001 132.199 104.356 132.25 107.345 132.596C111.746 133.1 118.252 137.01 114.741 141.482ZM112.134 138.083C110.891 132.574 101.594 133.064 97.5961 134V143.001C99.0513 143.368 101.835 143.584 103.742 143.577C109.591 143.555 112.855 141.251 112.141 138.083H112.134Z" fill="#1F3475"/>
<path d="M144.742 144.625H142.685C141.418 137.001 139.515 135.445 138.325 133.725H126.569V144.625H123.742V127.051L126.569 125.625V132.666H138.325C139.788 131.32 141.733 128.318 142.496 125.625H144.742C143.413 129.614 140.928 131.882 138.983 133.271C140.851 135.085 144.098 139.132 144.742 144.625Z" fill="#1F3475"/>
<path d="M169.752 143.625L168.264 140.631C166.008 137.162 159.553 137.083 155.654 138.371L152.965 143.625H151.742L160.999 126.043L163.458 124.625L172.742 143.625H169.759H169.752ZM166.615 137.328L161.474 127L156.283 137.148C158.19 136.55 160.803 136.471 162.871 136.594C164.303 136.68 165.512 136.91 166.615 137.328Z" fill="#1F3475"/>
<path d="M66.4232 99.819C66.4232 99.819 70.0384 101.409 70.8743 98.968C71.8174 96.197 71.3459 88.0106 71.0458 84.0439C70.8172 81.0197 68.9953 78.312 66.2232 76.9968C66.1803 76.9757 66.1375 76.9546 66.0946 76.9405C62.5009 75.2737 56.4494 71.1031 54.8133 69.5136C54.6776 69.38 54.2989 69.0284 54.0703 68.7752C53.2415 67.8749 54.106 66.3839 55.292 66.7145C55.4635 66.7637 55.635 66.8481 55.7921 66.9677C55.9565 67.0943 57.7855 69.1268 57.7855 69.1268C60.1146 71.4407 62.3151 72.6293 62.458 72.7207C63.2296 73.2482 66.2732 75.2245 66.3589 73.424C66.3732 73.1708 63.9369 67.9242 62.1722 64.4147C60.2503 60.6028 57.6712 52.3741 57.5854 47.887C57.5783 47.458 57.7712 47.0431 58.107 46.7617C58.5356 46.396 58.9286 46.5578 58.9786 47.1064C59.243 49.9899 59.6859 52.2545 60.2789 54.695C60.3218 54.8638 61.0434 57.5153 61.615 58.9219C62.0222 59.9135 62.508 61.1021 62.508 61.1021C63.3582 62.6986 64.9443 59.2806 64.9515 59.2454C64.9515 59.2454 67.6307 53.4642 66.7519 44.5534C66.7019 44.047 67.0877 43.625 67.6092 43.625H67.7093C68.438 43.625 69.0096 44.2369 68.9381 44.9472C68.6666 47.873 67.9951 54.7302 67.4949 56.1227C67.4735 56.186 66.7733 60.4832 64.3942 63.409C64.1156 63.7536 64.0584 64.2178 64.237 64.6186C65.4659 67.3756 70.1599 77.6368 72.096 78.5933C73.9322 79.4935 83.113 67.4319 86.3923 63.0151C86.9353 62.2907 88.057 62.3751 88.4857 63.1698L88.6 63.3808C88.8286 63.8098 88.7786 64.3233 88.4714 64.703C86.3352 67.3404 77.776 77.2289 75.9327 78.9028C73.6536 80.9845 73.8822 82.4404 73.8536 82.9186L73.5535 98.2225C73.5392 99.0946 73.7036 99.9667 74.1037 100.747C74.4537 101.423 76.1113 102.386 76.8972 102.527C77.826 102.696 74.8753 102.724 71.8674 101.971C69.1668 101.289 66.4232 99.8261 66.4232 99.8261V99.819Z" fill="#1F3475"/>
<path d="M104.387 101.245C104.387 101.245 102.852 101.899 102.183 98.2797C101.697 95.6374 102.028 82.433 102.148 78.3291C102.197 76.5652 102.563 74.8154 103.302 73.2061C104.013 71.6531 105.168 69.9735 107.02 68.8421C110.863 66.495 117.432 60.8661 118.706 59.4958C120.705 57.3384 120.276 55.5183 120.276 55.5183C119.593 54.2955 117.312 57.2821 117.312 57.2821C116.531 58.2027 114.221 60.6623 112.215 62.3699C112.215 62.3699 110.075 64.1549 109.519 64.5906C109.237 64.8155 107.062 66.8112 106.337 65.6587C105.851 64.8857 109.272 58.6735 110.927 55.3215C113.348 50.4024 116.939 48.9617 118.959 42.6371C121.501 34.6681 121.015 30.6695 119.431 29.3343C118.614 28.6457 117.488 29.1235 117.411 29.9317C117.22 31.8009 119.03 31.8009 117.699 39.4397C116.699 45.1599 114.172 48.505 112.518 49.8261C110.673 51.2948 106.562 40.4797 106.034 37.5774C104.83 30.9858 106.09 27.3175 105.168 25.2233C104.943 24.7103 104.682 24.4363 104.239 24.7736C104.098 24.886 104.112 25.0336 104.049 25.1812C103.281 26.931 102.218 32.335 104.95 40.6414C104.95 40.6414 106.555 46.4811 109.533 50.838C110.033 51.5689 108.301 55.0966 108.266 55.3426C108.083 56.6637 102.07 69.9384 100.691 70.4444C99.5502 70.859 94.1153 67.5561 90.9333 62.1099C88.2581 57.5281 87.2936 52.0327 86.7867 49.8683C86.6671 49.3483 86.0827 49.0812 85.604 49.3342L85.1816 49.552C84.8507 49.7277 84.6747 50.1072 84.7663 50.4726C85.1605 52.0678 86.2658 58.1465 89.1029 62.9251C91.771 67.4226 96.3329 70.5006 97.0721 71.4774C98.0014 72.7072 98.0577 72.9321 98.3815 73.8245C98.9236 75.3003 99.1771 76.8674 99.2052 78.4345C99.2826 83.2412 99.515 97.317 99.4939 98.4695C99.4375 101.098 98.5012 102.124 96.8609 102.517C96.8609 102.517 98.2759 102.819 100.571 102.412C102.528 102.067 104.394 101.238 104.394 101.238L104.387 101.245Z" fill="#1F3475"/>
<path d="M133.672 24.6597C133.622 26.791 133.333 29.1481 132.65 31.6181C132.326 32.7967 131.86 33.9329 131.311 35.0197C130.789 36.05 130.014 37.5885 129.119 39.3951C128.999 39.6421 128.872 39.8891 128.746 40.1503C127.301 43.086 125.616 46.5935 124.221 49.7128C122.353 53.8977 121.212 58.2731 120.838 62.7262C120.683 64.5682 120.549 66.77 120.486 69.3388C120.479 69.7411 120.465 70.1433 120.458 70.5668C120.458 71.3007 120.444 72.0558 120.444 72.8392C120.444 75.2739 120.19 77.5957 119.788 79.72C119.436 81.5831 118.978 83.305 118.477 84.8435C118.477 84.8435 118.477 84.8435 118.477 84.8505C117.47 87.9839 116.3 90.3693 115.574 91.696C115.574 91.696 115.567 91.7102 115.56 91.7243C112.797 96.1209 108.639 99.5507 103.706 101.393C102.381 101.887 101.007 102.261 99.5831 102.515C97.9128 102.811 96.1862 102.486 94.7273 101.618C94.7203 101.618 94.7133 101.611 94.7062 101.604C93.5363 100.701 92.6483 99.3672 92.0563 97.6946C91.6969 96.6714 91.4432 95.5281 91.2952 94.2719C91.2247 93.6438 91.1543 91.8583 91.1543 90.6022C91.1543 90.1293 91.1402 89.6636 91.119 89.2119C90.823 83.5097 88.737 79.0989 86.207 79.0989C83.6769 79.0989 81.5909 83.5167 81.2949 89.2119C81.2737 89.6706 81.2596 90.1293 81.2596 90.6022C81.2596 91.8513 81.1891 93.6438 81.1187 94.2719C80.9707 95.5281 80.717 96.6714 80.3575 97.6946C79.7656 99.3672 78.8776 100.701 77.7077 101.604C77.7006 101.604 77.6936 101.611 77.6865 101.618C76.2348 102.486 74.5152 102.811 72.8449 102.522C71.4143 102.275 70.033 101.894 68.7081 101.4C63.7748 99.5648 59.6168 96.135 56.8542 91.7313C56.8542 91.7243 56.8401 91.7102 56.8401 91.7031C56.1142 90.3763 54.9443 87.9839 53.9365 84.8576C53.9365 84.8576 53.9365 84.8576 53.9365 84.8505C53.4362 83.3121 52.9781 81.5901 52.6257 79.7341C52.224 77.6028 51.9703 75.281 51.9703 72.8463C51.9703 72.0629 51.9633 71.3078 51.9562 70.5738C51.9562 70.1504 51.9421 69.7411 51.928 69.3459C51.8646 66.7771 51.7307 64.5752 51.5756 62.7333C51.2021 58.2802 50.0604 53.9047 48.1929 49.7198C46.7975 46.6005 45.1131 43.1002 43.6684 40.1644C43.5415 39.9033 43.4217 39.6562 43.2949 39.4092C42.3998 37.6026 41.6246 36.0641 41.1031 35.0338C40.5534 33.947 40.0812 32.8037 39.7641 31.6322C39.0805 29.1622 38.7915 26.8121 38.7422 24.6738C39.1087 12.1755 49.109 2.09783 61.5619 1.625H61.6676C63.1194 1.66029 64.5782 1.7732 66.023 1.94257C67.5734 2.12606 69.1027 2.50715 70.5334 3.1423C70.5404 3.1423 70.5545 3.14936 70.5615 3.15641C71.5341 3.59396 72.5348 3.98916 73.5567 4.34202C77.5245 5.73935 81.7952 6.49447 86.2422 6.49447C90.6891 6.49447 94.9529 5.73935 98.9276 4.34202C99.9495 3.98916 100.943 3.59396 101.923 3.15641C101.93 3.15641 101.944 3.14936 101.951 3.1423C103.382 2.50715 104.904 2.119 106.461 1.94257C107.906 1.7732 109.365 1.66029 110.817 1.625H110.922C123.375 2.09783 133.369 12.1685 133.742 24.6738L133.672 24.6597Z" stroke="#1F3475" stroke-width="2" stroke-miterlimit="10"/>
</svg>
