<svg width="389" height="67" viewBox="0 0 389 67" fill="none" xmlns="http://www.w3.org/2000/svg">
<g clipPath="url(#clip0_1838_6757)">
<path d="M47.4141 2.42188H47.3461C46.3258 2.4468 45.2886 2.52988 44.2683 2.65451C43.3246 2.77082 42.4064 3.02007 41.5392 3.39395H41.5222C40.8845 3.68474 40.2299 3.93399 39.5582 4.15831C36.9566 5.05561 34.1594 5.53749 31.2432 5.53749C28.327 5.53749 25.5298 5.05561 22.9282 4.15831C22.2565 3.93399 21.6019 3.67643 20.9642 3.40226H20.9472C20.08 3.02007 19.1618 2.76252 18.218 2.65451C17.1978 2.52988 16.1691 2.4468 15.1403 2.42188H15.0723C6.91032 2.72928 0.355245 9.16822 0.117188 17.1608C0.151196 18.5234 0.338241 20.0272 0.788849 21.6141C1.0014 22.3701 1.30747 23.093 1.66456 23.7909C2.00464 24.4472 2.51477 25.4359 3.10141 26.5908C3.17792 26.7486 3.26295 26.9065 3.34797 27.0726C4.29169 28.9503 5.39696 31.1936 6.31518 33.1876C7.53948 35.8628 8.28766 38.6627 8.53421 41.5125C8.63624 42.6923 8.72126 44.0964 8.76377 45.7414C8.76377 45.999 8.78077 46.2565 8.78077 46.5224C8.78077 46.9877 8.78928 47.4779 8.78928 47.9764C8.78928 49.5383 8.95932 51.0172 9.22288 52.3798C9.45244 53.5762 9.75001 54.6729 10.0816 55.6615C10.7447 57.6638 11.5099 59.1926 11.986 60.04C11.986 60.04 11.986 60.0483 11.9945 60.0566C13.4739 62.3664 15.5739 64.2523 18.065 65.5069C18.15 65.5318 20.3776 66.2131 20.9047 64.6844C21.5168 62.9064 21.2108 57.6472 21.0152 55.1049C20.8707 53.1607 19.6889 51.4243 17.895 50.5769C17.8695 50.5602 17.844 50.5519 17.8099 50.5353C15.4889 49.4635 11.5694 46.7883 10.5152 45.7663C10.4302 45.6833 10.1836 45.4506 10.0391 45.2928C9.50345 44.7112 10.0646 43.7557 10.8298 43.9717C10.9403 44.005 11.0508 44.0548 11.1528 44.1379C11.2634 44.221 12.4367 45.5254 12.4367 45.5254C13.9415 47.0126 15.3699 47.7686 15.4549 47.8351C15.9565 48.1758 17.9205 49.4386 17.98 48.2921C17.98 48.1259 16.4156 44.761 15.2678 42.5095C14.035 40.0751 12.3686 34.8326 12.3006 31.9413C12.3006 31.7004 12.3771 31.4594 12.5387 31.2766C12.8533 30.9277 13.1593 31.0025 13.2018 31.4013C13.3719 33.254 13.6609 34.708 14.0435 36.2699C14.069 36.378 14.5367 38.0812 14.9108 38.9868C15.1743 39.6182 15.4889 40.3909 15.4889 40.3909C16.033 41.4128 17.0618 39.2194 17.0703 39.1945C17.0703 39.1945 18.8047 35.489 18.2351 29.7645C18.201 29.4405 18.4561 29.1663 18.7877 29.1663H18.8472C19.3148 29.1663 19.6889 29.5568 19.6464 30.0138C19.4764 31.8915 19.0342 36.2949 18.7112 37.1839C18.6942 37.2254 18.2436 39.9838 16.7047 41.8614C16.5261 42.0775 16.4836 42.3766 16.6027 42.6341C17.4019 44.4038 20.4286 50.9923 21.6869 51.5988C22.8687 52.1804 28.8116 44.437 30.9286 41.6039C31.2772 41.1386 32.0084 41.1885 32.2804 41.7036L32.357 41.8365C32.5015 42.1107 32.476 42.443 32.2719 42.684C30.8946 44.3789 25.3513 50.7264 24.1695 51.7982C22.6986 53.1358 22.8432 54.0663 22.8262 54.3738L22.6306 64.1942C22.6221 64.7508 22.7326 65.3158 22.9877 65.8143C23.0642 65.9555 23.1917 66.0885 23.3618 66.2214C24.0079 66.7282 24.9262 66.803 25.6403 66.3876C25.6403 66.3876 25.6403 66.3876 25.6488 66.3876H25.6658V66.3793C26.431 65.806 27.0177 64.9502 27.4003 63.8785C27.6383 63.2221 27.7999 62.491 27.9019 61.6851C27.9529 61.2863 27.9954 60.1397 27.9954 59.3421C27.9954 59.043 28.0039 58.7439 28.0209 58.4531C28.2165 54.8058 29.5853 51.981 31.2432 51.981C32.9011 51.981 34.2699 54.8058 34.4655 58.4531C34.4825 58.7439 34.491 59.043 34.491 59.3421C34.491 60.1397 34.5335 61.2863 34.5845 61.6851C34.678 62.4827 34.8481 63.2221 35.0861 63.8785C35.4772 64.9502 36.0553 65.7977 36.8205 66.3793C36.8205 66.3793 36.829 66.3793 36.8375 66.3793C36.8375 66.3793 36.8375 66.3793 36.846 66.3793C38.0788 67.0938 39.6687 66.3045 39.8558 64.9253C39.8813 64.7342 39.8983 64.5265 39.8983 64.3022C39.9153 63.5544 39.7622 54.515 39.7112 51.4326C39.6942 50.419 39.5242 49.422 39.1756 48.4665C38.963 47.8933 38.9205 47.752 38.3169 46.9544C37.8323 46.323 34.8396 44.3456 33.0881 41.4543C31.2262 38.3886 30.5035 34.4837 30.2399 33.4534C30.1804 33.2208 30.291 32.9799 30.512 32.8635L30.7841 32.7223C31.0987 32.5644 31.4812 32.7306 31.5578 33.0629C31.8893 34.4504 32.527 37.9815 34.2784 40.9309C36.3699 44.4287 39.9323 46.5556 40.6805 46.2898C41.5902 45.9657 45.5351 37.4414 45.6542 36.594C45.6797 36.4361 46.8104 34.1762 46.4874 33.7027C44.5319 30.9028 43.4776 27.1474 43.4776 27.1474C41.6837 21.8135 42.3894 18.3406 42.891 17.219C42.942 17.111 42.9165 16.9947 43.0695 16.9282C43.2396 16.8451 43.4521 16.9199 43.5457 17.0777C44.3108 18.3905 43.3756 20.7666 44.2003 25.1783C44.5489 27.0394 47.244 33.9935 48.4513 33.0463C49.5396 32.1989 51.1975 30.047 51.8521 26.3747C52.7279 21.4645 51.5376 21.4645 51.6651 20.2681C51.7161 19.753 52.4558 19.4456 52.9914 19.8859C54.0287 20.7417 54.3518 23.309 52.6768 28.4269C51.3505 32.4897 48.9955 33.4202 47.4056 36.5774C46.3258 38.7292 44.0813 42.7255 44.3959 43.2157C44.872 43.9551 46.3003 42.6757 46.4874 42.5344C46.8529 42.2519 48.2558 41.1054 48.2558 41.1054C49.5651 40.0087 51.087 38.4301 51.5971 37.8402C51.5971 37.8402 53.0934 35.921 53.5441 36.7103C53.5441 36.7103 53.8246 37.8818 52.5153 39.2692C51.6821 40.1499 47.3716 43.764 44.8465 45.2762C43.6307 46.0073 42.874 47.0874 42.4064 48.0761C41.9218 49.1063 41.6837 50.2279 41.6497 51.3661C41.5732 53.9999 41.3521 62.4827 41.6752 64.1776C42.0578 66.238 42.8995 66.1383 43.0865 66.0968C46.1643 64.8921 48.7574 62.7652 50.5003 60.0566L50.5088 60.04C50.9849 59.1926 51.7501 57.6638 52.4133 55.6615C52.7449 54.6729 53.0424 53.5762 53.272 52.3881C53.5356 51.0255 53.7056 49.5383 53.7056 47.9847C53.7056 47.4862 53.7056 46.996 53.7141 46.5307C53.7141 46.2565 53.7226 45.999 53.7311 45.7414C53.7736 44.0964 53.8586 42.6923 53.9607 41.5125C54.2072 38.6627 54.9554 35.8628 56.1797 33.1876C57.0979 31.1936 58.1947 28.9503 59.1469 27.0726C59.2319 26.9065 59.3084 26.7486 59.3935 26.5908C59.9801 25.4359 60.4902 24.4555 60.8303 23.7909C61.1959 23.093 61.502 22.3701 61.706 21.6141C62.1566 20.0355 62.3437 18.5317 62.3777 17.1608C62.1396 9.16822 55.5845 2.72097 47.4226 2.42188H47.4141Z" fill="#E8E2CF"/>
<path d="M99.343 65.683H84.6696C82.5613 65.683 80.8594 63.8242 80.8594 61.5205V54.5219C80.8594 52.2182 82.5613 50.3594 84.6696 50.3594H99.343V53.0285H83.2979V63.0298H99.343V65.6989V65.683Z" fill="#E8E2CF"/>
<path d="M124.627 53.0299H116.623V65.6989H114.157V53.0299H106.152V50.3594H124.636V53.0299H124.627Z" fill="#E8E2CF"/>
<path d="M149.929 61.532C149.929 63.8381 148.227 65.6989 146.119 65.6989H135.255C133.147 65.6989 131.445 63.8381 131.445 61.532V54.5263C131.445 52.2202 133.147 50.3594 135.255 50.3594H146.119C148.227 50.3594 149.929 52.2202 149.929 54.5263V61.532ZM147.49 63.035V53.0233H133.884V63.035H147.49Z" fill="#E8E2CF"/>
<path d="M181.059 66.3961H178.627V52.1984L171.766 65.1128C171.279 66.0283 170.409 66.6576 169.385 66.6576C168.361 66.6576 167.49 66.0283 167.004 65.1128L160.169 52.1984V66.3961H157.711V53.449C157.711 51.7325 158.94 50.3594 160.476 50.3594C161.525 50.3594 162.396 51.0133 162.908 51.9614L169.385 64.2219L175.887 51.9614C176.374 51.0214 177.27 50.3594 178.294 50.3594C179.83 50.3594 181.059 51.7325 181.059 53.449V66.3961Z" fill="#E8E2CF"/>
<path d="M208.3 65.6989H192.716C190.573 65.6989 188.844 63.8381 188.844 61.532V60.8641C188.844 58.558 190.573 56.6972 192.716 56.6972H205.822V53.0313H189.515V50.3594H204.428C206.571 50.3594 208.3 52.2202 208.3 54.5263V65.6989ZM205.822 63.027V59.3611H191.322V63.027H205.822Z" fill="#E8E2CF"/>
<path d="M232.612 53.0299H224.607V65.6989H222.141V53.0299H214.137V50.3594H232.62V53.0299H232.612Z" fill="#E8E2CF"/>
<path d="M257.913 61.532C257.913 63.8381 256.211 65.6989 254.103 65.6989H243.24C241.132 65.6989 239.43 63.8381 239.43 61.532V54.5263C239.43 52.2202 241.132 50.3594 243.24 50.3594H254.103C256.211 50.3594 257.913 52.2202 257.913 54.5263V61.532ZM255.475 63.035V53.0233H241.868V63.035H255.475Z" fill="#E8E2CF"/>
<path d="M263.75 66.6576L272.866 51.9884C273.445 51.0575 274.353 50.3594 275.436 50.3594C276.52 50.3594 277.428 51.0575 278.007 51.9884L287.098 66.6576H284.048L275.411 52.512L266.8 66.6576H263.75Z" fill="#E8E2CF"/>
<path d="M312.39 61.532C312.39 63.8381 310.688 65.6989 308.58 65.6989H297.716C295.608 65.6989 293.906 63.8381 293.906 61.532V54.5263C293.906 52.2202 295.608 50.3594 297.716 50.3594H308.58C310.688 50.3594 312.39 52.2202 312.39 54.5263V61.532ZM309.951 63.035V53.0233H296.345V63.035H309.951Z" fill="#E8E2CF"/>
<path d="M320.172 54.5241C320.172 52.2192 321.847 50.3594 323.922 50.3594H334.764V53.0299H322.572V65.6989H320.172V54.532V54.5241Z" fill="#E8E2CF"/>
<path d="M344.965 64.4181L356.37 51.2748C356.874 50.7027 357.554 50.3594 358.31 50.3594C359.821 50.3594 361.03 51.7325 361.03 53.449V66.3961H358.612V52.599L347.208 65.7422C346.704 66.3143 346.024 66.6576 345.268 66.6576C343.756 66.6576 342.547 65.2845 342.547 63.568V50.6209H344.965V64.4181Z" fill="#E8E2CF"/>
<path d="M371.339 59.6982C370.399 59.1419 369.789 58.1404 369.789 56.8608V54.5241C369.789 52.2192 371.491 50.3594 373.599 50.3594H388.273V65.6989H385.834V61.0335H372.228V65.6989H369.789V62.5277C369.789 61.2481 370.399 60.2466 371.339 59.6903V59.6982ZM385.834 53.0299H372.228V58.363H385.834V53.0299Z" fill="#E8E2CF"/>
<path d="M117.818 2.42969V33.2438C116.381 35.6199 108.957 38.1704 100.036 37.8796C94.3289 37.6969 85.8734 36.5504 82.2545 33.061H87.2771C90.0504 35.246 95.9777 36.0602 100.036 36.2014C106.894 36.4341 112.449 34.5897 112.796 33.2355V26.639C101.947 30.6185 87.1671 28.6329 82.7618 21.7789C81.4259 19.7019 80.8594 17.6997 80.8594 15.8138V4.83899L85.8819 2.42969V14.7171C85.8819 20.5493 89.2979 25.8664 97.0685 26.963C100.89 27.503 105.313 27.071 109.743 25.5507C109.701 25.5673 111.121 24.8694 112.804 23.8309V4.8473L117.827 2.42969H117.818Z" fill="#E8E2CF" stroke="#E8E2CF" strokeWidth="1.94564" strokeMiterlimit="10"/>
<path d="M165.248 35.0262V4.19393C153.246 4.43757 139.559 10.8813 137.528 35.0262H132.418C135.73 7.36117 153.238 2.68172 165.248 2.43809L170.358 2.42969V35.0262H165.248Z" fill="#E8E2CF" stroke="#E8E2CF" strokeWidth="1.94564" strokeMiterlimit="10"/>
<path d="M222.184 15.46C228.397 25.1656 218.184 33.4103 210.388 34.5017C203.282 35.4924 194.975 35.3665 186.898 31.5716V4.87287L191.954 2.42969V10.5401C202.873 6.51845 217.75 8.52505 222.184 15.46ZM207.784 10.2294C203.937 9.68368 199.486 10.1203 195.026 11.6567C195.069 11.6399 193.639 12.3452 191.945 13.3946V31.5632C197.92 33.8217 217.988 36.2061 218.865 22.5965C219.256 16.4927 215.605 11.3293 207.775 10.221L207.784 10.2294ZM231.648 2.42969V35.0223H226.593V4.86448L231.648 2.42969Z" fill="#E8E2CF" stroke="#E8E2CF" strokeWidth="1.94564" strokeMiterlimit="10"/>
<path d="M283.389 29.635C278.913 35.1988 259.343 36.5855 248.184 33.1901V2.42969H282.315V5.86712H253.209V14.9356C259.2 13.7085 265.114 13.801 270.368 14.3893C278.118 15.2549 289.566 21.9617 283.389 29.635ZM278.803 23.8023C276.612 14.3556 260.257 15.1877 253.209 16.7929V32.2404C255.773 32.8707 260.672 33.2489 264.022 33.2321C274.319 33.1901 280.064 29.24 278.803 23.8023Z" fill="#E8E2CF" stroke="#E8E2CF" strokeWidth="1.94564" strokeMiterlimit="10"/>
<path d="M337.682 35.0262H333.965C331.684 21.9422 328.242 19.2868 326.091 16.3288H304.854V35.0262H299.742V4.87506L304.854 2.42969V14.5137H326.091C328.733 12.2028 332.244 7.05152 333.621 2.42969H337.682C335.281 9.2784 330.781 13.1607 327.279 15.5473C330.66 18.6649 336.52 25.6061 337.682 35.0262Z" fill="#E8E2CF" stroke="#E8E2CF" strokeWidth="1.94564" strokeMiterlimit="10"/>
<path d="M381.914 34.0653L379.217 28.9322C375.137 22.9841 363.472 22.8413 356.429 25.0508L351.567 34.0653H349.359L366.083 3.90509L370.524 1.46875L387.299 34.0653H381.914ZM376.245 23.253L366.951 5.53492L357.571 22.9421C361.024 21.9256 365.74 21.7828 369.476 21.9844C372.07 22.1272 374.243 22.5305 376.245 23.2446V23.253Z" fill="#E8E2CF" stroke="#E8E2CF" strokeWidth="1.94564" strokeMiterlimit="10"/>
</g>
<defs>
<clipPath id="clip0_1838_6757">
<rect width="388.155" height="66.1518" fill="white" transform="translate(0.117188 0.5)"/>
</clipPath>
</defs>
</svg>
