<svg width="48" height="48" viewBox="0 0 48 48" fill="none" xmlns="http://www.w3.org/2000/svg">
<g clip-path="url(#clip0_5434_9211)">
<path d="M11.3891 0.15202C9.85624 0.335648 8.04801 0.932446 6.6712 1.71287C3.10982 3.76034 0.760053 7.32275 0.310293 11.3718C0.172611 12.5929 0.172611 34.5183 0.310293 35.7394C0.961987 41.6431 5.62481 46.3073 11.5268 46.9592C12.7476 47.0969 34.6665 47.0969 35.8873 46.9592C41.7892 46.3073 46.4521 41.6431 47.1038 35.7394C47.2415 34.5183 47.2415 12.5929 47.1038 11.3718C46.4521 5.4681 41.7892 0.803905 35.8873 0.15202C34.8042 0.0326614 12.4447 0.0326614 11.3891 0.15202ZM36.8419 3.09927C38.7511 3.62262 40.2197 4.45813 41.5047 5.75272C42.7989 7.03813 43.6342 8.50717 44.1666 10.4169L44.4052 11.2983V23.5556V35.8129L44.1666 36.6943C43.6342 38.6041 42.7989 40.0731 41.5047 41.3585C40.2197 42.6531 38.7511 43.4886 36.8419 44.0211L35.9607 44.2599H23.707H11.4533L10.5722 44.0211C8.66299 43.4886 7.19439 42.6531 5.90936 41.3585C4.61515 40.0731 3.77988 38.6041 3.24751 36.6943L3.00886 35.8129V23.5556V11.2983L3.24751 10.4169C3.77988 8.50717 4.61515 7.03813 5.90018 5.75272C7.42386 4.2286 9.43401 3.21863 11.5451 2.90646C11.848 2.86056 17.4655 2.83301 24.0283 2.84219L35.9607 2.85138L36.8419 3.09927Z" fill="#293D7A"/>
<path d="M36.4218 6.65814C34.1924 6.96901 32.6756 9.13595 33.2147 11.2389C33.5893 12.7292 34.5396 13.671 36.0198 14.055C38.5325 14.695 40.9995 12.4183 40.5792 9.84911C40.3507 8.41363 39.3 7.20673 37.9294 6.79529C37.5274 6.67643 36.7873 6.61243 36.4218 6.65814ZM37.4452 9.57482C37.9386 9.88569 38.0208 10.6446 37.6096 11.0743C37.2716 11.4217 36.8604 11.504 36.4401 11.3029C35.8005 11.0012 35.6635 10.16 36.1751 9.68454C36.5497 9.32795 36.9883 9.29138 37.4452 9.57482Z" fill="#293D7A"/>
<path d="M21.4896 11.4598C16.4717 12.1495 12.2341 15.9245 10.9547 20.8701C9.82951 25.1986 11.0908 29.7722 14.2939 32.9755C19.2846 37.9665 27.1971 37.9665 32.1878 32.9755C37.1785 27.9845 37.1785 20.0715 32.1878 15.0806C29.3204 12.2221 25.4821 10.9154 21.4896 11.4598ZM24.6927 14.1822C26.8704 14.5089 28.7215 15.4435 30.2732 16.9953C34.184 20.8973 34.184 27.1587 30.2732 31.0608C26.3714 34.9719 20.1103 34.9719 16.2085 31.0608C12.2976 27.1587 12.2976 20.8973 16.2085 16.9953C18.4679 14.7357 21.5712 13.7012 24.6927 14.1822Z" fill="#293D7A"/>
</g>
<defs>
<clipPath id="clip0_5434_9211">
<rect width="47" height="47" fill="white" transform="translate(0.207031 0.0625)"/>
</clipPath>
</defs>
</svg>
