<svg width="42" height="25" viewBox="0 0 42 25" fill="none" xmlns="http://www.w3.org/2000/svg">
<path d="M18.8313 13.3804L18.8313 13.3804L18.8345 13.3836C19.4384 13.9908 20.4207 13.9921 21.0262 13.3865L25.2648 9.1479L29.4989 4.91384C30.1083 4.30441 30.1083 3.31633 29.4989 2.70689C28.8945 2.10247 27.9145 2.10247 27.3101 2.70689L23.0669 6.95002L18.8284 11.1886C18.2228 11.7942 18.2241 12.7764 18.8313 13.3804Z" fill="white" stroke="white" strokeWidth="1.69997"/>
<path d="M16.0349 15.3553L16.636 14.7543L16.0349 15.3553L14.3667 13.6871C13.7573 13.0776 12.7692 13.0776 12.1597 13.6871C11.5553 14.2915 11.5553 15.2714 12.1598 15.8759L15.5234 19.2395L17.2558 20.9719C18.7562 22.4723 21.1887 22.4723 22.6891 20.9719L29.9339 13.7271L38.8191 4.84192C39.4135 4.24751 39.4135 3.28378 38.8191 2.68937C38.2247 2.09496 37.2609 2.09496 36.6665 2.68937L29.4859 9.87005L23.9365 15.4194C21.7722 17.5837 18.2633 17.5837 16.0991 15.4194L16.0349 15.3553Z" fill="white" stroke="white" strokeWidth="1.69997"/>
<path d="M6.67998 15.3386L6.6785 15.3372L5.0012 13.6599C4.40679 13.0654 3.44306 13.0654 2.84865 13.6599C2.25424 14.2543 2.25424 15.218 2.84865 15.8124L6.24859 19.2123L9.6032 22.567C10.2226 23.1864 11.227 23.1864 11.8464 22.567L11.8917 22.5216L12.4878 23.1177L11.8917 22.5216C12.4862 21.9272 12.4862 20.9635 11.8917 20.3691C11.4325 19.9098 11.0095 19.4959 10.6969 19.1987C10.5395 19.0492 10.4155 18.9343 10.3307 18.8593C10.3108 18.8418 10.2951 18.8281 10.283 18.8178C10.2636 18.8062 10.2489 18.7964 10.24 18.7904C10.2063 18.7676 10.1789 18.7459 10.1651 18.7347C10.134 18.7096 10.1015 18.6811 10.0732 18.6558C10.0139 18.6028 9.93549 18.53 9.84362 18.4432C9.65822 18.2679 9.3987 18.0176 9.08551 17.7123C8.45822 17.101 7.60599 16.2601 6.67998 15.3386Z" fill="white" stroke="white" strokeWidth="1.69997"/>
</svg>
