<svg width="42" height="25" viewBox="0 0 42 25" fill="none" xmlns="http://www.w3.org/2000/svg">
<path d="M18.8313 13.4429L18.8313 13.4429L18.8345 13.4461C19.4384 14.0533 20.4207 14.0546 21.0262 13.449L25.2648 9.2104L29.4989 4.97634C30.1083 4.36691 30.1083 3.37883 29.4989 2.76939C28.8945 2.16497 27.9145 2.16497 27.3101 2.76939L23.0669 7.01252L18.8284 11.2511C18.2228 11.8567 18.2241 12.8389 18.8313 13.4429Z" fill="#93E04A" stroke="#93E04A" strokeWidth="1.69997"/>
<path d="M16.0349 15.4178L16.636 14.8168L16.0349 15.4178L14.3667 13.7496C13.7573 13.1401 12.7692 13.1401 12.1597 13.7496C11.5553 14.354 11.5553 15.3339 12.1598 15.9384L15.5234 19.302L17.2558 21.0344C18.7562 22.5348 21.1887 22.5348 22.6891 21.0344L29.9339 13.7896L38.8191 4.90442C39.4135 4.31001 39.4135 3.34628 38.8191 2.75187C38.2247 2.15746 37.2609 2.15746 36.6665 2.75187L29.4859 9.93255L23.9365 15.4819C21.7722 17.6462 18.2633 17.6462 16.0991 15.4819L16.0349 15.4178Z" fill="#93E04A" stroke="#93E04A" strokeWidth="1.69997"/>
<path d="M6.67998 15.4011L6.6785 15.3997L5.0012 13.7224C4.40679 13.1279 3.44306 13.1279 2.84865 13.7224C2.25424 14.3168 2.25424 15.2805 2.84865 15.8749L6.24859 19.2748L9.6032 22.6295C10.2226 23.2489 11.227 23.2489 11.8464 22.6295L11.8917 22.5841L12.4878 23.1802L11.8917 22.5841C12.4862 21.9897 12.4862 21.026 11.8917 20.4316C11.4325 19.9723 11.0095 19.5584 10.6969 19.2612C10.5395 19.1117 10.4155 18.9968 10.3307 18.9218C10.3108 18.9043 10.2951 18.8906 10.283 18.8803C10.2636 18.8687 10.2489 18.8589 10.24 18.8529C10.2063 18.8301 10.1789 18.8084 10.1651 18.7972C10.134 18.7721 10.1015 18.7436 10.0732 18.7183C10.0139 18.6653 9.93549 18.5925 9.84362 18.5057C9.65822 18.3304 9.3987 18.0801 9.08551 17.7748C8.45822 17.1635 7.60599 16.3226 6.67998 15.4011Z" fill="#93E04A" stroke="#93E04A" strokeWidth="1.69997"/>
</svg>
