<svg width="221" height="221" viewBox="0 0 221 221" fill="none" xmlns="http://www.w3.org/2000/svg">
<path d="M136.775 19.2647C122.988 22.2284 112.293 30.0887 106.064 41.7288C101.683 49.9327 99.4927 60.8427 100.438 69.3473C101.984 82.7484 109.458 95.2905 120.239 102.592C132.265 110.753 147.986 112.944 161.43 108.305C182.735 101.003 195.835 79.3981 192.227 57.4494C189.049 38.1637 176.807 24.5049 158.466 19.6942C153.14 18.3197 142.187 18.062 136.775 19.2647ZM153.527 25.4928C165.425 27.5974 175.948 35.3289 181.532 46.11C186.429 55.6454 187.288 65.5674 184.152 76.1767C177.967 97.2664 155.46 108.649 133.769 101.69C121.227 97.6959 111.691 87.4732 108.47 74.6304C106.021 64.7513 106.752 56.1179 110.789 47.6562C117.447 33.7396 130.977 25.0632 146.268 24.8914C148.201 24.8485 151.465 25.1491 153.527 25.4928Z" fill="white"/>
<path d="M144.464 32.7049C143.562 33.478 143.261 34.2082 143.089 35.9263L142.875 38.1599H137.205C132.179 38.1599 131.406 38.2458 130.418 39.0189C129.86 39.4914 129.216 40.3504 129.087 40.9518C128.743 42.2833 129.774 44.4309 130.977 44.8175C131.836 45.0752 131.836 45.4188 131.836 64.4038V83.6895H130.118C127.927 83.6895 126.252 85.1499 126.252 87.1257C126.252 87.9418 126.639 88.8438 127.326 89.4881C128.357 90.5619 128.485 90.5619 135.701 90.5619H143.003V92.28C143.003 96.4464 146.268 98.5081 148.802 95.931C149.661 95.1149 149.876 94.4706 149.876 92.7954V90.6907L153.054 90.476C157.178 90.2183 160.313 88.7149 162.933 85.7942C167.787 80.3822 168.088 72.4789 163.621 66.5944L161.86 64.3179L163.191 62.8146C168.99 56.1999 167.701 45.7195 160.485 40.9518C158.123 39.4055 154.171 38.1599 151.508 38.1599H149.876V36.27C149.876 33.7787 149.575 33.0915 148.115 32.3613C146.483 31.5022 145.838 31.5452 144.464 32.7049ZM154.944 45.6336C156.877 46.3208 159.154 48.6403 159.798 50.4872C160.958 54.0523 159.068 58.6052 155.76 60.1086C154.214 60.7958 152.882 60.9247 146.354 60.9247H138.708V52.9785V45.0323L146.139 45.0752C150.735 45.0752 154.085 45.29 154.944 45.6336ZM156.405 69.0427C158.939 70.8037 159.97 72.6937 159.97 75.7433C159.97 79.0936 158.552 81.413 155.803 82.7875C154.085 83.6036 153.183 83.6895 146.311 83.6895H138.708V75.7003V67.7112L146.783 67.883C154.515 68.0118 154.944 68.0548 156.405 69.0427Z" fill="white"/>
<path d="M61.1796 58.4373C59.2897 59.4682 59.2467 59.7259 59.2467 71.7526C59.2467 78.4102 59.0749 83.2638 58.8602 83.2638C58.6454 83.2638 56.4119 85.1967 53.9206 87.602C46.9623 94.2167 42.7959 100.273 39.4886 108.477L37.8135 112.686L27.2472 112.901L16.6379 113.116L15.607 114.318C14.6191 115.478 14.5762 115.779 14.5762 121.921C14.5762 125.443 14.7909 129.352 15.0486 130.597C17.0674 140.133 25.4861 147.263 34.6779 147.263H37.6417L38.8443 150.356C41.9369 158.302 46.1892 165.002 52.0307 171.059L55.8105 174.967V187.552V200.138L56.8844 201.168L57.9152 202.242H73.1633H88.4115L89.2705 201.125C90.0866 200.095 90.1725 199.407 90.1725 194.253V188.497H107.311H124.449L124.62 194.554C124.749 200.309 124.792 200.653 125.78 201.426C126.725 202.199 127.67 202.242 141.887 202.242H157.05L157.952 201.254C158.896 200.266 158.896 200.009 158.896 187.638V175.053L162.934 170.887C170.537 163.07 176.163 152.675 178.225 142.796L178.698 140.391H188.92C198.971 140.391 199.143 140.391 201.291 139.317C207.776 136.052 208.85 127.247 203.395 122.436C200.775 120.16 198.542 119.773 188.018 119.773H178.655L178.397 118.571C177.323 113.76 176.894 112.6 175.863 111.698C174.488 110.496 173.071 110.496 171.61 111.655C170.236 112.729 170.193 113.545 171.396 118.914C171.868 121.148 172.341 123.424 172.469 123.983C172.555 124.498 173.028 125.314 173.5 125.787C174.316 126.603 174.961 126.646 185.742 126.646C194.934 126.646 197.425 126.775 198.37 127.29C200.346 128.278 200.732 130.469 199.272 132.359L198.37 133.475L186.386 133.604C172.04 133.776 173.114 133.303 171.782 139.832C169.592 150.828 164.91 159.376 156.749 167.408L152.239 171.875L152.11 183.601L151.981 195.37H141.715H131.407V189.442C131.407 183.816 131.364 183.429 130.419 182.57C129.474 181.668 129.345 181.668 107.396 181.668H85.3618L84.331 182.699C83.3431 183.687 83.3001 183.987 83.3001 189.571V195.37H72.9915H62.6829V183.73V172.047L58.13 167.494C51.3005 160.621 47.3489 154.35 44.4711 145.717C42.8389 140.82 42.6671 140.691 36.3531 140.348C32.1008 140.176 30.7693 139.918 29.2659 139.145C26.474 137.728 24.1975 135.408 22.866 132.745C21.7922 130.555 21.6633 129.738 21.4915 125.014L21.3627 119.773H31.4565C40.4336 119.773 41.6362 119.688 42.4094 119C42.8819 118.614 43.8698 116.509 44.6 114.318C47.8643 104.396 53.8777 95.8489 62.0816 89.449C64.7876 87.3443 65.6467 86.3994 65.8614 85.3685C65.9903 84.6383 66.1191 79.6988 66.1191 74.4156V64.8372L67.3218 65.1808C72.3902 66.6412 76.4277 71.4519 76.4277 76.0478C76.4277 77.8518 77.5445 79.7847 78.7901 80.0853C79.3915 80.2142 81.4532 80.0424 83.386 79.6988C85.3618 79.3122 88.1108 78.8827 89.5282 78.7538C90.9457 78.582 92.4061 78.2813 92.7926 78.0666C93.9523 77.4652 94.4678 75.4465 93.8235 73.9431C93.0503 72.0962 91.0745 71.4948 87.5524 72.0962C83.7297 72.6975 82.8706 72.6546 82.5699 71.7526C80.9807 67.0278 77.3297 62.4319 73.507 60.3701C69.7701 58.3514 63.2413 57.3205 61.1796 58.4373Z" fill="white"/>
<path d="M64.4011 99.0273C63.1984 99.4568 61.4373 101.433 61.1796 102.635C60.7931 104.396 61.6951 106.716 63.1125 107.747C64.5729 108.777 67.6654 108.906 69.0399 107.918C70.1567 107.145 71.2735 105.127 71.2735 103.881C71.2735 100.531 67.4936 97.9105 64.4011 99.0273Z" fill="white"/>
</svg>
