<svg width="152" height="174" viewBox="0 0 152 174" fill="none" xmlns="http://www.w3.org/2000/svg">
<path d="M36.574 1.76579C35.7272 2.67969 27.2982 12.1995 17.83 22.976L0.664062 42.5107V107.17C0.664062 169.277 0.702551 171.828 1.35686 172.4C2.01117 173.009 5.20572 173.047 39.2682 173.047C75.9863 173.047 76.4867 173.047 77.2565 172.285C78.2187 171.333 78.2187 170.343 77.295 169.201L76.5637 168.287L40.9232 168.173L5.2827 168.097V107.17V46.2806L24.9504 46.1664L44.6181 46.0521L45.3494 45.1382C46.0422 44.3005 46.0807 43.4627 46.0807 29.4495C46.0807 15.1317 46.0422 14.5985 45.3109 13.875C44.2717 12.8469 42.4242 12.885 41.693 13.9512C41.1541 14.6747 41.0771 16.6929 41.0771 28.0406V41.2922H24.8734C15.2513 41.2922 8.74668 41.1399 8.82366 40.9495C8.90063 40.7591 15.9441 32.6101 24.527 22.8618L40.1149 5.11678H82.1445H124.213V32.1151C124.213 58.8087 124.213 59.1133 125.021 60.1034C125.983 61.2839 127.369 61.3981 128.446 60.3319C129.216 59.5703 129.216 59.0753 129.216 30.5157C129.216 2.83202 129.178 1.38499 128.523 0.813797C127.869 0.204529 124.136 0.166458 82.9913 0.166458H38.152L36.574 1.76579Z" fill="white"/>
<path d="M111.697 67.231C110.071 67.6059 108.406 67.7184 106.083 67.5309C104.264 67.4185 101.476 67.231 99.85 67.1186C96.0173 66.8186 94.5461 67.456 90.4424 71.0174C88.1195 73.0418 86.6096 74.0165 84.4416 74.8788C78.4021 77.2406 76.9309 78.8526 75.3049 84.626C74.4919 87.4751 73.7563 89.1247 72.2852 91.2615C68.5299 96.8099 68.1427 98.8718 69.9236 103.97C70.7753 106.37 71.0076 107.869 71.2012 112.33C71.4335 117.391 71.5109 117.879 72.5175 119.528C73.1369 120.541 74.7242 122.19 76.2341 123.39C77.7052 124.514 79.2538 125.901 79.6797 126.464L80.454 127.513L71.5883 142.322C66.749 150.457 62.7614 157.467 62.7227 157.88C62.7227 158.292 62.9937 159.042 63.3421 159.492C64.0777 160.504 65.1617 160.541 72.7498 159.717C75.7695 159.417 78.5957 159.192 79.0603 159.267C79.6797 159.342 80.454 160.691 82.6607 165.527C84.2093 168.901 85.7579 171.976 86.1063 172.35C86.8419 173.213 88.7776 173.288 89.5519 172.5C89.8616 172.238 93.9267 165.565 98.5725 157.73C105.696 145.696 107.09 143.596 107.438 144.121C107.709 144.459 111.503 150.832 115.955 158.255C120.369 165.677 124.24 172.051 124.589 172.388C125.363 173.25 127.454 173.25 128.228 172.388C128.538 172.051 130.086 168.901 131.674 165.415L134.538 159.117L136.861 159.304C138.139 159.417 141.584 159.717 144.488 159.979C149.521 160.429 149.831 160.429 150.605 159.754C151.031 159.379 151.379 158.592 151.379 157.992C151.379 157.242 148.553 152.144 142.668 142.284C137.868 134.262 133.958 127.551 133.958 127.364C133.958 127.101 135.197 125.939 139.687 122.003C142.514 119.528 142.978 118.179 143.249 111.768C143.443 107.307 143.675 105.732 144.333 104.083C146.23 99.4716 145.843 96.8849 142.668 92.2363C140.307 88.8247 140.075 88.2999 138.952 84.2511C137.519 79.0401 135.855 77.2781 130.318 75.0288C127.492 73.9041 125.402 72.517 122.034 69.5553C120.679 68.3557 119.285 67.5309 118.007 67.156C115.607 66.4812 114.716 66.4812 111.697 67.231ZM103.025 72.442C106.432 72.9669 107.477 73.0043 110.497 72.592C116.497 71.7672 116.923 71.8797 120.446 75.0288C123.04 77.3156 124.937 78.4403 129.041 80.0898C130.86 80.8021 132.293 81.6643 132.68 82.1892C133.029 82.714 133.609 84.476 133.996 86.1255C134.809 89.4995 135.932 91.7489 138.41 95.3104C140.5 98.2345 140.578 99.1342 139.107 103.221C138.216 105.732 138.061 106.857 137.984 111.131C137.868 116.979 137.829 117.017 133.996 120.016C131.015 122.265 129.854 123.615 127.763 127.064C125.905 130.213 124.666 130.925 120.717 131.262C116.768 131.6 113.71 132.5 111.039 134.074C107.98 135.911 106.819 135.911 103.334 134.149C99.85 132.35 97.2174 131.6 93.3073 131.262C89.6294 130.925 88.5453 130.288 86.8419 127.513C84.6352 123.84 82.893 121.89 80.0668 119.791C78.5957 118.704 77.1245 117.354 76.8148 116.792C76.4277 116.079 76.2728 114.467 76.3115 111.506C76.3115 107.044 76.0405 105.32 74.6855 101.646C73.7176 98.9843 73.9886 97.6347 76.0405 95.0479C77.9762 92.5737 79.2925 89.837 80.3378 86.0131C81.4218 82.1517 82.1187 81.2145 84.7126 80.2772C88.3905 78.9276 91.0231 77.3906 93.5783 75.1412C95.8624 73.1543 97.8369 71.9172 98.8047 71.8422C98.9596 71.8422 100.857 72.1046 103.025 72.442ZM85.2159 133.849C86.8419 135.274 89.8229 136.323 92.3394 136.323C94.5461 136.323 97.9143 137.223 100.663 138.573C101.941 139.21 102.986 139.772 102.986 139.847C102.986 140.11 88.9325 163.878 88.5066 164.328C88.1582 164.703 87.5001 163.541 85.7192 159.642C84.1706 156.268 83.0866 154.356 82.5833 154.093C81.9639 153.831 80.183 153.868 76.3115 154.243C73.2918 154.543 70.7366 154.731 70.6592 154.618C70.4656 154.468 83.2802 132.612 83.5899 132.575C83.6673 132.575 84.4029 133.137 85.2159 133.849ZM137.403 143.634C140.965 149.632 143.714 154.581 143.52 154.656C143.327 154.731 141.313 154.581 139.029 154.356C132.874 153.681 132.061 153.718 131.248 154.543C130.86 154.918 129.622 157.28 128.538 159.754C127.415 162.228 126.408 164.403 126.253 164.553C126.021 164.778 111.852 141.684 111.193 140.072C111.077 139.772 114.329 138.198 117.117 137.186C117.969 136.886 120.214 136.473 122.15 136.286C125.905 135.911 128.538 134.936 129.622 133.474C129.97 132.987 130.435 132.649 130.589 132.687C130.783 132.724 133.842 137.673 137.403 143.634Z" fill="white"/>
<path d="M104.774 84.9112C97.4725 86.6726 91.6922 92.5189 89.9429 99.8268C86.7485 113.206 98.3471 126.023 111.961 124.149C119.985 123.062 126.64 117.178 128.732 109.271C129.606 105.935 129.492 104.436 128.314 103.537C127.021 102.525 126.526 102.563 125.385 103.574C124.739 104.174 124.359 105.111 124.054 106.76C123.218 111.632 119.871 115.942 115.346 118.04C113.406 118.94 112.684 119.052 109.337 119.052C105.801 119.052 105.344 118.977 102.987 117.815C95.533 114.218 92.4527 105.148 96.1795 97.7281C97.7387 94.6176 101.085 91.507 104.089 90.3827C107.018 89.2584 111.163 89.1835 114.243 90.1579C116.259 90.8324 116.563 90.8324 117.475 90.3453C118.882 89.5583 118.882 87.1972 117.513 86.2229C115.232 84.5739 108.881 83.8993 104.774 84.9112Z" fill="white"/>
<path d="M118.406 95.5172C114.434 99.1975 110.274 102.985 109.215 103.95L107.21 105.736L104.411 103.164C102.861 101.734 101.272 100.591 100.856 100.591C99.6457 100.591 98.1328 101.949 98.1328 103.057C98.1328 103.807 98.9271 104.772 101.877 107.487C105.395 110.739 105.697 110.953 107.172 110.953C108.685 110.953 109.026 110.739 113.565 106.701C122.15 99.1261 129.148 92.1942 129.148 91.3367C129.148 90.3362 127.521 88.7997 126.462 88.7997C125.857 88.7997 123.398 90.8364 118.406 95.5172Z" fill="white"/>
<path d="M23.3578 67.0464C22.6088 67.9696 22.6837 69.6312 23.5076 70.4435C24.0318 70.9605 26.6907 71.0343 47.2501 71.0343C72.7152 71.0343 71.5918 71.1451 71.5918 68.8188C71.5918 66.4926 72.7152 66.6033 47.1003 66.6033C28.8627 66.6033 23.6574 66.7141 23.3578 67.0464Z" fill="white"/>
<path d="M23.6015 89.7007C22.5424 90.6214 22.5816 91.5421 23.7584 92.6674C24.3075 93.2471 25.7196 93.2812 42.8612 93.2812C60.7873 93.2812 61.3756 93.2471 62.0817 92.5992C63.0231 91.6785 62.9447 90.2122 61.8856 89.462C61.0618 88.8823 59.8066 88.8482 42.7827 88.8482H24.5821L23.6015 89.7007Z" fill="white"/>
<path d="M23.5749 111.505C22.5141 112.153 22.6319 114.029 23.7321 114.847C24.5965 115.427 25.736 115.461 42.8278 115.461C59.8017 115.461 61.059 115.427 61.8841 114.847C62.945 114.097 63.0236 112.631 62.0806 111.71C61.3733 111.062 60.784 111.028 42.8278 111.028C27.8577 111.028 24.1643 111.13 23.5749 111.505Z" fill="white"/>
<path d="M23.3854 133.614C22.5965 134.529 22.6754 136.176 23.5432 136.981C24.0954 137.493 26.3834 137.566 42.8327 137.566C59.2821 137.566 61.57 137.493 62.1222 136.981C62.8717 136.322 62.9506 134.236 62.28 133.614C61.57 132.955 23.9771 132.992 23.3854 133.614Z" fill="white"/>
</svg>
