<svg width="143" height="183" viewBox="0 0 143 183" fill="none" xmlns="http://www.w3.org/2000/svg">
<path d="M64.6314 1.28341C50.9638 4.20163 40.7685 14.3969 37.9611 27.9168C36.9268 32.7558 37.1853 39.2572 38.5521 43.9116C42.3199 56.6926 52.9216 66.1122 65.8873 68.2177C69.3966 68.7718 76.4889 68.4763 79.7766 67.6267C85.613 66.1491 93.1117 61.4948 96.8056 57.062C102.31 50.5237 104.822 44.244 105.154 36.0435C105.449 28.4709 103.75 22.1542 99.6869 15.9484C92.1513 4.46021 77.8557 -1.52399 64.6314 1.28341ZM78.4837 6.63963C93.1856 10.5922 102.531 25.4418 99.5761 40.1068C97.2489 51.5211 88.4943 60.4605 77.2647 62.8246C74.0879 63.5264 68.4731 63.5264 65.2963 62.8246C54.1775 60.4974 45.349 51.558 43.0587 40.4023C39.845 24.74 49.8556 9.70561 65.7396 6.30718C68.7317 5.64227 75.4177 5.82697 78.4837 6.63963Z" fill="white"/>
<path d="M53.3637 83.6976C40.5826 87.0591 29.5007 93.5605 20.2659 103.165C8.18667 115.761 1.50062 131.313 0.503256 149.081C0.24468 154.067 0.798772 157.133 2.64575 160.68C4.27108 163.745 9.29485 168.695 13.1366 170.986C22.7408 176.674 36.8886 180.516 55.0259 182.4C61.9706 183.102 82.2134 182.991 89.3796 182.215C106.667 180.294 120.076 176.527 129.422 170.986C133.264 168.695 138.288 163.745 139.913 160.68C141.76 157.133 142.314 154.067 142.055 149.081C140.726 125.587 128.942 105.159 109.327 92.4523C103.306 88.5737 96.1026 85.4338 89.1211 83.6607C86.7939 83.0697 84.4667 82.5895 83.9865 82.5895C83.3585 82.5895 81.5115 84.1409 77.3374 88.1304C74.1606 91.1594 71.464 93.6713 71.2793 93.6713C71.1315 93.6713 68.398 91.1594 65.2212 88.1304C60.6038 83.6976 59.237 82.5895 58.4244 82.5895C57.8703 82.6264 55.617 83.1066 53.3637 83.6976ZM62.5985 92.7478L67.4007 97.2914L66.4772 98.0302C65.96 98.4365 62.8202 100.911 59.4587 103.571C56.0972 106.231 53.2159 108.262 53.0681 108.115C52.3663 107.413 44.7568 92.3415 44.9784 92.1198C45.7172 91.3811 55.4692 88.2043 57.0576 88.1673C57.5009 88.1673 59.6803 89.9774 62.5985 92.7478ZM88.6409 88.8692C91.7807 89.7557 97.4694 91.8243 97.691 92.1568C97.8388 92.4154 90.0446 107.561 89.4905 108.115C89.3427 108.262 86.4614 106.231 83.0999 103.571C79.7384 100.911 76.5986 98.4365 76.0814 98.0302L75.1949 97.3283L79.9601 92.7478C82.6197 90.2359 85.0208 88.1673 85.3163 88.1304C85.6488 88.1304 87.1263 88.4628 88.6409 88.8692ZM111.728 100.468C115.717 103.608 121.886 110.109 124.915 114.357C129.681 121.08 133.855 130.648 135.554 138.922C136.514 143.429 137.142 150.263 136.921 152.996C136.219 160.495 128.979 166.885 115.976 171.429C95.9179 178.41 64.4086 179.888 39.8807 174.938C18.9361 170.727 6.56133 162.822 5.67478 153.144C5.23151 148.268 6.63521 138.922 8.85158 131.904C13.3951 117.645 23.849 104.31 36.6301 96.4048C38.1076 95.5183 39.4744 94.7795 39.696 94.7795C39.9177 94.7795 42.4296 99.2122 45.237 104.605C48.7093 111.181 50.6671 114.579 51.2212 114.801C52.4402 115.392 53.4745 114.948 56.3188 112.658L58.8676 110.627L59.7542 112.4L60.6407 114.21L56.9098 132.827C54.8412 143.096 53.179 151.999 53.179 152.664C53.179 153.772 53.8439 154.437 61.7489 161.086C68.435 166.738 70.5036 168.289 71.3162 168.289C72.1289 168.289 74.1975 166.738 80.7728 161.16C88.0868 154.954 89.1949 153.846 89.3058 152.848C89.3796 152.22 87.7174 143.244 85.6857 132.938L81.9179 114.21L82.8044 112.4L83.691 110.627L86.2398 112.658C89.0841 114.948 90.1184 115.392 91.3374 114.838C91.8915 114.579 93.5908 111.698 96.3612 106.378C98.6884 101.909 101.053 97.4391 101.644 96.3679L102.752 94.447L105.744 96.294C107.406 97.3283 110.066 99.2122 111.728 100.468ZM75.3426 104.051C78.9627 106.896 79.1105 107.08 78.8888 108.189C78.778 108.816 78.4086 109.703 78.1131 110.183C77.559 111.033 77.4113 111.033 71.2793 111.033C65.1473 111.033 64.9996 111.033 64.4455 110.183C64.15 109.703 63.8175 108.816 63.6698 108.189C63.4481 107.117 63.6328 106.933 67.216 104.051C69.3215 102.389 71.1315 101.059 71.2793 101.059C71.4271 101.059 73.274 102.389 75.3426 104.051ZM80.4772 133.27C82.3611 142.69 83.9495 150.632 84.0604 150.927C84.1342 151.297 83.2108 152.331 81.5115 153.735C80.0709 154.991 77.1527 157.429 75.0841 159.165L71.3162 162.379L64.9257 156.986C59.865 152.738 58.5721 151.445 58.646 150.817C58.6829 150.373 60.2344 142.394 62.1183 133.086L65.4798 116.204H71.2793H77.0788L80.4772 133.27Z" fill="white"/>
</svg>
