<svg width="195" height="194" viewBox="0 0 195 194" fill="none" xmlns="http://www.w3.org/2000/svg">
<g clipPath="url(#clip0_1543_4796)">
<path d="M91.7594 0.598129C91.1545 0.673737 88.9996 0.938385 87.0337 1.16522C82.497 1.6945 74.3309 3.77383 69.8698 5.51291C51.7607 12.696 37.5079 25.8903 28.9638 43.281C15.278 71.2196 20.0037 104.149 42.6495 138.854C53.8023 155.867 71.5332 175.526 88.2813 189.363C92.6668 192.955 93.6119 193.522 96.1071 193.824C100.001 194.278 102.307 192.955 112.364 184.486C118.488 179.307 131.947 165.961 137.089 159.912C157.164 136.435 168.543 113.676 172.286 89.7823C173.118 84.4139 173.42 74.0173 172.891 68.9891C169.148 34.132 143.024 6.60927 108.659 1.27864C105.067 0.749359 93.99 0.257874 91.7594 0.598129ZM103.215 19.6901C110.398 20.4462 116.56 22.2987 123.025 25.5879C128.582 28.4233 133.006 31.6368 137.505 36.0979C145.595 44.2262 150.774 53.7911 153.232 65.3975C154.479 71.144 154.479 82.0321 153.232 89.0262C149.716 108.95 139.092 128.987 121.399 149.1C116.56 154.582 106.882 164.222 101.438 168.948L97.5059 172.351L95.1998 170.385C91.3057 167.095 77.9981 153.561 73.915 148.76C59.5488 131.936 49.9082 116.171 44.691 101.049C37.1298 79.2723 39.247 59.6888 50.8534 43.2054C53.7644 39.0846 59.8134 33.0356 63.8586 30.1246C75.3138 21.9585 89.5289 18.1779 103.215 19.6901Z" fill="white"/>
<path d="M90.5874 37.6117C80.9846 39.3508 72.7808 44.1143 66.8452 51.3731C52.2143 69.2553 56.0327 95.9463 75.0869 108.952C78.1492 111.069 83.6311 113.564 87.2226 114.547C93.3094 116.172 103.555 115.946 107.902 114.093C114.745 111.182 115.426 101.504 109.037 97.6853C106.655 96.2487 104.538 95.8707 101.816 96.3999C98.9047 96.9292 94.7082 96.8536 92.213 96.2109C85.0299 94.3584 79.0565 88.3095 77.3931 81.2398C75.7296 74.1322 77.6955 67.1759 82.8749 61.9587C91.0032 53.717 104.122 53.9061 112.137 62.3746C116.258 66.7601 117.656 70.5785 117.656 77.5348C117.656 81.4666 117.77 82.0715 118.639 83.8484C122.08 90.7291 131.531 90.9559 135.236 84.2264C136.37 82.2227 136.37 82.1849 136.37 75.9847C136.333 70.6541 136.219 69.2931 135.463 66.5332C131.304 51.3731 119.169 40.2203 104.084 37.6495C99.8876 36.9312 94.368 36.9312 90.5874 37.6117Z" fill="white"/>
</g>
<defs>
<clipPath id="clip0_1543_4796">
<rect width="193.566" height="193.566" fill="white" transform="translate(0.458984 0.367188)"/>
</clipPath>
</defs>
</svg>
