<svg width="195" height="183" viewBox="0 0 195 183" fill="none" xmlns="http://www.w3.org/2000/svg">
<path d="M12.2328 182.03H2.90681C1.57001 182.03 0.486328 180.773 0.486328 179.207V174.468C0.486328 172.91 1.57001 171.645 2.90681 171.645H12.2328V173.448H2.0367V180.219H12.2328V182.023V182.03Z" fill="white"/>
<path d="M27.9813 173.456H22.9426V182.038H21.3922V173.456H16.3535V171.652H27.9734V173.456H27.9813Z" fill="white"/>
<path d="M43.9925 179.214C43.9925 180.773 42.9088 182.038 41.572 182.038H34.6666C33.3298 182.038 32.2461 180.781 32.2461 179.214V174.476C32.2461 172.918 33.3298 171.652 34.6666 171.652H41.572C42.9088 171.652 43.9925 172.91 43.9925 174.476V179.214ZM42.4422 180.227V173.456H33.7965V180.227H42.4422Z" fill="white"/>
<path d="M63.7442 182.029H62.2096V172.679L57.8828 181.182C57.5743 181.783 57.0285 182.195 56.3799 182.195C55.7313 182.195 55.1855 181.783 54.877 181.182L50.566 172.679V182.029H49.0156V173.502C49.0156 172.37 49.7908 171.469 50.7558 171.469C51.4203 171.469 51.9661 171.904 52.2904 172.521L56.372 180.589L60.4694 172.521C60.7779 171.904 61.3395 171.469 61.9881 171.469C62.9531 171.469 63.7283 172.37 63.7283 173.502V182.029H63.7442Z" fill="white"/>
<path d="M80.3786 182.03H70.6334C69.2966 182.03 68.2129 180.773 68.2129 179.207V178.756C68.2129 177.197 69.2966 175.932 70.6334 175.932H78.8282V173.448H68.6321V171.645H77.9581C79.2949 171.645 80.3786 172.902 80.3786 174.468V182.03ZM78.8282 180.227V177.743H69.7553V180.227H78.8282Z" fill="white"/>
<path d="M96.2528 173.456H91.2141V182.038H89.6637V173.456H84.625V171.652H96.2449V173.456H96.2528Z" fill="white"/>
<path d="M112.264 179.214C112.264 180.773 111.18 182.038 109.844 182.038H102.938C101.601 182.038 100.518 180.781 100.518 179.214V174.476C100.518 172.918 101.601 171.652 102.938 171.652H109.844C111.18 171.652 112.264 172.91 112.264 174.476V179.214ZM110.714 180.227V173.456H102.068V180.227H110.714Z" fill="white"/>
<path d="M115.783 182.029L121.629 172.529C122.001 171.927 122.578 171.477 123.274 171.477C123.97 171.477 124.548 171.927 124.919 172.529L130.741 182.029H128.787L123.25 172.869L117.729 182.029H115.775H115.783Z" fill="white"/>
<path d="M146.133 179.214C146.133 180.773 145.049 182.038 143.713 182.038H136.807C135.47 182.038 134.387 180.781 134.387 179.214V174.476C134.387 172.918 135.47 171.652 136.807 171.652H143.713C145.049 171.652 146.133 172.91 146.133 174.476V179.214ZM144.583 180.227V173.456H135.937V180.227H144.583Z" fill="white"/>
<path d="M151.164 174.468C151.164 172.91 152.248 171.645 153.585 171.645H160.585V173.448H152.707V182.03H151.156V174.468H151.164Z" fill="white"/>
<path d="M166.914 180.731L174.223 172.078C174.547 171.698 174.982 171.477 175.464 171.477C176.429 171.477 177.205 172.378 177.205 173.509V182.036H175.654V172.948L168.345 181.601C168.021 181.981 167.586 182.203 167.103 182.203C166.138 182.203 165.363 181.301 165.363 180.17V171.643H166.914V180.731Z" fill="white"/>
<path d="M183.233 177.973C182.64 177.593 182.252 176.921 182.252 176.05V174.468C182.252 172.91 183.336 171.645 184.672 171.645H193.998V182.03H192.448V178.866H183.802V182.03H182.252V179.887C182.252 179.025 182.64 178.344 183.233 177.965V177.973ZM192.448 173.456H183.802V177.071H192.448V173.456Z" fill="white"/>
<path d="M24.2882 140.449V160.414C23.3706 161.957 18.6483 163.602 12.9689 163.42C9.33817 163.301 3.95142 162.558 1.6496 160.303H4.84526C6.6092 161.719 10.3823 162.249 12.9689 162.336C17.3352 162.487 20.871 161.292 21.0925 160.414V156.143C14.187 158.721 4.78198 157.432 1.97391 152.995C1.12753 151.65 0.763672 150.353 0.763672 149.134V142.015L3.95933 140.457V148.415C3.95933 152.196 6.1346 155.637 11.0784 156.348C13.5068 156.696 16.3307 156.42 19.1466 155.431C19.1229 155.439 20.0247 154.988 21.0925 154.316V142.023L24.2882 140.457V140.449Z" fill="white" stroke="white" strokeWidth="0.423405" strokeMiterlimit="10"/>
<path d="M53.8237 161.418V141.666C46.317 141.824 37.7504 145.954 36.4769 161.418H33.2812C35.3537 143.691 46.3091 140.693 53.8237 140.535H57.0193V161.418H53.8237Z" fill="white" stroke="white" strokeWidth="0.423405" strokeMiterlimit="10"/>
<path d="M89.6326 148.912C93.5639 155.137 87.1014 160.421 82.1734 161.117C77.6805 161.758 72.4283 161.671 67.3184 159.234V142.117L70.514 140.551V145.748C77.4195 143.169 86.8246 144.458 89.6326 148.896V148.912ZM80.5282 145.558C78.0998 145.21 75.2759 145.487 72.4599 146.475C72.4836 146.467 71.5819 146.918 70.514 147.591V159.242C74.2871 160.69 86.9828 162.216 87.5365 153.492C87.7896 149.576 85.4719 146.27 80.5202 145.558H80.5282ZM95.6205 140.559V161.457H92.4249V142.117L95.6205 140.559Z" fill="white" stroke="white" strokeWidth="0.423405" strokeMiterlimit="10"/>
<path d="M128.456 158.008C125.608 161.567 113.158 162.461 106.062 160.286V140.59H127.776V142.789H109.258V148.595C113.071 147.812 116.828 147.867 120.174 148.247C125.102 148.8 132.387 153.096 128.456 158.008ZM125.537 154.274C124.145 148.223 113.735 148.761 109.258 149.789V159.677C110.888 160.08 114.004 160.318 116.14 160.31C122.689 160.286 126.344 157.755 125.545 154.274H125.537Z" fill="white" stroke="white" strokeWidth="0.423405" strokeMiterlimit="10"/>
<path d="M162.523 161.418H160.198C158.766 153.041 156.614 151.332 155.27 149.442H141.981V161.418H138.785V142.109L141.981 140.543V148.279H155.27C156.923 146.8 159.122 143.501 159.984 140.543H162.523C161.02 144.925 158.212 147.417 156.013 148.943C158.125 150.937 161.796 155.382 162.523 161.418Z" fill="white" stroke="white" strokeWidth="0.423405" strokeMiterlimit="10"/>
<path d="M190.351 160.808L188.666 157.518C186.111 153.705 178.802 153.618 174.389 155.034L171.343 160.808H169.959L180.44 141.484L183.224 139.926L193.737 160.808H190.359H190.351ZM186.799 153.887L180.978 142.536L175.101 153.689C177.26 153.033 180.218 152.946 182.56 153.08C184.181 153.175 185.55 153.428 186.799 153.887Z" fill="white" stroke="white" strokeWidth="0.423405" strokeMiterlimit="10"/>
<path d="M73.9558 111.623C73.9558 111.623 77.9583 113.411 78.8837 110.666C79.9279 107.55 79.4058 98.3422 79.0736 93.881C78.8204 90.4796 76.8034 87.4343 73.7343 85.9551C73.6868 85.9314 73.6394 85.9076 73.5919 85.8918C69.6131 84.0171 62.9133 79.3265 61.1019 77.5388C60.9516 77.3885 60.5324 76.993 60.2793 76.7082C59.3617 75.6958 60.3188 74.0188 61.6319 74.3906C61.8217 74.446 62.0116 74.5409 62.1856 74.6754C62.3675 74.8177 64.3925 77.1037 64.3925 77.1037C66.9712 79.7062 69.4075 81.0429 69.5657 81.1458C70.42 81.739 73.7897 83.9618 73.8846 81.9368C73.9004 81.652 71.2031 75.7511 69.2493 71.804C67.1215 67.5168 64.2659 58.262 64.171 53.2154C64.1631 52.7329 64.3767 52.2662 64.7485 51.9498C65.2231 51.5384 65.6581 51.7204 65.7135 52.3374C66.0062 55.5805 66.4966 58.1275 67.1531 60.8723C67.2006 61.0621 67.9995 64.0442 68.6323 65.6262C69.0832 66.7416 69.6211 68.0784 69.6211 68.0784C70.5624 69.874 72.3184 66.0297 72.3263 65.9901C72.3263 65.9901 75.2926 59.488 74.3196 49.466C74.2643 48.8965 74.6914 48.4219 75.2688 48.4219H75.3796C76.1864 48.4219 76.8192 49.11 76.7401 49.909C76.4395 53.1995 75.696 60.9119 75.1423 62.478C75.1185 62.5492 74.3434 67.3823 71.7093 70.6729C71.4008 71.0605 71.3375 71.5825 71.5353 72.0334C72.8958 75.1341 78.0927 86.6749 80.2364 87.7507C82.2692 88.7632 92.4337 75.1974 96.0644 70.2299C96.6655 69.4152 97.9074 69.5101 98.382 70.4039L98.5086 70.6412C98.7617 71.1237 98.7063 71.7012 98.3662 72.1283C96.0011 75.0946 86.5248 86.2161 84.4841 88.0987C81.9607 90.4401 82.2139 92.0775 82.1822 92.6154L81.85 109.828C81.8342 110.808 82.0161 111.789 82.4591 112.667C82.8467 113.427 84.6818 114.51 85.5519 114.669C86.5802 114.858 83.3134 114.89 79.9832 114.044C76.9932 113.276 73.9558 111.631 73.9558 111.631V111.623Z" fill="white"/>
<path d="M116.916 113.135C116.916 113.135 115.192 113.871 114.44 109.797C113.894 106.823 114.266 91.9599 114.401 87.3404C114.456 85.355 114.867 83.3854 115.698 81.574C116.497 79.8259 117.794 77.9354 119.874 76.6618C124.193 74.0199 131.573 67.6839 133.005 66.1415C135.252 63.7131 134.769 61.6644 134.769 61.6644C134.002 60.288 131.439 63.6498 131.439 63.6498C130.561 64.686 127.966 67.4545 125.712 69.3767C125.712 69.3767 123.307 71.3858 122.683 71.8763C122.366 72.1294 119.922 74.3758 119.107 73.0786C118.561 72.2085 122.406 65.216 124.265 61.4429C126.986 55.9059 131.02 54.2843 133.29 47.1652C136.145 38.1952 135.6 33.6944 133.82 32.1915C132.902 31.4163 131.637 31.9542 131.55 32.8639C131.336 34.9679 133.369 34.9679 131.874 43.5662C130.751 50.005 127.911 53.7701 126.052 55.2572C123.98 56.9104 119.36 44.7369 118.767 41.47C117.414 34.0504 118.83 29.9213 117.794 27.5641C117.541 26.9867 117.248 26.6782 116.75 27.0579C116.592 27.1844 116.608 27.3506 116.536 27.5167C115.674 29.4863 114.48 35.5691 117.549 44.9188C117.549 44.9188 119.352 51.492 122.698 56.3963C123.26 57.2189 121.314 61.1898 121.275 61.4666C121.069 62.9537 114.314 77.8958 112.763 78.4653C111.482 78.932 105.375 75.2143 101.8 69.084C98.7942 63.9267 97.7105 57.741 97.141 55.3047C97.0065 54.7193 96.35 54.4188 95.8121 54.7035L95.3375 54.9487C94.9657 55.1465 94.768 55.5736 94.8708 55.985C95.3138 57.7805 96.5556 64.6227 99.7434 70.0016C102.741 75.064 107.867 78.5286 108.698 79.6281C109.742 81.0124 109.805 81.2655 110.169 82.2701C110.778 83.9312 111.063 85.6951 111.094 87.4591C111.181 92.8696 111.442 108.713 111.419 110.011C111.355 112.969 110.303 114.124 108.46 114.567C108.46 114.567 110.05 114.907 112.629 114.448C114.828 114.061 116.924 113.127 116.924 113.127L116.916 113.135Z" fill="white"/>
<path d="M149.877 27.3966C149.821 29.7854 149.497 32.4273 148.73 35.1959C148.366 36.5168 147.844 37.7904 147.227 39.0085C146.641 40.1634 145.771 41.8878 144.767 43.9128C144.632 44.1896 144.49 44.4665 144.347 44.7591C142.726 48.0497 140.835 51.981 139.269 55.4773C137.173 60.1679 135.892 65.0722 135.472 70.0634C135.298 72.1279 135.148 74.5959 135.077 77.4751C135.069 77.926 135.053 78.3769 135.045 78.8515C135.045 79.6741 135.029 80.5205 135.029 81.3985C135.029 84.1275 134.745 86.7299 134.294 89.1108C133.898 91.1991 133.384 93.1291 132.823 94.8535C132.823 94.8535 132.823 94.8535 132.823 94.8614C131.691 98.3735 130.378 101.047 129.564 102.534C129.564 102.534 129.556 102.55 129.548 102.566C126.447 107.494 121.78 111.338 116.243 113.403C114.756 113.956 113.213 114.376 111.616 114.66C109.741 114.993 107.803 114.629 106.166 113.656C106.158 113.656 106.15 113.648 106.142 113.64C104.829 112.627 103.832 111.132 103.168 109.258C102.764 108.111 102.48 106.829 102.313 105.421C102.234 104.717 102.155 102.716 102.155 101.308C102.155 100.778 102.139 100.256 102.116 99.7498C101.783 93.3585 99.4421 88.4147 96.6024 88.4147C93.7627 88.4147 91.4213 93.3664 91.0891 99.7498C91.0653 100.264 91.0495 100.778 91.0495 101.308C91.0495 102.708 90.9704 104.717 90.8913 105.421C90.7252 106.829 90.4404 108.111 90.037 109.258C89.3726 111.132 88.3759 112.627 87.0628 113.64C87.0549 113.64 87.047 113.648 87.0391 113.656C85.4096 114.629 83.4796 114.993 81.6049 114.668C79.9992 114.391 78.4488 113.964 76.9617 113.411C71.4246 111.354 66.7577 107.51 63.657 102.574C63.657 102.566 63.6411 102.55 63.6411 102.542C62.8264 101.055 61.5133 98.3735 60.3822 94.8693C60.3822 94.8693 60.3822 94.8693 60.3822 94.8614C59.8206 93.137 59.3064 91.207 58.9109 89.1266C58.4601 86.7378 58.1753 84.1354 58.1753 81.4064C58.1753 80.5284 58.1674 79.682 58.1595 78.8594C58.1595 78.3848 58.1437 77.926 58.1278 77.483C58.0567 74.6038 57.9064 72.1358 57.7323 70.0713C57.3131 65.0801 56.0317 60.1758 53.9355 55.4852C52.3693 51.9889 50.4788 48.0655 48.8573 44.7749C48.7149 44.4823 48.5804 44.2054 48.438 43.9286C47.4334 41.9036 46.5633 40.1792 45.978 39.0243C45.361 37.8062 44.831 36.5248 44.4751 35.2117C43.7078 32.4432 43.3835 29.8091 43.3281 27.4124C43.7394 13.4037 54.9638 2.1081 68.9409 1.57812H69.0595C70.689 1.61768 72.3264 1.74424 73.948 1.93408C75.6882 2.13974 77.4046 2.56688 79.0104 3.27879C79.0183 3.27879 79.0341 3.2867 79.042 3.29461C80.1336 3.78503 81.2568 4.22799 82.4038 4.6235C86.8572 6.18969 91.6507 7.03606 96.6419 7.03606C101.633 7.03606 106.419 6.18969 110.88 4.6235C112.027 4.22799 113.142 3.78503 114.242 3.29461C114.25 3.29461 114.266 3.2867 114.273 3.27879C115.879 2.56688 117.588 2.13183 119.336 1.93408C120.957 1.74424 122.595 1.61768 124.224 1.57812H124.343C138.32 2.1081 149.536 13.3958 149.956 27.4124L149.877 27.3966Z" stroke="white" strokeWidth="2.48615" strokeMiterlimit="10"/>
</svg>
