<svg width="202" height="202" viewBox="0 0 202 202" fill="none" xmlns="http://www.w3.org/2000/svg">
<g clipPath="url(#clip0_1414_7251)">
<path d="M55.401 19.0973C17.1131 35.1029 10.1303 38.1628 9.81649 38.9474C9.22805 40.4381 9.38497 66.0941 9.97341 67.2709C10.4442 68.2124 10.6795 68.2517 14.0925 68.3694L17.7016 68.487V75.313C17.7016 83.355 17.7016 83.355 21.2715 83.355H23.586V90.2201C23.586 98.2621 23.3506 97.8698 28.2543 97.8698H31.4319V123.173V148.476H28.1366C23.4291 148.476 23.586 148.24 23.586 156.361V162.991H21.3107C17.7408 162.991 17.7016 163.108 17.7016 171.15V177.898H11.6603C5.8151 177.898 5.57972 177.937 4.99128 178.761C4.04978 180.055 4.04978 198.885 4.99128 200.18L5.57972 201.043H101.26H196.94L197.529 200.18C198.078 199.435 198.157 197.708 198.157 189.392C198.157 176.878 198.823 177.898 190.703 177.898H184.819V171.307C184.819 163.226 184.74 162.991 181.249 162.991H178.934V156.4C178.934 148.436 178.934 148.476 174.894 148.476H172.265V123.173V97.8698H174.972C178.973 97.8698 178.934 97.9875 178.934 89.9847V83.355H181.209C184.779 83.355 184.819 83.2373 184.819 75.1953V68.487L188.428 68.3694C191.841 68.2517 192.076 68.2124 192.547 67.2709C193.135 66.0941 193.292 40.4381 192.704 38.9474C192.429 38.1628 185.25 35.0637 147.511 19.2935C122.836 8.97615 102.202 0.463394 101.652 0.345703C100.985 0.228012 86.7844 5.99472 55.401 19.0973ZM145.236 22.628L188.741 40.7127V52.6384V64.5249H101.064H13.3864V52.7953C13.3864 44.7925 13.504 40.9481 13.8179 40.7911C14.7594 40.2027 100.711 4.50401 101.182 4.50401C101.456 4.50401 121.267 12.6637 145.236 22.628ZM63.2076 73.9399V79.432H42.4161H21.6245V74.2145C21.6245 71.3116 21.7422 68.8401 21.8991 68.7224C22.0168 68.5655 31.3926 68.4478 42.6907 68.4478H63.2076V73.9399ZM135.39 75.1953C135.39 78.9221 135.586 82.2565 135.782 82.5704C136.017 82.9627 137.037 83.2373 138.606 83.355L141.078 83.5511L141.196 90.2201C141.274 95.9084 141.392 96.9675 141.941 97.3598C142.333 97.6737 143.863 97.8698 145.864 97.8698H149.12V123.173V148.476H145.942C141.039 148.476 141.274 148.083 141.274 156.125V162.991H139.038C135.429 162.991 135.39 163.069 135.39 171.111V177.898H101.26H67.1305V171.15C67.1305 163.108 67.0913 162.991 63.5214 162.991H61.2461V156.125C61.2461 148.201 61.4031 148.476 57.1663 148.476H54.5772V123.173V97.8698H57.2448C61.2854 97.8698 61.2069 98.0267 61.3246 90.2201L61.4423 83.5511L63.5999 83.4334C67.0913 83.2373 67.1305 83.1588 67.1305 75.2345V68.4478H101.26H135.39V75.1953ZM180.817 74.0184L180.935 79.432H160.104H139.313V73.9399V68.4478L160.026 68.5263L180.699 68.644L180.817 74.0184ZM57.3232 88.6509V93.9469H42.4161H27.5089V88.6509V83.355H42.4161H57.3232V88.6509ZM175.011 88.6509V93.9469H159.908H144.805V88.9255C144.805 86.1403 144.922 83.7473 145.079 83.6296C145.197 83.4727 152.023 83.355 160.183 83.355H175.011V88.6509ZM50.6542 123.173V148.476H43.0045H35.3548V123.173V97.8698H43.0045H50.6542V123.173ZM168.342 123.173V148.476H160.692H153.043V123.173V97.8698H160.692H168.342V123.173ZM57.3232 157.773V162.991H42.4161H27.5089V157.773V152.595H42.4161H57.3232V157.773ZM175.011 157.773V162.991H159.908H144.805V157.969C144.805 155.184 144.883 152.83 144.962 152.752C145.04 152.673 151.866 152.595 160.065 152.595H175.011V157.773ZM63.2076 172.484V177.898H42.4161H21.6245V172.484V167.11H42.4161H63.2076V172.484ZM180.896 172.484V177.898H160.104H139.313V172.484V167.11H160.104H180.896V172.484ZM194.234 189.47V197.12H101.26H8.28655V189.47V181.821H101.26H194.234V189.47Z" fill="white"/>
<path d="M95.3763 11.7602C88.7074 13.604 83.2153 18.1546 80.3123 24.3136C78.5862 27.8834 77.9978 30.5903 78.037 34.474C78.0762 38.593 78.5862 40.8683 80.5084 44.7913C83.2545 50.5188 88.7074 54.9909 95.1802 56.9131C98.3185 57.8154 104.203 57.8154 107.341 56.9131C118.561 53.6179 125.583 43.1829 124.367 31.6495C123.425 23.0582 117.227 15.2516 108.989 12.3486C105.772 11.211 98.5539 10.8971 95.3763 11.7602ZM106.4 15.6439C110.99 17.0561 115.226 20.1945 117.737 24.1174C121.582 30.0803 121.542 38.5538 117.737 44.4774C113.343 51.2641 105.694 54.834 98.2009 53.5394C92.7872 52.6371 87.7266 49.2634 84.7844 44.6736C81.0576 38.75 80.94 30.4726 84.549 24.3136C86.6674 20.7437 91.1788 17.1738 95.2587 15.8793C98.0047 14.977 103.889 14.8593 106.4 15.6439Z" fill="white"/>
<path d="M100.712 18.7049C100.358 19.1756 100.084 20.0387 100.045 20.5879C100.045 21.5294 100.005 21.5294 99.6916 20.7056C99.1424 19.3326 97.8478 18.8618 96.7101 19.6072C96.2002 19.921 95.7686 20.4702 95.7686 20.784C95.7686 21.1763 95.3763 21.3725 94.5525 21.3725C92.7872 21.3725 91.8457 22.0001 91.8457 23.2555C91.8457 24.7462 92.5126 25.2954 94.2779 25.2954H95.7686V28.826V32.3567H94.5525C92.7872 32.3567 91.8457 32.9844 91.8457 34.2397C91.8457 35.7304 92.5126 36.2796 94.2779 36.2796H95.7686V39.8103V43.3409H94.2779C92.5126 43.3409 91.8457 43.8901 91.8457 45.3024C91.8457 46.6754 92.5126 47.2638 94.1995 47.2638C95.2194 47.2638 95.6902 47.46 95.9648 48.1269C96.8278 50.0491 98.6324 50.0491 99.4954 48.1269C99.8485 47.3423 99.9269 47.4208 100.28 48.9115C100.751 50.7945 101.888 51.4614 103.183 50.5591C103.732 50.1668 104.007 49.5391 104.007 48.6761C104.007 47.4208 104.046 47.3423 105.929 47.1069C108.322 46.7931 111.303 44.8316 112.323 42.9486C113.775 40.1633 112.951 36.3581 110.48 34.4751L109.185 33.4943L109.97 31.6113C111.696 27.5315 109.695 23.4516 105.105 21.7648C104.203 21.4509 104.007 21.1371 104.007 20.0779C104.007 19.3718 103.811 18.5872 103.536 18.3126C102.791 17.5672 101.378 17.7634 100.712 18.7049ZM104.752 25.8446C105.89 26.4331 106.753 27.9238 106.753 29.2576C106.753 29.6891 106.243 30.5914 105.615 31.219C104.595 32.239 104.203 32.3567 102.085 32.3567H99.6916V28.826V25.2954H101.653C102.751 25.2954 104.124 25.5308 104.752 25.8446ZM106.478 36.6327C108.91 37.5742 109.852 40.2418 108.322 41.7717C107.106 42.9878 105.811 43.3409 102.595 43.3409H99.6916V39.8103V36.2796H102.595C104.203 36.2796 105.968 36.4365 106.478 36.6327Z" fill="white"/>
<path d="M96.3557 80.6484C89.6082 81.5115 81.88 84.6106 76.3095 88.7689C55.2041 104.461 52.968 135.138 71.5627 153.615C76.3879 158.362 81.1739 161.382 87.3722 163.618C113.617 172.994 141.43 155.38 144.49 127.41C145.863 115.013 141.195 102.068 132.054 92.9664C122.639 83.5122 109.537 79.0008 96.3557 80.6484ZM110.753 85.2775C125.621 89.0827 136.566 100.185 139.939 114.935C141.077 119.839 140.92 127.881 139.586 132.941C135.86 146.907 125.464 157.185 111.067 161.108C106.438 162.363 97.101 162.363 92.5504 161.108C85.6068 159.225 80.1147 156.165 75.1718 151.536C64.7368 141.689 60.6177 127.449 64.1484 113.483C67.9929 98.3409 80.5462 87.0428 96.3949 84.5321C99.8078 84.0222 107.222 84.3752 110.753 85.2775Z" fill="white"/>
<path d="M97.1408 91.0846C84.8228 92.8107 73.8386 102.618 70.5041 114.936C69.5234 118.584 69.288 125.293 69.9941 129.098C73.0933 145.3 87.2158 156.362 103.731 155.421C115.539 154.754 125.543 148.085 131.035 137.218C133.35 132.589 134.016 129.333 133.977 122.978C133.977 117.682 133.859 117.015 132.722 113.563C130.957 108.189 128.446 104.187 124.444 100.225C119.462 95.3606 114.363 92.6538 107.615 91.3593C104.908 90.8493 99.8477 90.7316 97.1408 91.0846ZM110.479 96.0668C116.089 97.9498 120.757 101.245 124.17 105.678C131.584 115.289 132.212 128.431 125.817 138.474C120.522 146.751 111.577 151.616 101.77 151.616C96.9839 151.616 93.4533 150.752 89.0988 148.634C85.9605 147.065 84.7836 146.202 81.8022 143.22C78.7423 140.161 77.9577 139.101 76.4277 135.924C74.0348 130.902 73.2502 127.215 73.4855 121.84C74.1132 108.856 83.0575 98.2636 95.964 95.2822C99.7692 94.4191 106.634 94.7722 110.479 96.0668Z" fill="white"/>
<path d="M100.357 99.1255C99.9259 99.4786 99.6905 100.342 99.612 101.989C99.4944 104.029 99.3767 104.343 98.7098 104.343C98.1213 104.343 97.886 104.029 97.8075 103.166C97.6114 101.675 97.0621 101.008 95.9637 101.008C94.8653 101.008 94.3161 101.675 94.1199 103.166C94.0023 104.304 93.9238 104.343 91.727 104.539C88.7455 104.814 87.8432 106.03 89.4909 107.677C90.0793 108.266 90.7854 108.462 92.2369 108.462H94.1984L94.1199 114.817L94.0023 121.212L91.727 121.329C89.7263 121.447 89.4124 121.565 89.0986 122.388C88.3925 124.311 89.6478 125.331 92.6685 125.331H94.1984L94.1199 131.686L94.0023 138.08L91.8446 138.198C88.8632 138.355 87.8432 139.767 89.4909 141.415C90.0793 142.003 90.7854 142.199 92.2369 142.199C94.1592 142.199 94.1984 142.239 94.1984 143.337C94.1984 144.475 95.0614 145.73 95.8068 145.73C96.9445 145.73 97.729 144.867 97.729 143.572C97.729 142.356 97.8467 142.199 98.7098 142.199C99.6513 142.199 99.6905 142.317 99.6905 144.475C99.6905 146.907 100.122 147.691 101.495 147.691C102.947 147.691 103.613 146.671 103.613 144.357V142.278L105.496 142.003C108.046 141.611 109.537 140.944 111.381 139.296C114.833 136.158 115.735 131.372 113.695 127.214C112.715 125.213 111.263 123.565 109.694 122.702C109.262 122.428 109.38 121.918 110.322 119.995C112.636 115.366 111.616 109.482 108.007 106.501C107.223 105.834 105.889 105.088 105.104 104.853L103.613 104.421V102.185C103.613 99.1647 102.162 97.7917 100.357 99.1255ZM105.026 109.207C107.615 110.777 108.517 115.602 106.791 118.426C105.379 120.662 104.633 121.015 100.985 121.015H97.729V114.739V108.462H100.789C103.064 108.462 104.123 108.658 105.026 109.207ZM107.968 126.272C111.773 128.861 111.577 134.903 107.576 137.217C106.516 137.845 105.496 138.002 102.123 138.041L97.9252 138.08L97.8075 131.686L97.729 125.331H102.123C106.203 125.331 106.673 125.409 107.968 126.272Z" fill="white"/>
</g>
<defs>
<clipPath id="clip0_1414_7251">
<rect width="200.854" height="200.854" fill="white" transform="translate(0.832031 0.1875)"/>
</clipPath>
</defs>
</svg>
