<svg width="289" height="196" viewBox="0 0 289 196" fill="none" xmlns="http://www.w3.org/2000/svg">
<g clipPath="url(#clip0_1414_7265)">
<path d="M128.268 7.14189C123.157 9.05145 119.563 12.3651 117.26 17.3637C116.025 20.1157 115.744 21.4636 115.744 24.9457C115.8 28.8772 116.305 30.7306 118.664 35.1675C118.777 35.3922 107.656 35.6168 93.9523 35.7291C69.7459 35.9538 68.9596 35.9538 65.4213 37.2455C54.4694 41.0647 45.8764 49.4892 42.0572 60.1041C40.2038 65.1588 39.586 71.73 39.586 87.0064V99.9241L37.1148 102.283C23.4109 115.201 18.637 138.115 26.4438 153.673C34.2505 169.23 52.8968 181.024 81.4279 188.382C139.95 203.49 213.861 195.739 247.447 170.915C252.558 167.152 258.568 160.637 261.32 156.031C264.914 149.966 266.037 145.866 266.318 138.396C266.88 125.085 262.724 113.572 254.131 104.529L249.638 99.7556V86.9503C249.638 79.8737 249.357 71.7861 249.076 68.9218C248.121 59.8233 244.751 52.6905 238.349 46.344C234.08 42.0756 230.037 39.4921 224.252 37.414L220.152 35.9538L195.271 35.7291C181.567 35.6168 170.447 35.3922 170.559 35.1675C173.592 29.4388 174.266 25.395 173.031 20.5088C170.896 12.0843 164.718 7.02957 156.125 6.52409C152.194 6.29944 151.071 6.46793 147.925 7.75969L144.275 9.21994L141.804 7.92818C138.715 6.41176 131.413 5.96246 128.268 7.14189ZM140.456 16.2966C144.893 19.891 146.016 25.9005 143.095 30.4498C141.411 32.9771 137.142 35.6168 134.615 35.6168C125.235 35.6168 120.125 24.7772 126.246 17.813C128.718 15.0048 130.739 14.2185 134.896 14.4431C137.816 14.5555 138.771 14.8925 140.456 16.2966ZM159.383 15.0609C161.854 16.0719 164.662 19.3855 165.392 22.2499C167.47 29.9443 159.664 37.5264 152.194 35.0552C150.621 34.5497 150.228 34.1566 150.565 33.4264C152.812 28.147 153.093 22.6992 151.408 18.2061C150.397 15.6226 150.397 15.3418 151.239 14.8363C152.643 14.05 157.305 14.1623 159.383 15.0609ZM219.59 44.3222C229.25 46.8495 236.552 53.7015 239.978 63.3616C241.325 67.1246 241.438 68.1355 241.662 82.064C241.831 93.1844 241.775 96.8351 241.269 96.8351C240.146 96.8351 237.675 95.3748 236.327 93.9146C233.743 91.1625 233.182 88.6914 232.845 78.3011C232.508 68.8095 232.395 68.3601 230.711 64.6534C227.116 57.0713 219.702 51.5111 211.446 50.2193C206.392 49.433 82.7196 49.433 77.7772 50.2755C69.5212 51.5672 62.5008 56.6781 58.794 64.1479L56.7721 68.3601L56.3789 78.2449C56.042 88.6914 55.4803 91.1625 52.8968 93.9146C51.5489 95.3748 49.0777 96.8351 47.9544 96.8351C47.4489 96.8351 47.3928 93.1844 47.5613 82.064C47.7859 68.1355 47.8982 67.1246 49.2462 63.3616C51.8858 55.8357 56.7721 50.107 63.3432 46.7934C70.0267 43.4235 66.0391 43.5359 144.331 43.5359C207.178 43.4797 216.67 43.592 219.59 44.3222ZM214.816 59.2617C218.355 60.9466 221.724 64.0917 223.409 67.3492C224.364 69.2588 224.645 71.056 224.982 79.4244C225.207 85.49 225.712 90.1516 226.217 91.6119C228.801 99.1939 234.754 104.305 242.336 105.54C247.11 106.327 253.794 114.92 256.714 124.074C258.455 129.522 259.073 138.171 258.118 143.058C255.086 157.379 239.921 169.848 215.49 178.048C195.328 184.787 172.75 187.988 145.173 188.045C122.764 188.101 107.488 186.528 89.5716 182.428C58.2323 175.183 38.6313 162.996 32.1724 146.821C31.1053 144.181 30.9369 142.721 30.9369 136.15C30.9369 129.466 31.1615 128.006 32.4533 124.074C34.3628 118.233 37.3957 113.122 41.2709 109.135C43.8545 106.495 44.8092 105.877 46.8873 105.54C53.0653 104.586 58.5131 100.654 61.4898 95.0378C63.3994 91.4995 63.3994 91.4995 63.7925 81.2778C64.1295 72.0669 64.3542 70.7752 65.5898 68.0793C67.9486 62.9684 72.6664 59.1493 77.9457 58.0822C79.2375 57.8576 109.903 57.6891 146.016 57.6891L211.727 57.8014L214.816 59.2617Z" fill="white"/>
</g>
<defs>
<clipPath id="clip0_1414_7265">
<rect width="288" height="195" fill="white" transform="translate(0.832031 0.859375)"/>
</clipPath>
</defs>
</svg>
