<svg width="187" height="187" viewBox="0 0 187 187" fill="none" xmlns="http://www.w3.org/2000/svg">
<g clipPath="url(#clip0_1414_7275)">
<path d="M97.4142 0.736496C94.5095 0.954346 89.9709 1.89836 87.393 2.80608C79.6229 5.56554 75.7016 7.67145 71.9255 11.3023C69.4928 13.6261 68.8029 14.6064 67.2417 17.6926C66.1161 20.0164 65.3173 22.1586 65.1358 23.5383C64.9542 24.7365 64.7001 30.6911 64.5911 36.791C64.4096 47.4657 64.4459 47.9741 65.2084 51.024C65.9346 53.8198 65.9709 54.2192 65.4989 54.2192C64.0828 54.2192 58.0919 55.018 55.4777 55.5263C51.3022 56.3614 45.1297 58.3947 41.1357 60.2827C38.0132 61.7714 37.3959 61.9166 34.7817 61.9892C32.2038 62.0255 31.5866 62.1708 29.5533 63.2963C25.051 65.729 19.2053 71.9741 13.6138 80.3251C7.15082 90.0195 3.41102 100.15 1.92237 111.95C1.45036 115.908 1.45036 124.694 1.92237 128.652C4.24612 147.242 13.287 162.855 27.1569 172.186C35.871 178.068 44.7303 181.772 54.933 183.805C61.287 185.076 65.4989 185.402 72.3249 185.185C79.4051 184.967 83.7984 184.132 88.1555 182.062L90.4066 181.009L91.4596 182.207C92.8756 183.805 93.8559 184.023 103.768 184.894C131.435 187.363 147.992 186.637 161.027 182.352C169.741 179.484 176.458 174.582 180.162 168.446C181.614 165.977 183.284 161.257 183.793 158.062C184.301 155.012 184.301 147.75 183.793 145.971C183.393 144.483 181.759 143.175 180.271 143.175C178.746 143.175 177.003 144.156 176.349 145.39C175.805 146.443 175.805 146.879 176.204 149.13C178.274 160.749 174.134 169.136 164.004 173.675C153.438 178.431 134.848 179.121 111.938 175.672C110.05 175.381 107.835 175.018 107.036 174.909C104.458 174.546 104.494 174.437 107.363 172.44C112.882 168.591 116.985 164.743 121.196 159.333C121.959 158.316 122.721 157.408 122.83 157.263C122.939 157.118 126.388 156.573 130.455 156.065C145.959 154.104 152.458 151.998 151.732 149.239C151.26 147.387 150.643 147.242 139.387 146.952C130.019 146.734 129.003 146.625 129.184 146.116C131 141.614 132.67 135.478 133.541 130.032C133.795 128.47 133.396 128.652 140.803 127.018C147.811 125.457 150.861 124.222 151.587 122.625C151.95 121.826 151.877 121.608 151.078 120.809C149.844 119.575 148.428 119.284 140.621 118.849C136.954 118.631 133.904 118.413 133.868 118.377C133.795 118.34 133.578 116.815 133.36 115.036C132.815 110.861 131.69 105.632 130.782 102.982C130.419 101.856 130.092 100.803 130.092 100.622C130.092 100.476 130.746 100.331 131.508 100.331C133.832 100.331 141.638 99.2419 144.979 98.4794C150.824 97.0997 153.003 95.5747 151.768 93.6867C150.897 92.3433 149.771 92.0891 143.163 91.6171C136.628 91.1814 129.91 90.4189 126.897 89.7654C125.227 89.4386 125.081 89.2933 123.375 86.425C119.78 80.5793 113.971 73.7895 108.706 69.3962L106.746 67.7623L109.614 67.9075C111.175 68.0165 116.331 68.4885 121.015 68.9605C143.09 71.2479 151.732 70.8848 155.327 67.5081C156.416 66.4552 156.597 66.0558 156.597 64.6761C156.597 62.5339 155.435 60.8273 153.33 59.7381C151.187 58.6851 147.448 58.6851 141.348 59.7381C137.281 60.4279 135.72 60.5006 126.098 60.4279C110.05 60.2827 97.632 59.7744 94.7636 59.1208C87.4656 57.4869 82.6002 54.2918 77.626 47.8288C75.4474 44.9968 75.2659 44.5974 73.8498 39.6594C72.6154 35.266 71.5261 30.2554 71.8166 30.2554C71.8529 30.2554 72.6154 30.6548 73.4868 31.1268C78.57 33.9589 93.6744 37.6987 105.838 39.2237C113.027 40.0951 128.531 40.0951 136.083 39.1874C145.632 38.0618 151.405 36.5732 153.221 34.7577C154.346 33.6321 154.274 33.2691 152.603 31.6352L151.115 30.2554H139.968C116.367 30.2554 97.5594 27.8591 82.7092 22.9211C79.7319 21.9408 77.1176 20.9967 76.9724 20.8515C76.5004 20.3795 80.2402 16.6034 83.0359 14.7153C86.2311 12.5731 90.1524 10.9029 94.8363 9.66843C97.8499 8.83333 99.2296 8.7244 105.221 8.61546C109.033 8.54285 118.255 8.2887 125.735 8.07085C140.694 7.63513 147.52 7.8893 154.854 9.23271C162.298 10.5761 168.579 13.1541 173.045 16.7486L175.151 18.4551L175.405 29.7108C175.768 45.6866 175.732 105.523 175.333 110.316C174.969 114.818 175.369 116.489 177.075 117.614C178.419 118.486 180.67 118.449 181.687 117.578C184.119 115.399 184.555 111.006 183.502 99.9681C182.703 91.2903 182.74 88.4946 184.192 59.6655C184.591 51.968 185.172 39.9499 185.535 32.9423L186.153 20.2343L185.354 18.9271C184.918 18.201 183.938 17.3296 183.175 17.0028C182.449 16.6397 180.597 15.1873 179.109 13.7713C170.504 5.60185 158.631 1.68051 140.767 1.02696C133.832 0.809113 99.5564 0.554947 97.4142 0.736496ZM77.517 62.2071C84.9966 63.7683 92.9482 67.254 98.9754 71.5384C102.86 74.3342 108.67 80.1436 111.466 84.1012C116.004 90.5641 119.708 99.3508 121.814 108.755C122.54 112.023 122.649 113.439 122.649 120.301C122.649 127.018 122.503 128.616 121.814 131.811C118.328 147.823 109.832 160.713 95.8892 171.242C93.6381 172.949 91.4232 174.8 91.0238 175.381C90.1524 176.543 89.2447 176.834 82.8907 177.85C77.989 178.649 68.9845 178.939 64.1917 178.431C48.8695 176.797 36.1251 170.879 26.0313 160.821C21.2386 156.029 18.1887 151.781 15.5381 146.298C6.71511 128.071 9.1841 106.286 22.2915 86.5702C26.5396 80.2162 28.2462 78.2555 31.6955 75.9317C38.0858 71.6473 38.8846 70.9575 39.756 69.1057C40.4822 67.5808 40.8816 67.2177 42.6244 66.4189C47.7439 64.0588 53.9527 62.2797 59.4716 61.5172C63.5382 60.9363 73.4141 61.3357 77.517 62.2071Z" fill="white"/>
<path d="M60.4518 86.7127C50.2127 89.0365 46.1099 96.7702 47.6348 110.858C48.3247 117.321 49.2687 119.354 51.9556 120.298C53.299 120.77 53.9525 120.734 58.2733 120.117C64.8451 119.173 68.5123 119.282 72.2158 120.443C75.7014 121.569 77.8436 123.021 79.2597 125.236C81.0388 128.068 81.4745 131.336 80.5305 135.003C79.1871 140.123 76.1734 144.153 72.0706 146.15C70.0736 147.13 69.2748 147.312 67.0963 147.312C62.6666 147.312 59.1447 145.097 53.7347 138.888C52.4276 137.436 51.0842 137.363 49.5229 138.67C47.8527 140.086 47.9979 141.394 50.1764 144.516C54.243 150.289 60.125 153.484 66.7332 153.484C70.3277 153.484 72.9057 152.903 76.1734 151.306C83.8346 147.675 88.6636 139.869 88.6999 131.155C88.7362 121.823 83.4352 115.288 73.0146 111.729C70.3641 110.858 64.4821 109.624 60.6696 109.224L58.5637 109.006V105.448C58.5637 101.599 58.9268 100.038 60.1976 98.2952C61.5047 96.5524 62.9571 96.2982 73.2687 95.9714C82.6364 95.6447 85.0328 95.3179 86.2673 94.2286C87.1387 93.4298 87.0297 92.7037 85.7952 91.0335C84.6334 89.3996 83.1084 88.8186 76.1734 87.2574C71.8164 86.2407 63.6106 85.9866 60.4518 86.7127Z" fill="white"/>
</g>
<defs>
<clipPath id="clip0_1414_7275">
<rect width="185.9" height="185.9" fill="white" transform="translate(0.832031 0.476562)"/>
</clipPath>
</defs>
</svg>
