<svg width="140" height="140" viewBox="0 0 140 140" fill="none" xmlns="http://www.w3.org/2000/svg">
<g clipPath="url(#clip0_2073_24875)">
<path d="M33.7107 1.20622C29.1838 1.74835 23.8437 3.51031 19.7777 5.81442C9.26012 11.8593 2.3207 22.3769 0.992455 34.3311C0.585848 37.9363 0.585848 102.668 0.992455 106.273C2.91706 123.703 16.6875 137.474 34.1173 139.398C37.7226 139.805 102.454 139.805 106.06 139.398C123.489 137.474 137.26 123.703 139.184 106.273C139.591 102.668 139.591 37.9363 139.184 34.3311C137.26 16.9012 123.489 3.13081 106.06 1.20622C102.861 0.853821 36.828 0.853821 33.7107 1.20622ZM108.879 9.90759C114.517 11.4527 118.854 13.9194 122.649 17.7415C126.471 21.5365 128.938 25.8737 130.51 31.5119L131.215 34.1142V70.3022V106.49L130.51 109.092C128.938 114.731 126.471 119.068 122.649 122.863C118.854 126.685 114.517 129.152 108.879 130.724L106.276 131.429H70.0884H33.9005L31.2982 130.724C25.6599 129.152 21.3228 126.685 17.5278 122.863C13.7057 119.068 11.2389 114.731 9.66672 109.092L8.96194 106.49V70.3022V34.1142L9.66672 31.5119C11.2389 25.8737 13.7057 21.5365 17.5007 17.7415C22.0005 13.2418 27.9369 10.26 34.1715 9.33835C35.0661 9.2028 51.6556 9.12149 71.0372 9.14859L106.276 9.1757L108.879 9.90759Z" fill="white"/>
<path d="M107.628 18.9891C101.014 19.9108 96.5139 26.3352 98.1132 32.5698C99.2246 36.9883 102.044 39.7803 106.435 40.9188C113.89 42.8163 121.208 36.0666 119.962 28.4495C119.284 24.1937 116.167 20.6156 112.1 19.3958C110.908 19.0434 108.712 18.8536 107.628 18.9891ZM110.664 27.6363C112.128 28.5579 112.372 30.8078 111.152 32.0819C110.149 33.1119 108.929 33.3559 107.682 32.7595C105.785 31.865 105.378 29.3712 106.896 27.9616C108.007 26.9044 109.308 26.796 110.664 27.6363Z" fill="white"/>
<path d="M64.8576 32.7662C49.8674 34.8263 37.2084 46.1028 33.3863 60.8762C30.025 73.8063 33.7929 87.4683 43.3617 97.0371C58.2706 111.946 81.908 111.946 96.8169 97.0371C111.726 82.1282 111.726 58.4908 96.8169 43.5819C88.251 35.0432 76.7847 31.1397 64.8576 32.7662ZM74.4264 40.8983C80.9321 41.8741 86.462 44.6662 91.0973 49.3015C102.78 60.9575 102.78 79.6614 91.0973 91.3175C79.4412 103.001 60.7373 103.001 49.0813 91.3175C37.3981 79.6614 37.3981 60.9575 49.0813 49.3015C55.8309 42.5518 65.1016 39.4616 74.4264 40.8983Z" fill="white"/>
</g>
<defs>
<clipPath id="clip0_2073_24875">
<rect width="138.788" height="138.788" fill="white" transform="translate(0.703125 0.898438)"/>
</clipPath>
</defs>
</svg>
