<svg width="400" height="69" viewBox="0 0 400 69" fill="none" xmlns="http://www.w3.org/2000/svg">
<g clipPath="url(#clip0_964_1786)">
<path d="M49.2238 1.53906H49.1539C48.1051 1.56506 47.0389 1.65172 45.9901 1.78171C45.0201 1.90304 44.0762 2.16302 43.1847 2.55299H43.1673C42.5118 2.8563 41.8388 3.11628 41.1484 3.35026C38.4741 4.2862 35.5988 4.78883 32.6011 4.78883C29.6034 4.78883 26.7281 4.2862 24.0538 3.35026C23.3634 3.11628 22.6904 2.84763 22.0349 2.56165H22.0175C21.126 2.16302 20.1821 1.89437 19.212 1.78171C18.1633 1.65172 17.1058 1.56506 16.0483 1.53906H15.9784C7.5884 1.85971 0.850177 8.57588 0.605469 16.9126C0.640427 18.3338 0.832698 19.9024 1.2959 21.5576C1.51439 22.3462 1.82901 23.1002 2.19607 23.8281C2.54566 24.5127 3.07003 25.544 3.67306 26.7486C3.75172 26.9132 3.83912 27.0779 3.92651 27.2512C4.89661 29.2097 6.03275 31.5495 6.97663 33.6294C8.23513 36.4199 9.00421 39.3403 9.25766 42.3128C9.36253 43.5433 9.44993 45.0079 9.49363 46.7238C9.49363 46.9924 9.51111 47.2611 9.51111 47.5384C9.51111 48.0237 9.51985 48.535 9.51985 49.0549C9.51985 50.6841 9.69464 52.2267 9.96557 53.6479C10.2015 54.8958 10.5074 56.0398 10.8483 57.071C11.53 59.1595 12.3165 60.7541 12.8059 61.638C12.8059 61.638 12.8059 61.6467 12.8147 61.6553C14.3354 64.0645 16.494 66.0317 19.0547 67.3403C19.1421 67.3663 21.4319 68.0769 21.9738 66.4823C22.603 64.6278 22.2884 59.1422 22.0874 56.4904C21.9388 54.4625 20.724 52.6513 18.8799 51.7674C18.8537 51.7501 18.8275 51.7414 18.7925 51.7241C16.4066 50.6061 12.3777 47.8157 11.294 46.7498C11.2066 46.6631 10.9531 46.4205 10.8046 46.2558C10.254 45.6492 10.8308 44.6526 11.6173 44.8779C11.731 44.9126 11.8446 44.9646 11.9495 45.0512C12.0631 45.1379 13.2691 46.4985 13.2691 46.4985C14.816 48.0497 16.2843 48.8383 16.3717 48.9076C16.8873 49.2629 18.9062 50.5802 18.9673 49.3842C18.9673 49.2109 17.3593 45.7012 16.1794 43.3527C14.9122 40.8135 13.1992 35.3453 13.1293 32.3295C13.1293 32.0782 13.208 31.8269 13.374 31.6362C13.6974 31.2722 14.012 31.3502 14.0557 31.7662C14.2305 33.6987 14.5276 35.2153 14.9209 36.8445C14.9471 36.9571 15.4278 38.7337 15.8124 39.6783C16.0833 40.3369 16.4066 41.1428 16.4066 41.1428C16.966 42.2088 18.0235 39.9209 18.0322 39.8949C18.0322 39.8949 19.8151 36.0299 19.2295 30.059C19.1946 29.721 19.4568 29.435 19.7976 29.435H19.8588C20.3395 29.435 20.724 29.8423 20.6803 30.319C20.5055 32.2775 20.0511 36.8705 19.7189 37.7977C19.7015 37.8411 19.2383 40.7182 17.6564 42.6767C17.4729 42.902 17.4292 43.214 17.5515 43.4827C18.373 45.3285 21.4843 52.2007 22.7778 52.8333C23.9926 53.4399 30.1016 45.3632 32.2777 42.4081C32.6361 41.9228 33.3877 41.9748 33.6673 42.5121L33.746 42.6507C33.8946 42.9367 33.8683 43.2834 33.6586 43.5347C32.2428 45.3025 26.5446 51.9234 25.3298 53.0413C23.8178 54.4365 23.9664 55.4071 23.9489 55.7278L23.7479 65.971C23.7392 66.5517 23.8528 67.1409 24.115 67.6609C24.1936 67.8082 24.3247 67.9469 24.4995 68.0855C25.1637 68.6142 26.1076 68.6922 26.8417 68.2589C26.8417 68.2589 26.8417 68.2589 26.8504 68.2589H26.8679V68.2502C27.6545 67.6522 28.2575 66.7596 28.6508 65.6417C28.8955 64.9571 29.0616 64.1945 29.1664 63.3539C29.2189 62.9379 29.2626 61.742 29.2626 60.9101C29.2626 60.5981 29.2713 60.2861 29.2888 59.9828C29.4898 56.1784 30.8969 53.232 32.6011 53.232C34.3053 53.232 35.7124 56.1784 35.9134 59.9828C35.9309 60.2861 35.9396 60.5981 35.9396 60.9101C35.9396 61.742 35.9833 62.9379 36.0358 63.3539C36.1319 64.1858 36.3067 64.9571 36.5514 65.6417C36.9534 66.7596 37.5477 67.6436 38.3343 68.2502C38.3343 68.2502 38.343 68.2502 38.3517 68.2502C38.3517 68.2502 38.3517 68.2502 38.3605 68.2502C39.6277 68.9955 41.262 68.1722 41.4543 66.7336C41.4805 66.5343 41.498 66.3177 41.498 66.0837C41.5155 65.3037 41.3582 55.8751 41.3057 52.66C41.2882 51.6027 41.1135 50.5628 40.7551 49.5662C40.5366 48.9683 40.4929 48.8209 39.8724 47.989C39.3743 47.3304 36.2979 45.2679 34.4976 42.2521C32.5836 39.0543 31.8408 34.9813 31.5698 33.9067C31.5086 33.6641 31.6223 33.4127 31.8495 33.2914L32.1292 33.1441C32.4525 32.9794 32.8458 33.1528 32.9245 33.4994C33.2653 34.9466 33.9208 38.6297 35.7211 41.7061C37.8711 45.3545 41.533 47.573 42.302 47.2957C43.2372 46.9578 47.2923 38.0664 47.4147 37.1825C47.4409 37.0178 48.6033 34.6606 48.2712 34.1667C46.2611 31.2462 45.1774 27.3292 45.1774 27.3292C43.3333 21.7656 44.0587 18.1432 44.5743 16.9733C44.6268 16.8606 44.6006 16.7393 44.7579 16.67C44.9327 16.5833 45.1511 16.6613 45.2473 16.8259C46.0338 18.1952 45.0725 20.6737 45.9202 25.2753C46.2785 27.2165 49.049 34.47 50.29 33.4821C51.4087 32.5981 53.1129 30.3536 53.7859 26.5232C54.686 21.4016 53.4625 21.4016 53.5936 20.1537C53.646 19.6164 54.4064 19.2958 54.957 19.7551C56.0232 20.6477 56.3553 23.3255 54.6336 28.6638C53.2702 32.9014 50.8494 33.872 49.215 37.1651C48.1051 39.4096 45.7979 43.578 46.1212 44.0893C46.6107 44.8606 48.0789 43.526 48.2712 43.3787C48.647 43.084 50.089 41.8881 50.089 41.8881C51.4349 40.7442 52.9993 39.0977 53.5237 38.4824C53.5237 38.4824 55.0618 36.4805 55.525 37.3038C55.525 37.3038 55.8134 38.5257 54.4675 39.9729C53.6111 40.8915 49.1801 44.6613 46.5844 46.2385C45.3347 47.0011 44.5569 48.1277 44.0762 49.1589C43.578 50.2335 43.3333 51.4034 43.2984 52.5907C43.2197 55.3378 42.9925 64.1858 43.3246 65.9537C43.7179 68.1029 44.5831 67.9989 44.7753 67.9556C47.9391 66.699 50.6046 64.4805 52.3963 61.6553L52.405 61.638C52.8944 60.7541 53.681 59.1595 54.3627 57.071C54.7035 56.0398 55.0094 54.8958 55.2454 53.6566C55.5163 52.2354 55.6911 50.6841 55.6911 49.0636C55.6911 48.5436 55.6911 48.0323 55.6998 47.547C55.6998 47.2611 55.7086 46.9924 55.7173 46.7238C55.761 45.0079 55.8484 43.5433 55.9533 42.3128C56.2067 39.3403 56.9758 36.4199 58.2343 33.6294C59.1782 31.5495 60.3056 29.2097 61.2844 27.2512C61.3718 27.0779 61.4505 26.9132 61.5379 26.7486C62.1409 25.544 62.6653 24.5214 63.0149 23.8281C63.3907 23.1002 63.7053 22.3462 63.915 21.5576C64.3782 19.9111 64.5705 18.3425 64.6055 16.9126C64.3608 8.57588 57.6225 1.85104 49.2325 1.53906H49.2238Z" fill="#1F3475"/>
<path d="M102.605 67.5225H87.5221C85.3549 67.5225 83.6055 65.5836 83.6055 63.1807V55.8809C83.6055 53.478 85.3549 51.5391 87.5221 51.5391H102.605V54.3231H86.1121V64.755H102.605V67.5391V67.5225Z" fill="#1F3475"/>
<path d="M128.597 54.3246H120.368V67.5391H117.834V54.3246H109.605V51.5391H128.605V54.3246H128.597Z" fill="#1F3475"/>
<path d="M154.605 63.1928C154.605 65.5982 152.856 67.5391 150.689 67.5391H139.522C137.355 67.5391 135.605 65.5982 135.605 63.1928V55.8854C135.605 53.48 137.355 51.5391 139.522 51.5391H150.689C152.856 51.5391 154.605 53.48 154.605 55.8854V63.1928ZM152.099 64.7604V54.3177H138.112V64.7604H152.099Z" fill="#1F3475"/>
<path d="M186.605 68.2662H184.105V53.4573L177.053 66.9277C176.553 67.8826 175.658 68.5391 174.605 68.5391C173.553 68.5391 172.658 67.8826 172.158 66.9277L165.132 53.4573V68.2662H162.605V54.7617C162.605 52.9714 163.869 51.5391 165.448 51.5391C166.527 51.5391 167.421 52.2211 167.948 53.2101L174.605 65.9984L181.29 53.2101C181.79 52.2296 182.711 51.5391 183.763 51.5391C185.342 51.5391 186.605 52.9714 186.605 54.7617V68.2662Z" fill="#1F3475"/>
<path d="M214.605 67.5391H198.586C196.383 67.5391 194.605 65.5982 194.605 63.1928V62.496C194.605 60.0906 196.383 58.1497 198.586 58.1497H212.058V54.326H195.295V51.5391H210.625C212.827 51.5391 214.605 53.48 214.605 55.8854V67.5391ZM212.058 64.7521V60.9284H197.153V64.7521H212.058Z" fill="#1F3475"/>
<path d="M239.597 54.3246H231.368V67.5391H228.834V54.3246H220.605V51.5391H239.605V54.3246H239.597Z" fill="#1F3475"/>
<path d="M265.605 63.1928C265.605 65.5982 263.856 67.5391 261.689 67.5391H250.522C248.355 67.5391 246.605 65.5982 246.605 63.1928V55.8854C246.605 53.48 248.355 51.5391 250.522 51.5391H261.689C263.856 51.5391 265.605 53.48 265.605 55.8854V63.1928ZM263.099 64.7604V54.3177H249.112V64.7604H263.099Z" fill="#1F3475"/>
<path d="M271.605 68.5391L280.976 53.2382C281.572 52.2673 282.504 51.5391 283.618 51.5391C284.732 51.5391 285.665 52.2673 286.261 53.2382L295.605 68.5391H292.471L283.593 53.7843L274.74 68.5391H271.605Z" fill="#1F3475"/>
<path d="M321.605 63.1928C321.605 65.5982 319.856 67.5391 317.689 67.5391H306.522C304.355 67.5391 302.605 65.5982 302.605 63.1928V55.8854C302.605 53.48 304.355 51.5391 306.522 51.5391H317.689C319.856 51.5391 321.605 53.48 321.605 55.8854V63.1928ZM319.099 64.7604V54.3177H305.112V64.7604H319.099Z" fill="#1F3475"/>
<path d="M329.605 55.8831C329.605 53.479 331.327 51.5391 333.46 51.5391H344.605V54.3246H332.073V67.5391H329.605V55.8914V55.8831Z" fill="#1F3475"/>
<path d="M355.092 66.2031L366.814 52.4939C367.332 51.8971 368.032 51.5391 368.809 51.5391C370.362 51.5391 371.605 52.9714 371.605 54.7617V68.2662H369.119V53.8751L357.396 67.5842C356.879 68.181 356.179 68.5391 355.402 68.5391C353.849 68.5391 352.605 67.1068 352.605 65.3164V51.8119H355.092V66.2031Z" fill="#1F3475"/>
<path d="M382.198 61.28C381.232 60.6997 380.605 59.6551 380.605 58.3204V55.8831C380.605 53.479 382.355 51.5391 384.522 51.5391H399.605V67.5391H397.099V62.6727H383.112V67.5391H380.605V64.2313C380.605 62.8966 381.232 61.852 382.198 61.2717V61.28ZM397.099 54.3246H383.112V59.8873H397.099V54.3246Z" fill="#1F3475"/>
<path d="M121.597 1.53906V33.6799C120.119 36.1583 112.488 38.8186 103.318 38.5153C97.4513 38.3247 88.7596 37.1288 85.0396 33.4893H90.2024C93.0533 35.7683 99.1462 36.6176 103.318 36.7649C110.367 37.0075 116.078 35.0838 116.434 33.6712V26.7907C105.283 30.9416 90.0895 28.8705 85.5611 21.7213C84.1878 19.5549 83.6055 17.4665 83.6055 15.4994V4.0521L88.7683 1.53906V14.3555C88.7683 20.4388 92.2798 25.9848 100.267 27.1287C104.196 27.692 108.742 27.2413 113.296 25.6555C113.253 25.6729 114.713 24.945 116.443 23.8617V4.06076L121.605 1.53906H121.597Z" fill="#1F3475" stroke="#1F3475" strokeWidth="2" strokeMiterlimit="10"/>
<path d="M170.352 35.5391V3.37927C158.016 3.63339 143.946 10.3545 141.859 35.5391H136.605C140.01 6.68288 158.007 1.80195 170.352 1.54783L175.605 1.53906V35.5391H170.352Z" fill="#1F3475" stroke="#1F3475" strokeWidth="2" strokeMiterlimit="10"/>
<path d="M228.877 15.1304C235.264 25.2539 224.765 33.8535 216.752 34.992C209.446 36.0253 200.908 35.894 192.605 31.9357V4.08744L197.802 1.53906V9.99862C209.027 5.80387 224.319 7.89687 228.877 15.1304ZM214.074 9.6746C210.12 9.10538 205.545 9.56076 200.96 11.1633C201.004 11.1458 199.534 11.8814 197.793 12.9761V31.9269C203.935 34.2826 224.564 36.7697 225.465 22.5741C225.868 16.2076 222.114 10.8218 214.066 9.66584L214.074 9.6746ZM238.605 1.53906V35.5349H233.409V4.07868L238.605 1.53906Z" fill="#1F3475" stroke="#1F3475" strokeWidth="2" strokeMiterlimit="10"/>
<path d="M291.795 29.9157C287.194 35.719 267.077 37.1655 255.605 33.6239V1.53906H290.69V5.1245H260.772V14.5834C266.929 13.3035 273.009 13.3999 278.41 14.0136C286.376 14.9165 298.144 21.912 291.795 29.9157ZM287.081 23.8319C284.828 13.9785 268.016 14.8464 260.772 16.5207V32.6333C263.407 33.2908 268.443 33.6852 271.887 33.6677C282.471 33.6239 288.377 29.5037 287.081 23.8319Z" fill="#1F3475" stroke="#1F3475" strokeWidth="2" strokeMiterlimit="10"/>
<path d="M347.605 35.5391H343.784C341.44 21.8917 337.902 19.1219 335.691 16.0366H313.86V35.5391H308.605V4.08972L313.86 1.53906V14.1433H335.691C338.406 11.7329 342.015 6.35989 343.43 1.53906H347.605C345.138 8.68266 340.511 12.7322 336.911 15.2215C340.388 18.4733 346.411 25.7133 347.605 35.5391Z" fill="#1F3475" stroke="#1F3475" strokeWidth="2" strokeMiterlimit="10"/>
<path d="M393.069 34.5391L390.297 29.1849C386.103 22.9808 374.112 22.8318 366.872 25.1365L361.875 34.5391H359.605L376.797 3.0803L381.361 0.539062L398.605 34.5391H393.069ZM387.242 23.2612L377.688 4.7803L368.046 22.937C371.596 21.8767 376.443 21.7277 380.284 21.938C382.951 22.087 385.185 22.5076 387.242 23.2525V23.2612Z" fill="#1F3475" stroke="#1F3475" strokeWidth="2" strokeMiterlimit="10"/>
</g>
<defs>
<clipPath id="clip0_964_1786">
<rect width="399" height="69" fill="white" transform="translate(0.605469 0.0078125)"/>
</clipPath>
</defs>
</svg>
