<svg width="400" height="69" viewBox="0 0 400 69" fill="none" xmlns="http://www.w3.org/2000/svg">
<g clipPath="url(#clip0_2343_8468)">
<path d="M49.1418 1.53125H49.0718C48.0231 1.55725 46.9569 1.64391 45.9081 1.7739C44.938 1.89522 43.9941 2.1552 43.1027 2.54518H43.0852C42.4298 2.84849 41.7568 3.10847 41.0664 3.34245C38.3921 4.27838 35.5167 4.78101 32.5191 4.78101C29.5214 4.78101 26.6461 4.27838 23.9718 3.34245C23.2813 3.10847 22.6084 2.83982 21.9529 2.55384H21.9354C21.044 2.1552 20.1001 1.88656 19.13 1.7739C18.0813 1.64391 17.0238 1.55725 15.9663 1.53125H15.8964C7.50637 1.85189 0.768146 8.56807 0.523438 16.9048C0.558396 18.326 0.750667 19.8946 1.21386 21.5498C1.43235 22.3384 1.74698 23.0923 2.11404 23.8203C2.46363 24.5049 2.988 25.5362 3.59103 26.7407C3.66969 26.9054 3.75708 27.0701 3.84448 27.2434C4.81457 29.2019 5.95072 31.5417 6.8946 33.6216C8.1531 36.412 8.92218 39.3325 9.17563 42.3049C9.2805 43.5355 9.3679 45.0001 9.4116 46.716C9.4116 46.9846 9.42908 47.2533 9.42908 47.5306C9.42908 48.0159 9.43782 48.5272 9.43782 49.0471C9.43782 50.6763 9.61261 52.2189 9.88354 53.6401C10.1195 54.888 10.4254 56.0319 10.7662 57.0632C11.4479 59.1517 12.2345 60.7463 12.7239 61.6302C12.7239 61.6302 12.7239 61.6389 12.7326 61.6475C14.2533 64.0567 16.412 66.0239 18.9727 67.3325C19.0601 67.3584 21.3499 68.0691 21.8917 66.4745C22.521 64.62 22.2064 59.1344 22.0053 56.4826C21.8568 54.4547 20.642 52.6435 18.7979 51.7596C18.7717 51.7423 18.7455 51.7336 18.7105 51.7163C16.3246 50.5983 12.2957 47.8079 11.212 46.742C11.1246 46.6553 10.8711 46.4126 10.7225 46.248C10.1719 45.6414 10.7488 44.6448 11.5353 44.8701C11.6489 44.9048 11.7625 44.9567 11.8674 45.0434C11.981 45.1301 13.1871 46.4906 13.1871 46.4906C14.734 48.0419 16.2023 48.8305 16.2897 48.8998C16.8053 49.2551 18.8241 50.5723 18.8853 49.3764C18.8853 49.2031 17.2772 45.6934 16.0974 43.3449C14.8301 40.8057 13.1172 35.3375 13.0473 32.3217C13.0473 32.0704 13.1259 31.819 13.292 31.6284C13.6153 31.2644 13.93 31.3424 13.9737 31.7584C14.1485 33.6909 14.4456 35.2075 14.8389 36.8367C14.8651 36.9493 15.3458 38.7259 15.7303 39.6705C16.0012 40.3291 16.3246 41.135 16.3246 41.135C16.8839 42.201 17.9414 39.9131 17.9502 39.8871C17.9502 39.8871 19.733 36.0221 19.1475 30.0512C19.1125 29.7132 19.3747 29.4272 19.7156 29.4272H19.7767C20.2574 29.4272 20.642 29.8345 20.5983 30.3112C20.4235 32.2697 19.969 36.8627 19.6369 37.7899C19.6194 37.8333 19.1562 40.7104 17.5744 42.6689C17.3908 42.8942 17.3471 43.2062 17.4695 43.4749C18.291 45.3207 21.4023 52.1929 22.6958 52.8255C23.9106 53.4321 30.0195 45.3554 32.1957 42.4003C32.554 41.915 33.3056 41.967 33.5853 42.5043L33.664 42.6429C33.8125 42.9289 33.7863 43.2755 33.5766 43.5269C32.1607 45.2947 26.4625 51.9156 25.2477 53.0335C23.7358 54.4287 23.8844 55.3993 23.8669 55.72L23.6659 65.9632C23.6571 66.5438 23.7707 67.1331 24.0329 67.6531C24.1116 67.8004 24.2427 67.9391 24.4175 68.0777C25.0817 68.6064 26.0256 68.6843 26.7597 68.251C26.7597 68.251 26.7597 68.251 26.7684 68.251H26.7859V68.2424C27.5725 67.6444 28.1755 66.7518 28.5688 65.6339C28.8135 64.9493 28.9795 64.1867 29.0844 63.3461C29.1368 62.9301 29.1805 61.7342 29.1805 60.9023C29.1805 60.5903 29.1893 60.2783 29.2068 59.975C29.4078 56.1706 30.8148 53.2241 32.5191 53.2241C34.2233 53.2241 35.6304 56.1706 35.8314 59.975C35.8489 60.2783 35.8576 60.5903 35.8576 60.9023C35.8576 61.7342 35.9013 62.9301 35.9537 63.3461C36.0499 64.178 36.2247 64.9493 36.4694 65.6339C36.8714 66.7518 37.4657 67.6358 38.2522 68.2424C38.2522 68.2424 38.261 68.2424 38.2697 68.2424C38.2697 68.2424 38.2697 68.2424 38.2785 68.2424C39.5457 68.9877 41.18 68.1644 41.3723 66.7258C41.3985 66.5265 41.416 66.3099 41.416 66.0759C41.4334 65.2959 41.2761 55.8673 41.2237 52.6522C41.2062 51.5949 41.0314 50.555 40.6731 49.5584C40.4546 48.9605 40.4109 48.8131 39.7904 47.9812C39.2922 47.3226 36.2159 45.2601 34.4156 42.2443C32.5016 39.0465 31.7587 34.9735 31.4878 33.8989C31.4266 33.6562 31.5402 33.4049 31.7675 33.2836L32.0471 33.1363C32.3705 32.9716 32.7638 33.1449 32.8424 33.4916C33.1833 34.9388 33.8387 38.6219 35.6391 41.6983C37.789 45.3467 41.4509 47.5652 42.22 47.2879C43.1551 46.9499 47.2103 38.0586 47.3327 37.1746C47.3589 37.01 48.5213 34.6528 48.1891 34.1589C46.179 31.2384 45.0953 27.3214 45.0953 27.3214C43.2513 21.7578 43.9767 18.1354 44.4923 16.9655C44.5447 16.8528 44.5185 16.7315 44.6758 16.6621C44.8506 16.5755 45.0691 16.6535 45.1652 16.8181C45.9518 18.1874 44.9905 20.6659 45.8382 25.2675C46.1965 27.2087 48.967 34.4622 50.208 33.4743C51.3267 32.5903 53.0309 30.3458 53.7038 26.5154C54.604 21.3938 53.3805 21.3938 53.5116 20.1459C53.564 19.6086 54.3243 19.288 54.8749 19.7473C55.9412 20.6399 56.2733 23.3177 54.5516 28.6559C53.1882 32.8936 50.7673 33.8642 49.133 37.1573C48.0231 39.4018 45.7158 43.5702 46.0392 44.0815C46.5286 44.8528 47.9969 43.5182 48.1891 43.3709C48.5649 43.0762 50.007 41.8803 50.007 41.8803C51.3529 40.7364 52.9173 39.0898 53.4416 38.4746C53.4416 38.4746 54.9798 36.4727 55.443 37.296C55.443 37.296 55.7314 38.5179 54.3855 39.9651C53.529 40.8837 49.0981 44.6534 46.5024 46.2307C45.2526 46.9933 44.4748 48.1199 43.9941 49.1511C43.496 50.2257 43.2513 51.3956 43.2163 52.5829C43.1377 55.33 42.9104 64.178 43.2425 65.9459C43.6358 68.0951 44.501 67.9911 44.6933 67.9477C47.857 66.6912 50.5226 64.4727 52.3142 61.6475L52.323 61.6302C52.8124 60.7463 53.5989 59.1517 54.2806 57.0632C54.6215 56.0319 54.9274 54.888 55.1633 53.6488C55.4343 52.2276 55.6091 50.6763 55.6091 49.0558C55.6091 48.5358 55.6091 48.0245 55.6178 47.5392C55.6178 47.2532 55.6265 46.9846 55.6353 46.716C55.679 45.0001 55.7664 43.5355 55.8712 42.3049C56.1247 39.3325 56.8938 36.412 58.1523 33.6216C59.0962 31.5417 60.2236 29.2019 61.2024 27.2434C61.2898 27.0701 61.3684 26.9054 61.4558 26.7407C62.0589 25.5362 62.5832 24.5136 62.9328 23.8203C63.3086 23.0923 63.6233 22.3384 63.833 21.5498C64.2962 19.9032 64.4885 18.3347 64.5234 16.9048C64.2787 8.56807 57.5405 1.84323 49.1505 1.53125H49.1418Z" fill="#1F3475"/>
<path d="M102.523 67.5147H87.4401C85.2729 67.5147 83.5234 65.5758 83.5234 63.1729V55.873C83.5234 53.4701 85.2729 51.5312 87.4401 51.5312H102.523V54.3153H86.0301V64.7472H102.523V67.5312V67.5147Z" fill="#1F3475"/>
<path d="M128.515 54.3167H120.286V67.5312H117.752V54.3167H109.523V51.5312H128.523V54.3167H128.515Z" fill="#1F3475"/>
<path d="M154.523 63.185C154.523 65.5903 152.774 67.5312 150.607 67.5312H139.44C137.273 67.5312 135.523 65.5903 135.523 63.185V55.8775C135.523 53.4722 137.273 51.5312 139.44 51.5312H150.607C152.774 51.5312 154.523 53.4722 154.523 55.8775V63.185ZM152.017 64.7526V54.3099H138.03V64.7526H152.017Z" fill="#1F3475"/>
<path d="M186.523 68.2584H184.023V53.4495L176.971 66.9199C176.471 67.8748 175.576 68.5312 174.523 68.5312C173.471 68.5312 172.576 67.8748 172.076 66.9199L165.05 53.4495V68.2584H162.523V54.7539C162.523 52.9635 163.787 51.5312 165.366 51.5312C166.444 51.5312 167.339 52.2133 167.866 53.2023L174.523 65.9906L181.208 53.2023C181.708 52.2218 182.629 51.5312 183.681 51.5312C185.26 51.5312 186.523 52.9635 186.523 54.7539V68.2584Z" fill="#1F3475"/>
<path d="M214.523 67.5312H198.504C196.301 67.5312 194.523 65.5903 194.523 63.185V62.4882C194.523 60.0828 196.301 58.1419 198.504 58.1419H211.976V54.3182H195.213V51.5312H210.543C212.745 51.5312 214.523 53.4722 214.523 55.8775V67.5312ZM211.976 64.7443V60.9206H197.071V64.7443H211.976Z" fill="#1F3475"/>
<path d="M239.515 54.3167H231.286V67.5312H228.752V54.3167H220.523V51.5312H239.523V54.3167H239.515Z" fill="#1F3475"/>
<path d="M265.523 63.185C265.523 65.5903 263.774 67.5312 261.607 67.5312H250.44C248.273 67.5312 246.523 65.5903 246.523 63.185V55.8775C246.523 53.4722 248.273 51.5312 250.44 51.5312H261.607C263.774 51.5312 265.523 53.4722 265.523 55.8775V63.185ZM263.017 64.7526V54.3099H249.03V64.7526H263.017Z" fill="#1F3475"/>
<path d="M271.523 68.5312L280.894 53.2304C281.49 52.2594 282.422 51.5312 283.536 51.5312C284.65 51.5312 285.583 52.2594 286.179 53.2304L295.523 68.5312H292.388L283.51 53.7765L274.658 68.5312H271.523Z" fill="#1F3475"/>
<path d="M321.523 63.185C321.523 65.5903 319.774 67.5312 317.607 67.5312H306.44C304.273 67.5312 302.523 65.5903 302.523 63.185V55.8775C302.523 53.4722 304.273 51.5312 306.44 51.5312H317.607C319.774 51.5312 321.523 53.4722 321.523 55.8775V63.185ZM319.017 64.7526V54.3099H305.03V64.7526H319.017Z" fill="#1F3475"/>
<path d="M329.523 55.8753C329.523 53.4711 331.245 51.5312 333.378 51.5312H344.523V54.3167H331.991V67.5312H329.523V55.8836V55.8753Z" fill="#1F3475"/>
<path d="M355.01 66.1952L366.732 52.4861C367.25 51.8893 367.95 51.5312 368.727 51.5312C370.28 51.5312 371.523 52.9635 371.523 54.7539V68.2584H369.037V53.8673L357.314 67.5764C356.796 68.1732 356.097 68.5312 355.32 68.5312C353.767 68.5312 352.523 67.099 352.523 65.3086V51.8041H355.01V66.1952Z" fill="#1F3475"/>
<path d="M382.116 61.2722C381.15 60.6919 380.523 59.6473 380.523 58.3126V55.8753C380.523 53.4711 382.273 51.5312 384.44 51.5312H399.523V67.5312H397.017V62.6649H383.03V67.5312H380.523V64.2235C380.523 62.8888 381.15 61.8442 382.116 61.2639V61.2722ZM397.017 54.3167H383.03V59.8794H397.017V54.3167Z" fill="#1F3475"/>
<path d="M121.515 1.53125V33.6721C120.037 36.1505 112.406 38.8108 103.236 38.5075C97.3693 38.3169 88.6776 37.121 84.9576 33.4815H90.1204C92.9713 35.7605 99.0642 36.6098 103.236 36.7571C110.285 36.9997 115.996 35.0759 116.352 33.6634V26.7829C105.2 30.9338 90.0074 28.8627 85.4791 21.7135C84.1058 19.5471 83.5234 17.4587 83.5234 15.4916V4.04429L88.6863 1.53125V14.3477C88.6863 20.431 92.1977 25.977 100.185 27.1209C104.114 27.6841 108.66 27.2335 113.214 25.6477C113.171 25.6651 114.631 24.9371 116.361 23.8539V4.05295L121.523 1.53125H121.515Z" fill="#1F3475" stroke="#1F3475" strokeWidth="2" strokeMiterlimit="10"/>
<path d="M170.27 35.5312V3.37146C157.934 3.62558 143.864 10.3467 141.777 35.5312H136.523C139.928 6.67506 157.925 1.79414 170.27 1.54001L175.523 1.53125V35.5312H170.27Z" fill="#1F3475" stroke="#1F3475" strokeWidth="2" strokeMiterlimit="10"/>
<path d="M228.795 15.1226C235.181 25.246 224.683 33.8457 216.669 34.9842C209.364 36.0175 200.826 35.8862 192.523 31.9279V4.07963L197.72 1.53125V9.99081C208.945 5.79606 224.237 7.88906 228.795 15.1226ZM213.992 9.66679C210.038 9.09757 205.463 9.55295 200.878 11.1555C200.922 11.138 199.452 11.8736 197.711 12.9683V31.9191C203.853 34.2748 224.482 36.7619 225.383 22.5663C225.786 16.1997 222.032 10.814 213.984 9.65803L213.992 9.66679ZM238.523 1.53125V35.5271H233.327V4.07087L238.523 1.53125Z" fill="#1F3475" stroke="#1F3475" strokeWidth="2" strokeMiterlimit="10"/>
<path d="M291.713 29.9079C287.112 35.7112 266.995 37.1577 255.523 33.6161V1.53125H290.608V5.11668H260.69V14.5756C266.847 13.2957 272.927 13.3921 278.328 14.0058C286.294 14.9087 298.062 21.9042 291.713 29.9079ZM286.999 23.8241C284.746 13.9707 267.934 14.8386 260.69 16.5129V32.6255C263.325 33.2829 268.361 33.6774 271.805 33.6599C282.389 33.6161 288.295 29.4959 286.999 23.8241Z" fill="#1F3475" stroke="#1F3475" strokeWidth="2" strokeMiterlimit="10"/>
<path d="M347.523 35.5312H343.702C341.358 21.8839 337.82 19.1141 335.608 16.0288H313.778V35.5312H308.523V4.08191L313.778 1.53125V14.1355H335.608C338.324 11.7251 341.933 6.35208 343.348 1.53125H347.523C345.056 8.67484 340.429 12.7243 336.829 15.2136C340.305 18.4655 346.329 25.7055 347.523 35.5312Z" fill="#1F3475" stroke="#1F3475" strokeWidth="2" strokeMiterlimit="10"/>
<path d="M392.987 34.5312L390.215 29.1771C386.021 22.973 374.03 22.824 366.79 25.1287L361.793 34.5312H359.523L376.715 3.07249L381.279 0.53125L398.523 34.5312H392.987ZM387.16 23.2534L377.606 4.77249L367.964 22.9292C371.514 21.8689 376.361 21.7199 380.202 21.9302C382.869 22.0792 385.103 22.4998 387.16 23.2447V23.2534Z" fill="#1F3475" stroke="#1F3475" strokeWidth="2" strokeMiterlimit="10"/>
</g>
<defs>
<clipPath id="clip0_2343_8468">
<rect width="399" height="69" fill="white" transform="translate(0.523438)"/>
</clipPath>
</defs>
</svg>
