<svg width="113" height="68" viewBox="0 0 113 68" fill="none" xmlns="http://www.w3.org/2000/svg">
<path d="M9.7075 63.6484L0.4375 54.3784V9.91844L9.7075 0.648433H35.0425L44.3125 9.91844V54.3784L35.0425 63.6484H9.7075ZM17.7175 50.9134H29.7325L32.4775 48.1684V25.9384L17.7175 50.9134ZM14.4775 54.2884L13.1725 52.3984L33.9175 16.1734L35.6275 17.2984V49.7434L31.0375 54.2884H14.4775ZM11.1925 60.0484H33.4225L40.9375 52.5334V11.5384L33.4225 4.02344H11.1925L3.6775 11.5384V52.5334L11.1925 60.0484ZM9.0325 46.3684V14.3284L13.5775 9.82843H29.8675L31.0825 11.6734L10.6525 47.4484L9.0325 46.3684ZM12.2725 37.3684L26.4475 13.3834H15.0625L12.2725 16.1284V37.3684ZM55.9225 63.6484L101.193 0.648433H111.228L65.9575 63.6484H55.9225ZM60.9625 60.5434H65.2825L106.098 3.88843H101.778L60.9625 60.5434ZM58.8025 31.7434L52.8625 25.8034V6.58844L58.8025 0.648433H74.8675L80.8075 6.58844V25.8034L74.8675 31.7434H58.8025ZM60.1975 29.4034H73.6525L78.4225 24.5884V7.75843L73.6525 2.94343H60.0625L55.2475 7.80343V24.4534L60.1975 29.4034ZM61.8175 25.9834L58.7125 22.8784V9.37843L61.7275 6.36344H71.9875L75.0025 9.33344V23.0134L71.9875 25.9834H61.8175ZM62.7625 23.5984H70.8625L72.6175 21.8434V10.5484L70.8625 8.79343H62.7625L61.0075 10.5484V21.8434L62.7625 23.5984ZM90.4825 67.2034L84.5425 61.2634V42.0484L90.4825 36.1084H106.548L112.488 42.0484V61.2634L106.548 67.2034H90.4825ZM91.8775 64.8634H105.333L110.103 60.0484V43.2184L105.333 38.4034H91.7425L86.9275 43.2634V59.9134L91.8775 64.8634ZM93.4975 61.4434L90.3925 58.3384V44.8384L93.4075 41.8234H103.668L106.683 44.7934V58.4734L103.668 61.4434H93.4975ZM94.4425 59.0584H102.543L104.298 57.3034V46.0084L102.543 44.2534H94.4425L92.6875 46.0084V57.3034L94.4425 59.0584Z" fill="#BDB295"/>
</svg>
