<svg width="233" height="126" viewBox="0 0 233 126" fill="none" xmlns="http://www.w3.org/2000/svg">
<path d="M46.4625 125.929C17.3869 125.929 0.0257704 101.741 0.0257704 63.1424V62.9738C0.0257704 24.3749 17.3869 0.271568 46.4625 0.271568C75.4539 0.271568 92.8993 24.3749 92.8993 62.9738V63.1424C92.8993 101.741 75.4539 125.929 46.4625 125.929ZM46.4625 110.169C63.7393 110.169 73.8526 92.3023 73.8526 63.1424V62.9738C73.8526 33.8139 63.7393 16.1157 46.4625 16.1157C29.1014 16.1157 19.0724 33.8139 19.0724 62.9738V63.1424C19.0724 92.3023 29.1014 110.169 46.4625 110.169ZM129.017 63.2267C112.92 63.2267 103.059 51.3436 103.059 32.2126V32.1284C103.059 13.166 112.92 1.28289 129.017 1.28289C145.114 1.28289 154.89 13.166 154.89 32.1284V32.2126C154.89 51.3436 145.114 63.2267 129.017 63.2267ZM137.023 123.906H121.432L199.051 2.29422H214.558L137.023 123.906ZM129.017 51.7649C136.686 51.7649 141.068 44.6014 141.068 32.2969V32.2126C141.068 19.8239 136.686 12.7446 129.017 12.7446C121.347 12.7446 116.965 19.8239 116.965 32.2126V32.2969C116.965 44.6014 121.347 51.7649 129.017 51.7649ZM206.889 124.918C190.792 124.918 181.016 113.034 181.016 93.9878V93.9036C181.016 74.8569 190.792 62.9738 206.889 62.9738C222.986 62.9738 232.762 74.8569 232.762 93.9036V93.9878C232.762 113.034 222.986 124.918 206.889 124.918ZM206.889 113.456C214.558 113.456 218.94 106.292 218.94 93.9878V93.9036C218.94 81.5148 214.558 74.5198 206.889 74.5198C199.22 74.5198 194.837 81.5148 194.837 93.9036V93.9878C194.837 106.292 199.22 113.456 206.889 113.456Z" fill="white"/>
</svg>
