<svg width="108" height="103" viewBox="0 0 108 103" fill="none" xmlns="http://www.w3.org/2000/svg">
<g clipPath="url(#clip0_2281_8128)">
<path d="M51.0835 41.4866C49.6755 40.0778 46.3338 38.2246 44.556 37.589C42.9163 37.0024 40.5415 36.0602 40.4658 35.9758C39.94 35.3758 41.5084 35.087 41.9138 35.0247C41.9896 35.0114 43.05 34.727 44.4936 34.7625C44.4936 34.7625 45.6922 34.8603 45.7858 34.8514C45.8749 34.8425 45.9506 34.8159 46.0219 34.7803C46.4987 34.527 46.3115 33.7893 45.7724 33.7493C45.6209 33.7404 45.3937 33.7404 45.3135 33.7359C44.3065 33.7226 41.1163 34.2159 39.4721 34.767C39.4543 34.7714 39.432 34.7803 39.4142 34.7848C38.131 35.1981 36.7275 34.887 35.725 33.9892C34.4106 32.8115 31.96 30.2117 31.1891 29.1673C30.7302 28.5451 30.3649 28.4162 30.2847 28.3984C30.2713 28.3984 30.2624 28.3984 30.2535 28.4073L29.7589 28.7806C29.7366 28.7984 29.7366 28.8295 29.7589 28.8429C29.9059 28.9184 29.848 29.4784 29.9238 29.5362C30.2312 29.7673 30.3114 29.9361 30.5743 30.2206L34.5754 34.5448C35.2438 35.2692 36.1082 35.7847 37.0617 36.0558H37.0706C37.9795 36.318 42.6089 37.6379 43.8431 38.149C44.0213 38.2246 44.1461 38.389 44.1639 38.5845C44.311 40.2378 45.4115 41.8199 45.4249 41.851C45.6922 42.4377 47.5502 44.7887 48.3789 45.8242C48.5928 46.0908 48.9849 46.113 49.23 45.8775C49.3948 45.7219 49.3859 45.4686 49.2166 45.322C46.2001 42.7354 45.2689 40.0822 45.2689 40.0822C45.26 40.0645 44.712 38.4957 45.4694 38.749C45.4694 38.749 45.9907 38.9845 46.4229 39.1801C47.0378 39.4556 48.0804 40.0867 48.1428 40.1267C49.0785 40.7311 49.9161 41.3222 50.8874 42.1621C51.0746 42.3221 51.2439 42.2555 51.2706 42.011C51.2885 41.8199 51.2216 41.6288 51.0879 41.4955L51.0835 41.4866Z" fill="#0F354F"/>
<path d="M59.4868 41.4866C60.8948 40.0778 64.2365 38.2246 66.0143 37.589C67.654 37.0024 70.0288 36.0602 70.1046 35.9758C70.6304 35.3758 69.062 35.087 68.6565 35.0247C68.5808 35.0114 67.5203 34.727 66.0767 34.7625C66.0767 34.7625 64.8781 34.8603 64.7846 34.8514C64.6955 34.8425 64.6197 34.8159 64.5484 34.7803C64.0717 34.527 64.2588 33.7893 64.7979 33.7493C64.9494 33.7404 65.1767 33.7404 65.2569 33.7359C66.2638 33.7226 69.4541 34.2159 71.0982 34.767C71.116 34.7714 71.1383 34.7803 71.1561 34.7848C72.4393 35.1981 73.8429 34.887 74.8454 33.9892C76.1598 32.8115 78.6104 30.2117 79.3812 29.1673C79.8401 28.5451 80.2055 28.4162 80.2857 28.3984C80.299 28.3984 80.308 28.3984 80.3169 28.4073L80.8114 28.7806C80.8337 28.7984 80.8337 28.8295 80.8114 28.8429C80.6644 28.9184 80.6956 29.3984 80.6199 29.4517C80.3124 29.6828 80.2589 29.9317 79.9961 30.2161L75.9949 34.5403C75.3266 35.2647 74.4622 35.7803 73.5087 36.0514H73.4998C72.5908 36.3136 67.9614 37.6335 66.7272 38.1446C66.549 38.2201 66.4242 38.3846 66.4064 38.5801C66.2594 40.2333 65.1588 41.8155 65.1455 41.8466C64.8781 42.4332 63.0201 44.7842 62.1914 45.8197C61.9775 46.0864 61.5854 46.1086 61.3404 45.873C61.1755 45.7175 61.1844 45.4642 61.3538 45.3175C64.3702 42.731 65.3014 40.0778 65.3014 40.0778C65.3103 40.06 65.8584 38.4912 65.1009 38.7445C65.1009 38.7445 64.5796 38.9801 64.1474 39.1756C63.5325 39.4512 62.4899 40.0822 62.4276 40.1222C61.4919 40.7267 60.6542 41.3177 59.6829 42.1577C59.4958 42.3177 59.3264 42.251 59.2997 42.0066C59.2819 41.8155 59.3487 41.6244 59.4824 41.4911L59.4868 41.4866Z" fill="#0F354F"/>
<path d="M37.5781 19.4297C37.5781 19.4297 43.4952 21.6207 47.3582 19.4297" stroke="#103650" strokeWidth="1.70305" strokeMiterlimit="10" stroke-linecap="round"/>
<path d="M72.8348 18.9375C72.8348 18.9375 66.9177 21.1285 63.0547 18.9375" stroke="#103650" strokeWidth="1.70305" strokeMiterlimit="10" stroke-linecap="round"/>
<path d="M85.2282 15.4512C85.197 16.7933 85.0143 18.2777 84.5821 19.8332C84.3771 20.5754 84.0831 21.2909 83.7355 21.9753C83.4058 22.6241 82.9157 23.593 82.3498 24.7307C82.2741 24.8862 82.1939 25.0418 82.1137 25.2062C81.2003 27.055 80.1354 29.2638 79.2532 31.2281C78.0724 33.8635 77.3506 36.6189 77.1145 39.4232C77.0164 40.5831 76.9318 41.9697 76.8917 43.5874C76.8872 43.8408 76.8783 44.0941 76.8739 44.3607C76.8739 44.8229 76.865 45.2984 76.865 45.7918C76.865 47.325 76.7046 48.7871 76.4506 50.1249C76.2278 51.2981 75.9382 52.3825 75.6218 53.3513C75.6218 53.3513 75.6218 53.3513 75.6218 53.3558C74.9847 55.329 74.2451 56.8312 73.7861 57.6667C73.7861 57.6667 73.7817 57.6755 73.7772 57.6844C72.0306 60.4532 69.4018 62.6131 66.2829 63.773C65.4452 64.0841 64.5764 64.3196 63.6763 64.4796C62.6203 64.6663 61.5287 64.4618 60.6064 63.9152C60.6019 63.9152 60.5975 63.9108 60.593 63.9063C59.8534 63.3375 59.292 62.4975 58.9177 61.4442C58.6905 60.7998 58.5301 60.0799 58.4365 59.2888C58.392 58.8933 58.3474 57.7689 58.3474 56.9778C58.3474 56.68 58.3385 56.3867 58.3251 56.1023C58.138 52.5114 56.8191 49.7338 55.2195 49.7338C53.62 49.7338 52.3011 52.5158 52.114 56.1023C52.1006 56.3912 52.0917 56.68 52.0917 56.9778C52.0917 57.7644 52.0471 58.8933 52.0026 59.2888C51.909 60.0799 51.7486 60.7998 51.5214 61.4442C51.1471 62.4975 50.5857 63.3375 49.8461 63.9063C49.8416 63.9063 49.8372 63.9108 49.8327 63.9152C48.9148 64.4618 47.8277 64.6663 46.7717 64.4841C45.8672 64.3285 44.9939 64.0885 44.1562 63.7774C41.0373 62.6219 38.4085 60.4621 36.6619 57.6889C36.6619 57.6844 36.653 57.6755 36.653 57.6711C36.194 56.8356 35.4544 55.329 34.8173 53.3602C34.8173 53.3602 34.8173 53.3602 34.8173 53.3558C34.5009 52.3869 34.2113 51.3026 33.9885 50.1337C33.7345 48.7916 33.5741 47.3295 33.5741 45.7962C33.5741 45.3029 33.5697 44.8274 33.5652 44.3652C33.5652 44.0985 33.5563 43.8408 33.5474 43.5919C33.5073 41.9742 33.4226 40.5876 33.3246 39.4277C33.0885 36.6234 32.3667 33.868 31.1859 31.2325C30.3037 29.2682 29.2388 27.0639 28.3254 25.2151C28.2452 25.0507 28.1695 24.8951 28.0893 24.7396C27.5234 23.6019 27.0333 22.633 26.7036 21.9842C26.356 21.2998 26.0575 20.5798 25.857 19.8421C25.4248 18.2866 25.2421 16.8067 25.2109 15.4601C25.4426 7.58939 31.7652 1.24307 39.6382 0.945312H39.7051C40.6229 0.967534 41.5452 1.03864 42.4586 1.1453C43.4389 1.26085 44.4058 1.50084 45.3102 1.90082C45.3147 1.90082 45.3236 1.90526 45.3281 1.9097C45.9429 2.18524 46.5756 2.43412 47.2217 2.65633C49.7302 3.53628 52.4303 4.01181 55.2418 4.01181C58.0533 4.01181 60.749 3.53628 63.2619 2.65633C63.908 2.43412 64.5363 2.18524 65.1556 1.9097C65.16 1.9097 65.1689 1.90526 65.1734 1.90082C66.0779 1.50084 67.0403 1.25641 68.025 1.1453C68.9384 1.03864 69.8607 0.967534 70.7786 0.945312H70.8454C78.7185 1.24307 85.0366 7.58495 85.2727 15.4601L85.2282 15.4512Z" stroke="#103650" strokeWidth="1.70305" strokeMiterlimit="10"/>
<path d="M6.62123 102.076H1.43935C0.695259 102.076 0.09375 101.378 0.09375 100.511V97.8847C0.09375 97.0181 0.695259 96.3203 1.43935 96.3203H6.62123V97.3203H0.953685V101.076H6.62123V102.076Z" fill="#0F354F"/>
<path d="M15.3703 97.3203H12.5721V102.076H11.7122V97.3203H8.91406V96.3203H15.3703V97.3203Z" fill="#0F354F"/>
<path d="M24.2697 100.511C24.2697 101.378 23.6682 102.076 22.9241 102.076H19.0878C18.3437 102.076 17.7422 101.378 17.7422 100.511V97.8847C17.7422 97.0181 18.3437 96.3203 19.0878 96.3203H22.9241C23.6682 96.3203 24.2697 97.0181 24.2697 97.8847V100.511ZM23.4097 101.076V97.3203H18.6021V101.076H23.4097Z" fill="#0F354F"/>
<path d="M35.2419 102.075H34.3909V96.8932L31.9893 101.608C31.82 101.942 31.5126 102.173 31.1561 102.173C30.7997 102.173 30.4922 101.942 30.3229 101.608L27.9302 96.8932V102.075H27.0703V97.3509C27.0703 96.7243 27.5025 96.2266 28.0372 96.2266C28.407 96.2266 28.71 96.4665 28.8882 96.8088L31.1561 101.284L33.4329 96.8088C33.6023 96.4665 33.9186 96.2266 34.2751 96.2266C34.8142 96.2266 35.2419 96.7288 35.2419 97.3509V102.075Z" fill="#0F354F"/>
<path d="M44.4824 102.076H39.0643C38.3203 102.076 37.7188 101.378 37.7188 100.511V100.262C37.7188 99.3957 38.3203 98.698 39.0643 98.698H43.618V97.3203H37.9504V96.3203H43.1323C43.8764 96.3203 44.4779 97.0181 44.4779 97.8847V102.076H44.4824ZM43.6224 101.076V99.6979H38.5831V101.076H43.6224Z" fill="#0F354F"/>
<path d="M53.3078 97.3203H50.5096V102.076H49.6497V97.3203H46.8516V96.3203H53.3078V97.3203Z" fill="#0F354F"/>
<path d="M62.2072 100.511C62.2072 101.378 61.6057 102.076 60.8616 102.076H57.0253C56.2812 102.076 55.6797 101.378 55.6797 100.511V97.8847C55.6797 97.0181 56.2812 96.3203 57.0253 96.3203H60.8616C61.6057 96.3203 62.2072 97.0181 62.2072 97.8847V100.511ZM61.3472 101.076V97.3203H56.5396V101.076H61.3472Z" fill="#0F354F"/>
<path d="M64.1562 102.075L67.4044 96.8088C67.6094 96.4754 67.9346 96.2266 68.3178 96.2266C68.701 96.2266 69.0262 96.4754 69.2312 96.8088L72.466 102.075H71.3833L68.3089 96.9954L65.2434 102.075H64.1562Z" fill="#0F354F"/>
<path d="M81.0275 100.511C81.0275 101.378 80.426 102.076 79.6819 102.076H75.8456C75.1015 102.076 74.5 101.378 74.5 100.511V97.8847C74.5 97.0181 75.1015 96.3203 75.8456 96.3203H79.6819C80.426 96.3203 81.0275 97.0181 81.0275 97.8847V100.511ZM80.1676 101.076V97.3203H75.3599V101.076H80.1676Z" fill="#0F354F"/>
<path d="M83.8203 97.8847C83.8203 97.0181 84.4218 96.3203 85.1659 96.3203H89.0557V97.3203H84.6802V102.076H83.8203V97.8847Z" fill="#0F354F"/>
<path d="M92.5709 101.355L96.6344 96.5599C96.8126 96.351 97.0577 96.2266 97.325 96.2266C97.8642 96.2266 98.2919 96.7288 98.2919 97.3509V102.075H97.432V97.0399L93.3684 101.835C93.1902 102.044 92.9451 102.168 92.6778 102.168C92.1387 102.168 91.7109 101.666 91.7109 101.044V96.3199H92.5709V101.355Z" fill="#0F354F"/>
<path d="M101.634 99.8223C101.304 99.6135 101.086 99.2401 101.086 98.7602V97.8847C101.086 97.0181 101.687 96.3203 102.432 96.3203H107.613V102.076H106.753V100.325H101.946V102.076H101.086V100.889C101.086 100.409 101.3 100.036 101.634 99.8268V99.8223ZM106.753 97.3203H101.946V99.3246H106.753V97.3203Z" fill="#0F354F"/>
<path d="M13.3183 79.0312V90.0929C12.8104 90.9462 10.186 91.8617 7.03145 91.7594C5.01306 91.6928 2.02334 91.2795 0.740118 90.0307H2.51791C3.49815 90.8173 5.59675 91.1106 7.03145 91.1595C9.45977 91.2439 11.4202 90.5817 11.545 90.0973V87.7286C7.70871 89.1551 2.47781 88.4441 0.922799 85.982C0.450503 85.2354 0.25 84.5154 0.25 83.8399V79.8934L2.02779 79.0312V83.4399C2.02779 85.5331 3.23527 87.4441 5.98438 87.8352C7.33444 88.0263 8.90282 87.8708 10.4667 87.3286C10.4534 87.333 10.9524 87.0841 11.5495 86.7108V79.8979L13.3272 79.0312H13.3183Z" fill="#0F354F"/>
<path d="M29.7356 90.6464V79.7003C25.5651 79.7892 20.8021 82.0735 20.0981 90.6508H18.3203C19.4743 80.8291 25.5607 79.1626 29.7312 79.0781H31.5089V90.6508H29.7312L29.7356 90.6464Z" fill="#0F354F"/>
<path d="M49.6344 83.7124C51.8176 87.1611 48.2264 90.0898 45.4862 90.4764C42.991 90.8275 40.0726 90.7831 37.2344 89.4365V79.9526L39.0122 79.0859V81.9658C42.8485 80.5392 48.0794 81.2503 49.6344 83.7124ZM44.5728 81.8547C43.2227 81.6636 41.6544 81.8191 40.0904 82.3613C40.1038 82.3569 39.6048 82.6057 39.0077 82.9791V89.4365C41.1063 90.2409 48.1596 91.0853 48.467 86.25C48.6051 84.0812 47.3219 82.2458 44.5683 81.8547H44.5728ZM52.9583 79.0859V90.6675H51.1805V79.9526L52.9583 79.0904V79.0859Z" fill="#0F354F"/>
<path d="M71.2024 88.7622C69.6206 90.7354 62.701 91.2287 58.7578 90.0243V79.1094H70.8192V80.3315H60.5311V83.5491C62.6476 83.1136 64.7417 83.1491 66.5952 83.3536C69.3355 83.6602 73.3812 86.0423 71.1979 88.7622H71.2024ZM69.5805 86.6912C68.8052 83.3358 63.0218 83.6336 60.5311 84.2024V89.6821C61.4356 89.9043 63.1689 90.0377 64.3541 90.0332C67.9943 90.0199 70.0261 88.6155 69.5805 86.6867V86.6912Z" fill="#0F354F"/>
<path d="M90.1261 90.6464H88.834C88.0409 86.0022 86.8468 85.06 86.0983 84.0112H78.7153V90.6464H76.9375V79.9447L78.7153 79.0781V83.3668H86.0983C87.0161 82.5446 88.237 80.718 88.7182 79.0781H90.1306C89.2974 81.5091 87.7335 82.8868 86.5126 83.7356C87.6845 84.8423 89.7251 87.3043 90.1306 90.6508L90.1261 90.6464Z" fill="#0F354F"/>
<path d="M105.593 90.3071L104.657 88.485C103.236 86.374 99.1724 86.3251 96.7218 87.1073L95.0286 90.3071H94.2578L100.081 79.5966L101.627 78.7344L107.469 90.3071H105.593ZM103.619 86.4673L100.384 80.1787L97.1183 86.3606C98.3213 86.0006 99.961 85.9473 101.262 86.0229C102.162 86.0718 102.924 86.214 103.619 86.4717V86.4673Z" fill="#0F354F"/>
</g>
<defs>
<clipPath id="clip0_2281_8128">
<rect width="107.523" height="101.75" fill="white" transform="translate(0.09375 0.679688)"/>
</clipPath>
</defs>
</svg>
