<svg width="140" height="140" viewBox="0 0 140 140" fill="none" xmlns="http://www.w3.org/2000/svg">
<g clipPath="url(#clip0_1324_3336)">
<path d="M70.4646 96.6519L70.4675 96.6492C71.5067 95.6619 72.4827 94.7458 73.291 93.9958C73.5057 94.1381 73.7327 94.2889 73.9713 94.4476C75.8831 95.7199 78.5013 97.4811 81.3664 99.4272C81.3672 99.4277 81.368 99.4283 81.3688 99.4288L83.5351 96.2395C89.255 100.143 94.3786 103.423 94.8937 103.559L70.4646 96.6519ZM70.4646 96.6519C70.2795 96.8274 70.0991 96.9985 69.9233 97.1653C67.2367 99.7131 65.6093 101.257 64.492 102.099C63.824 102.603 63.0367 103.099 62.0522 103.37C61.21 103.601 60.4176 103.595 60.0838 103.592C60.0536 103.592 60.0271 103.592 60.0048 103.592C59.3713 103.592 58.3748 103.574 57.3277 103.164C56.2549 102.743 55.516 102.066 55.0497 101.616L55.048 101.614C54.0051 100.606 53.442 99.4422 52.7755 97.7405C52.0985 96.0121 51.1102 93.1476 49.4415 88.2357L49.4377 88.2245C48.4272 85.2198 47.4722 82.4627 46.7524 80.4404C46.5244 79.8 46.322 79.2388 46.1502 78.7702C45.7609 78.6521 45.3077 78.5172 44.7976 78.3678C42.9306 77.8211 40.3819 77.1033 37.6091 76.3495C33.0734 75.1284 30.3964 74.3938 28.7808 73.8675C27.2759 73.3771 25.9723 72.8674 24.9164 71.7259C23.9293 70.7066 23.1038 69.212 23.1038 67.4772C23.1038 67.4572 23.1035 67.4342 23.1024 67.3715L23.1022 67.3643C23.1013 67.3127 23.0997 67.2197 23.1002 67.1209C23.1012 66.9133 23.1104 66.5412 23.1954 66.1028C23.4003 65.045 23.9282 64.164 24.6542 63.4632C25.2636 62.8749 25.987 62.4388 26.6471 62.0905C27.3438 61.723 28.2118 61.3305 29.2716 60.8889C33.2499 59.2313 41.1762 56.3769 56.8205 50.743C57.6161 50.4565 58.4316 50.1628 59.2676 49.8618L59.2717 49.8603C76.9505 43.5154 94.2624 37.2842 97.7486 36.0141C101.252 34.7375 105.022 33.3988 106.089 33.0338L106.103 33.0289L106.117 33.0241C107.329 32.6203 108.662 32.2813 110.074 32.3343C111.604 32.3918 112.877 32.8913 114 33.5924C115.138 34.2913 115.963 35.3188 116.485 36.1918C116.992 37.0401 117.563 38.3285 117.563 39.7721C117.563 40.0366 117.533 40.2546 117.529 40.2898L117.528 40.2935C117.524 40.3275 117.519 40.3594 117.515 40.388C117.51 40.4224 117.505 40.4521 117.501 40.4749C117.495 40.5158 117.487 40.5574 117.48 40.5984C117.472 40.6443 117.463 40.6893 117.455 40.7313C117.424 40.8954 117.381 41.1068 117.33 41.3514C117.228 41.8452 117.079 42.537 116.894 43.3914C116.522 45.1034 115.991 47.5053 115.355 50.3638C114.082 56.0826 112.382 63.6487 110.67 71.2211C108.958 78.7936 107.234 86.3766 105.914 92.1292C105.254 95.0047 104.694 97.4275 104.286 99.1645C104.083 100.032 103.915 100.736 103.792 101.244C103.73 101.496 103.677 101.712 103.633 101.88L103.63 101.892C103.611 101.967 103.529 102.292 103.423 102.565C102.641 104.584 100.976 105.928 99.4711 106.658C97.9567 107.393 95.8909 107.856 93.8319 107.265L70.4646 96.6519ZM71.1445 4.48264H71.143C56.1148 4.46909 42.6477 4.48264 32.8382 4.51649C27.9325 4.53343 23.947 4.55544 21.1401 4.58159C19.7352 4.59468 18.6352 4.60873 17.8662 4.6235C17.4798 4.63094 17.1915 4.63828 16.9959 4.6452C16.9641 4.64633 16.9366 4.6474 16.9133 4.64838C11.0927 5.71216 5.94983 10.9736 5.02372 16.9445C5.02732 16.9237 5.02635 16.9434 5.02253 17.0209C5.01706 17.1317 5.00575 17.3608 4.99367 17.7582C4.97433 18.3942 4.95614 19.2935 4.93952 20.4705C4.90633 22.8211 4.88013 26.2225 4.86151 30.7236C4.82428 39.7228 4.81749 53.0787 4.8446 71.131C4.8446 71.131 4.8446 71.131 4.8446 71.1311L4.92239 121.695C4.92406 122.782 5.10789 123.861 5.46622 124.887C7.21921 129.83 10.4203 133.031 15.363 134.784C16.3871 135.142 17.4642 135.324 18.549 135.324H70.3332H122.117C123.202 135.324 124.278 135.142 125.302 134.784C130.407 132.97 133.825 129.402 135.419 124.233C135.424 124.214 135.432 124.179 135.444 124.096C135.466 123.937 135.498 123.638 135.529 123.063C135.591 121.906 135.637 119.921 135.669 116.289C135.734 109.056 135.74 95.5723 135.74 69.7814V18.1328C135.74 17.0481 135.558 15.9712 135.2 14.9471C133.447 10.0044 130.246 6.80325 125.304 5.05019C124.279 4.69223 123.201 4.50914 122.115 4.50858L71.1445 4.48264Z" stroke="white" strokeWidth="7.71092"/>
<path d="M75.0949 60.84C63.0044 67.7799 53.0555 73.6082 52.92 73.7709C52.8116 73.9607 52.7031 74.4486 52.7031 74.8281C52.7031 75.7498 58.5315 92.7741 58.8839 92.9096C59.2363 93.0181 59.3176 92.5301 60.0225 86.3222C60.3478 83.6385 60.646 81.1716 60.7273 80.8463C60.8086 80.4396 67.1249 75.0992 79.4865 65.0148C89.7336 56.6382 98.1915 49.6442 98.2999 49.4815C98.6795 48.9393 98.3813 48.37 97.7036 48.3158C97.2427 48.2616 90.1673 52.1924 75.0949 60.84Z" fill="white"/>
</g>
<defs>
<clipPath id="clip0_1324_3336">
<rect width="138.796" height="138.796" fill="white" transform="translate(0.960938 0.507812)"/>
</clipPath>
</defs>
</svg>
