<svg width="139" height="140" viewBox="0 0 139 140" fill="none" xmlns="http://www.w3.org/2000/svg">
<g clipPath="url(#clip0_2073_24889)">
<path d="M70.3281 4.85764H70.3266C55.2984 4.84409 41.8313 4.85765 32.0218 4.89151C27.1161 4.90843 23.1306 4.93044 20.3237 4.95659C18.9188 4.96968 17.8188 4.98373 17.0498 4.9985C16.6634 5.00594 16.3751 5.01328 16.1794 5.0202C16.1477 5.02133 16.1202 5.0224 16.0969 5.02338C10.2763 6.08717 5.13343 11.3486 4.20731 17.3195C4.21092 17.2987 4.20994 17.3184 4.20612 17.3959C4.20065 17.5067 4.18935 17.7358 4.17726 18.1332C4.15792 18.7692 4.13974 19.6685 4.12312 20.8455C4.08993 23.1961 4.06373 26.5975 4.04511 31.0986C4.00788 40.0978 4.00109 53.4537 4.02819 71.506C4.02819 71.506 4.02819 71.506 4.02819 71.5061L4.10598 122.07C4.10766 123.157 4.29148 124.236 4.64982 125.262C6.4028 130.205 9.60385 133.406 14.5465 135.159C15.5707 135.517 16.6478 135.699 17.7326 135.699H69.5168H121.301C122.385 135.699 123.462 135.517 124.486 135.159C129.591 133.345 133.008 129.777 134.603 124.608C134.608 124.588 134.616 124.554 134.628 124.471C134.65 124.312 134.681 124.013 134.712 123.438C134.774 122.281 134.821 120.296 134.853 116.664C134.917 109.431 134.924 95.9473 134.924 70.1564V18.5079C134.924 17.4231 134.741 16.3462 134.384 15.3221C132.631 10.3794 129.43 7.17825 124.487 5.42519C123.463 5.06723 122.385 4.88414 121.299 4.88358L70.3281 4.85764ZM69.6511 97.0242L69.6482 97.0269C69.4631 97.2024 69.2827 97.3735 69.1069 97.5403C66.4203 100.088 64.7929 101.632 63.6756 102.474C63.0076 102.978 62.2203 103.474 61.2358 103.745C60.3936 103.976 59.6012 103.97 59.2674 103.967C59.2372 103.967 59.2107 103.967 59.1884 103.967C58.5549 103.967 57.5584 103.949 56.5113 103.539C55.4385 103.118 54.6996 102.441 54.2333 101.991L54.2316 101.989C53.1887 100.981 52.6256 99.8171 51.9591 98.1155C51.2821 96.3871 50.2938 93.5226 48.6251 88.6107L48.6213 88.5995C47.6108 85.5948 46.6558 82.8377 45.936 80.8154C45.708 80.175 45.5056 79.6138 45.3338 79.1452C44.9445 79.0271 44.4913 78.8922 43.9811 78.7428C42.1141 78.1961 39.5651 77.4782 36.792 76.7243C32.2568 75.5033 29.58 74.7688 27.9644 74.2424C26.4594 73.7521 25.1558 73.2423 24.0998 72.1007C23.1128 71.0815 22.2874 69.587 22.2874 67.8522C22.2874 67.8322 22.2871 67.8092 22.286 67.7465L22.2858 67.7393C22.2849 67.6877 22.2833 67.5947 22.2838 67.4959C22.2848 67.2883 22.294 66.9162 22.379 66.4778C22.5839 65.42 23.1118 64.539 23.8378 63.8382C24.4472 63.2499 25.1706 62.8138 25.8307 62.4655C26.5274 62.098 27.3954 61.7055 28.4552 61.2639C32.4335 59.6063 40.36 56.7518 56.0049 51.1178C56.8002 50.8313 57.6155 50.5377 58.4512 50.2368L58.4553 50.2353C76.1341 43.8904 93.446 37.6592 96.9322 36.3891C100.436 35.1125 104.205 33.7738 105.272 33.4088L105.287 33.4039L105.301 33.3991C106.512 32.9953 107.846 32.6563 109.257 32.7093C110.788 32.7668 112.06 33.2663 113.184 33.9674C114.322 34.6663 115.147 35.6938 115.668 36.5668C116.175 37.4151 116.746 38.7035 116.746 40.1471C116.746 40.4116 116.717 40.6296 116.712 40.6648L116.712 40.6685C116.708 40.7025 116.703 40.7344 116.699 40.763C116.694 40.7974 116.689 40.8271 116.685 40.8499C116.678 40.8908 116.671 40.9324 116.664 40.9734C116.655 41.0193 116.647 41.0643 116.639 41.1063C116.607 41.2704 116.565 41.4818 116.514 41.7264C116.411 42.2202 116.263 42.912 116.077 43.7664C115.705 45.4784 115.175 47.8803 114.539 50.7388C113.266 56.4576 111.566 64.0237 109.854 71.5961C108.142 79.1686 106.418 86.7516 105.098 92.5042C104.438 95.3797 103.878 97.8025 103.47 99.5396C103.266 100.407 103.099 101.111 102.975 101.619C102.914 101.871 102.86 102.087 102.817 102.255L102.814 102.267C102.795 102.341 102.712 102.667 102.607 102.94C101.825 104.959 100.159 106.303 98.6547 107.033C97.1403 107.768 95.0745 108.231 93.0155 107.64C92.6433 107.534 92.3474 107.391 92.2608 107.349L92.2526 107.345C92.0995 107.271 91.9492 107.191 91.8182 107.119C91.5521 106.973 91.2372 106.788 90.8973 106.583C90.2106 106.168 89.3087 105.602 88.2644 104.93C86.1711 103.584 83.4323 101.769 80.5496 99.802C77.6847 97.8559 75.0666 96.0949 73.1549 94.8226C72.9163 94.6639 72.6893 94.5131 72.4746 94.3708C71.6663 95.1208 70.6903 96.0369 69.6511 97.0242Z" stroke="white" strokeWidth="7.71092"/>
<path d="M74.2824 61.215C62.1919 68.1549 52.243 73.9832 52.1075 74.1459C51.9991 74.3357 51.8906 74.8236 51.8906 75.2031C51.8906 76.1248 57.719 93.1491 58.0714 93.2846C58.4238 93.3931 58.5051 92.9051 59.21 86.6972C59.5353 84.0135 59.8335 81.5466 59.9148 81.2213C59.9961 80.8146 66.3124 75.4742 78.674 65.3898C88.9211 57.0132 97.379 50.0192 97.4874 49.8565C97.867 49.3143 97.5688 48.745 96.8911 48.6908C96.4302 48.6366 89.3548 52.5674 74.2824 61.215Z" fill="white"/>
</g>
<defs>
<clipPath id="clip0_2073_24889">
<rect width="138.796" height="138.796" fill="white" transform="translate(0.148438 0.882812)"/>
</clipPath>
</defs>
</svg>
