<svg width="469" height="447" viewBox="0 0 469 447" fill="none" xmlns="http://www.w3.org/2000/svg">
<g filter="url(#filter0_f_6516_3)">
<ellipse cx="234.828" cy="223.622" rx="145.07" ry="134.028" fill="white"/>
</g>
<path d="M153.742 307.625H145.803C144.665 307.625 143.742 306.414 143.742 304.906V300.344C143.742 298.844 144.665 297.625 145.803 297.625H153.742V299.361H145.062V305.881H153.742V307.617V307.625Z" fill="#1F3475"/>
<path d="M167.742 299.361H163.409V307.625H162.076V299.361H157.742V297.625H167.735V299.361H167.742Z" fill="#1F3475"/>
<path d="M181.742 304.906C181.742 306.406 180.82 307.625 179.682 307.625H173.803C172.665 307.625 171.742 306.414 171.742 304.906V300.344C171.742 298.844 172.665 297.625 173.803 297.625H179.682C180.82 297.625 181.742 298.836 181.742 300.344V304.906ZM180.422 305.881V299.361H173.062V305.881H180.422Z" fill="#1F3475"/>
<path d="M199.742 307.47H198.388V298.753L194.569 306.681C194.296 307.242 193.815 307.625 193.242 307.625C192.67 307.625 192.188 307.242 191.916 306.681L188.111 298.753V307.47H186.742V299.52C186.742 298.466 187.426 297.625 188.278 297.625C188.865 297.625 189.346 298.031 189.633 298.606L193.235 306.128L196.852 298.606C197.124 298.031 197.62 297.625 198.192 297.625C199.044 297.625 199.728 298.466 199.728 299.52V307.47H199.742Z" fill="#1F3475"/>
<path d="M214.742 307.625H205.931C204.722 307.625 203.742 306.414 203.742 304.906V304.472C203.742 302.972 204.722 301.753 205.931 301.753H213.34V299.361H204.121V297.625H212.554C213.762 297.625 214.742 298.836 214.742 300.344V307.625ZM213.34 305.889V303.497H205.137V305.889H213.34Z" fill="#1F3475"/>
<path d="M228.742 299.361H224.409V307.625H223.076V299.361H218.742V297.625H228.735V299.361H228.742Z" fill="#1F3475"/>
<path d="M242.742 304.906C242.742 306.406 241.82 307.625 240.682 307.625H234.803C233.665 307.625 232.742 306.414 232.742 304.906V300.344C232.742 298.844 233.665 297.625 234.803 297.625H240.682C241.82 297.625 242.742 298.836 242.742 300.344V304.906ZM241.422 305.881V299.361H234.062V305.881H241.422Z" fill="#1F3475"/>
<path d="M245.749 307.625L250.827 298.622C251.15 298.052 251.651 297.625 252.256 297.625C252.861 297.625 253.362 298.052 253.685 298.622L258.742 307.625H257.045L252.235 298.944L247.439 307.625H245.742H245.749Z" fill="#1F3475"/>
<path d="M272.742 304.906C272.742 306.406 271.82 307.625 270.682 307.625H264.803C263.665 307.625 262.742 306.414 262.742 304.906V300.344C262.742 298.844 263.665 297.625 264.803 297.625H270.682C271.82 297.625 272.742 298.836 272.742 300.344V304.906ZM271.422 305.881V299.361H264.062V305.881H271.422Z" fill="#1F3475"/>
<path d="M277.749 300.344C277.749 298.844 278.668 297.625 279.803 297.625H285.742V299.361H279.058V307.625H277.742V300.344H277.749Z" fill="#1F3475"/>
<path d="M292.182 306.253L298.972 298.185C299.273 297.831 299.677 297.625 300.126 297.625C301.022 297.625 301.742 298.466 301.742 299.52V307.47H300.302V298.997L293.512 307.065C293.211 307.419 292.807 307.625 292.359 307.625C291.462 307.625 290.742 306.784 290.742 305.73V297.78H292.182V306.253Z" fill="#1F3475"/>
<path d="M306.577 303.718C306.072 303.352 305.742 302.705 305.742 301.867V300.344C305.742 298.844 306.665 297.625 307.803 297.625H315.742V307.625H314.422V304.579H307.062V307.625H305.742V305.561C305.742 304.731 306.072 304.076 306.577 303.71V303.718ZM314.422 299.369H307.062V302.85H314.422V299.369Z" fill="#1F3475"/>
<path d="M164.742 269.625V287.866C163.923 289.275 159.708 290.779 154.638 290.612C151.397 290.504 146.588 289.825 144.533 287.765H147.386C148.96 289.059 152.329 289.543 154.638 289.622C158.535 289.76 161.692 288.668 161.889 287.866V283.963C155.725 286.319 147.329 285.141 144.823 281.087C144.067 279.859 143.742 278.673 143.742 277.56V271.056L146.595 269.632V276.903C146.595 280.357 148.537 283.501 152.95 284.151C155.118 284.469 157.639 284.216 160.152 283.313C160.131 283.32 160.936 282.908 161.889 282.294V271.063L164.742 269.632V269.625Z" fill="#1F3475"/>
<path d="M190.915 289.625V271.654C184.274 271.798 176.696 275.555 175.569 289.625H172.742C174.576 273.497 184.267 270.769 190.915 270.625H193.742V289.625H190.915Z" fill="#1F3475"/>
<path d="M222.453 278.224C225.926 283.881 220.217 288.683 215.864 289.316C211.895 289.898 207.256 289.819 202.742 287.605V272.048L205.565 270.625V275.348C211.665 273.004 219.972 274.176 222.453 278.209V278.224ZM214.411 275.176C212.266 274.859 209.771 275.111 207.284 276.009C207.305 276.002 206.508 276.412 205.565 277.023V287.612C208.898 288.928 220.112 290.315 220.601 282.386C220.825 278.827 218.778 275.822 214.404 275.176H214.411ZM227.742 270.632V289.625H224.919V272.048L227.742 270.632Z" fill="#1F3475"/>
<path d="M257.741 286.482C255.198 289.722 244.079 290.536 237.742 288.555V270.625H257.133V272.627H240.596V277.912C244.001 277.199 247.356 277.25 250.345 277.596C254.746 278.1 261.252 282.01 257.741 286.482ZM255.134 283.083C253.891 277.574 244.594 278.064 240.596 279V288.001C242.051 288.368 244.835 288.584 246.742 288.577C252.591 288.555 255.855 286.251 255.141 283.083H255.134Z" fill="#1F3475"/>
<path d="M287.742 289.625H285.685C284.418 282.001 282.515 280.445 281.325 278.725H269.569V289.625H266.742V272.051L269.569 270.625V277.666H281.325C282.788 276.32 284.733 273.318 285.496 270.625H287.742C286.413 274.614 283.928 276.882 281.983 278.271C283.851 280.085 287.098 284.132 287.742 289.625Z" fill="#1F3475"/>
<path d="M312.752 288.625L311.264 285.631C309.008 282.162 302.553 282.083 298.654 283.371L295.965 288.625H294.742L303.999 271.043L306.458 269.625L315.742 288.625H312.759H312.752ZM309.615 282.328L304.474 272L299.283 282.148C301.19 281.55 303.803 281.471 305.871 281.594C307.303 281.68 308.512 281.91 309.615 282.328Z" fill="#1F3475"/>
<path d="M209.423 244.819C209.423 244.819 213.038 246.409 213.874 243.968C214.817 241.197 214.346 233.011 214.046 229.044C213.817 226.02 211.995 223.312 209.223 221.997C209.18 221.976 209.137 221.955 209.095 221.941C205.501 220.274 199.449 216.103 197.813 214.514C197.678 214.38 197.299 214.028 197.07 213.775C196.242 212.875 197.106 211.384 198.292 211.714C198.463 211.764 198.635 211.848 198.792 211.968C198.956 212.094 200.785 214.127 200.785 214.127C203.115 216.441 205.315 217.629 205.458 217.721C206.23 218.248 209.273 220.224 209.359 218.424C209.373 218.171 206.937 212.924 205.172 209.415C203.25 205.603 200.671 197.374 200.585 192.887C200.578 192.458 200.771 192.043 201.107 191.762C201.536 191.396 201.929 191.558 201.979 192.106C202.243 194.99 202.686 197.255 203.279 199.695C203.322 199.864 204.043 202.515 204.615 203.922C205.022 204.914 205.508 206.102 205.508 206.102C206.358 207.699 207.944 204.281 207.951 204.245C207.951 204.245 210.631 198.464 209.752 189.553C209.702 189.047 210.088 188.625 210.609 188.625H210.709C211.438 188.625 212.01 189.237 211.938 189.947C211.667 192.873 210.995 199.73 210.495 201.123C210.473 201.186 209.773 205.483 207.394 208.409C207.116 208.754 207.058 209.218 207.237 209.619C208.466 212.376 213.16 222.637 215.096 223.593C216.932 224.494 226.113 212.432 229.392 208.015C229.935 207.291 231.057 207.375 231.486 208.17L231.6 208.381C231.829 208.81 231.779 209.323 231.471 209.703C229.335 212.34 220.776 222.229 218.933 223.903C216.654 225.985 216.882 227.44 216.854 227.919L216.554 243.223C216.539 244.095 216.704 244.967 217.104 245.747C217.454 246.423 219.111 247.386 219.897 247.527C220.826 247.696 217.875 247.724 214.867 246.971C212.167 246.289 209.423 244.826 209.423 244.826V244.819Z" fill="#1F3475"/>
<path d="M247.387 246.245C247.387 246.245 245.852 246.899 245.183 243.28C244.697 240.637 245.028 227.433 245.148 223.329C245.197 221.565 245.563 219.815 246.302 218.206C247.013 216.653 248.168 214.974 250.02 213.842C253.863 211.495 260.432 205.866 261.706 204.496C263.705 202.338 263.276 200.518 263.276 200.518C262.593 199.296 260.312 202.282 260.312 202.282C259.531 203.203 257.221 205.662 255.215 207.37C255.215 207.37 253.075 209.155 252.519 209.591C252.237 209.815 250.062 211.811 249.337 210.659C248.851 209.886 252.272 203.674 253.927 200.321C256.348 195.402 259.939 193.962 261.959 187.637C264.501 179.668 264.015 175.67 262.431 174.334C261.614 173.646 260.488 174.124 260.411 174.932C260.22 176.801 262.03 176.801 260.699 184.44C259.699 190.16 257.172 193.505 255.518 194.826C253.673 196.295 249.562 185.48 249.034 182.577C247.83 175.986 249.09 172.317 248.168 170.223C247.943 169.71 247.682 169.436 247.239 169.774C247.098 169.886 247.112 170.034 247.049 170.181C246.281 171.931 245.218 177.335 247.95 185.641C247.95 185.641 249.555 191.481 252.533 195.838C253.033 196.569 251.301 200.097 251.266 200.343C251.083 201.664 245.07 214.938 243.691 215.444C242.55 215.859 237.115 212.556 233.933 207.11C231.258 202.528 230.294 197.033 229.787 194.868C229.667 194.348 229.083 194.081 228.604 194.334L228.182 194.552C227.851 194.728 227.675 195.107 227.766 195.473C228.161 197.068 229.266 203.146 232.103 207.925C234.771 212.423 239.333 215.501 240.072 216.477C241.001 217.707 241.058 217.932 241.382 218.825C241.924 220.3 242.177 221.867 242.205 223.434C242.283 228.241 242.515 242.317 242.494 243.469C242.438 246.098 241.501 247.124 239.861 247.517C239.861 247.517 241.276 247.819 243.571 247.412C245.528 247.067 247.394 246.238 247.394 246.238L247.387 246.245Z" fill="#1F3475"/>
<path d="M276.672 169.66C276.622 171.791 276.333 174.148 275.65 176.618C275.326 177.797 274.86 178.933 274.311 180.02C273.789 181.05 273.014 182.588 272.119 184.395C271.999 184.642 271.872 184.889 271.746 185.15C270.301 188.086 268.616 191.593 267.221 194.713C265.353 198.898 264.212 203.273 263.838 207.726C263.683 209.568 263.549 211.77 263.486 214.339C263.479 214.741 263.465 215.143 263.458 215.567C263.458 216.301 263.444 217.056 263.444 217.839C263.444 220.274 263.19 222.596 262.788 224.72C262.436 226.583 261.978 228.305 261.477 229.843C261.477 229.843 261.477 229.843 261.477 229.851C260.47 232.984 259.3 235.369 258.574 236.696C258.574 236.696 258.567 236.71 258.56 236.724C255.797 241.121 251.639 244.551 246.706 246.393C245.381 246.887 244.007 247.261 242.583 247.515C240.913 247.811 239.186 247.486 237.727 246.618C237.72 246.618 237.713 246.611 237.706 246.604C236.536 245.701 235.648 244.367 235.056 242.695C234.697 241.671 234.443 240.528 234.295 239.272C234.225 238.644 234.154 236.858 234.154 235.602C234.154 235.129 234.14 234.664 234.119 234.212C233.823 228.51 231.737 224.099 229.207 224.099C226.677 224.099 224.591 228.517 224.295 234.212C224.274 234.671 224.26 235.129 224.26 235.602C224.26 236.851 224.189 238.644 224.119 239.272C223.971 240.528 223.717 241.671 223.358 242.695C222.766 244.367 221.878 245.701 220.708 246.604C220.701 246.604 220.694 246.611 220.687 246.618C219.235 247.486 217.515 247.811 215.845 247.522C214.414 247.275 213.033 246.894 211.708 246.4C206.775 244.565 202.617 241.135 199.854 236.731C199.854 236.724 199.84 236.71 199.84 236.703C199.114 235.376 197.944 232.984 196.937 229.858C196.937 229.858 196.937 229.858 196.937 229.851C196.436 228.312 195.978 226.59 195.626 224.734C195.224 222.603 194.97 220.281 194.97 217.846C194.97 217.063 194.963 216.308 194.956 215.574C194.956 215.15 194.942 214.741 194.928 214.346C194.865 211.777 194.731 209.575 194.576 207.733C194.202 203.28 193.06 198.905 191.193 194.72C189.797 191.601 188.113 188.1 186.668 185.164C186.542 184.903 186.422 184.656 186.295 184.409C185.4 182.603 184.625 181.064 184.103 180.034C183.553 178.947 183.081 177.804 182.764 176.632C182.08 174.162 181.792 171.812 181.742 169.674C182.109 157.176 192.109 147.098 204.562 146.625H204.668C206.119 146.66 207.578 146.773 209.023 146.943C210.573 147.126 212.103 147.507 213.533 148.142C213.54 148.142 213.554 148.149 213.562 148.156C214.534 148.594 215.535 148.989 216.557 149.342C220.524 150.739 224.795 151.494 229.242 151.494C233.689 151.494 237.953 150.739 241.928 149.342C242.95 148.989 243.943 148.594 244.923 148.156C244.93 148.156 244.944 148.149 244.951 148.142C246.382 147.507 247.904 147.119 249.461 146.943C250.906 146.773 252.365 146.66 253.817 146.625H253.922C266.375 147.098 276.369 157.168 276.742 169.674L276.672 169.66Z" stroke="#1F3475" stroke-width="2" stroke-miterlimit="10"/>
<defs>
<filter id="filter0_f_6516_3" x="0.857811" y="0.693596" width="467.941" height="445.856" filterUnits="userSpaceOnUse" color-interpolation-filters="sRGB">
<feFlood flood-opacity="0" result="BackgroundImageFix"/>
<feBlend mode="normal" in="SourceGraphic" in2="BackgroundImageFix" result="shape"/>
<feGaussianBlur stdDeviation="44.45" result="effect1_foregroundBlur_6516_3"/>
</filter>
</defs>
</svg>
