<svg width="49" height="48" viewBox="0 0 49 48" fill="none" xmlns="http://www.w3.org/2000/svg">
<g clip-path="url(#clip0_6718_694)">
<path d="M8.70981 1.77585H40.4162C43.9366 1.77585 46.7906 4.62976 46.7906 8.15024V39.8566C46.7906 43.3771 43.9366 46.231 40.4162 46.231H8.70981C5.18933 46.231 2.33542 43.3771 2.33542 39.8566V8.15024C2.33542 4.62976 5.18933 1.77585 8.70981 1.77585Z" stroke="#E8E2CF" stroke-width="2.8974"/>
<path fill-rule="evenodd" clip-rule="evenodd" d="M40.7074 23.5884C40.7074 32.2735 33.6116 39.3157 24.8583 39.3157C22.0791 39.3157 19.4671 38.6063 17.1959 37.3595L8.41992 40.1485L11.2803 31.7102C9.83714 29.34 9.00596 26.5592 9.00596 23.5884C9.00596 14.9016 16.1018 7.85938 24.8567 7.85938C33.6116 7.85938 40.7058 14.9016 40.7058 23.5884H40.7074ZM24.8583 10.3643C17.5093 10.3643 11.532 16.2945 11.532 23.5884C11.532 26.4796 12.4735 29.1598 14.0693 31.3416L12.4053 36.2524L17.5255 34.6258C19.6294 36.0056 22.1505 36.8125 24.8583 36.8125C32.2058 36.8125 38.1831 30.8806 38.1831 23.59C38.1831 16.2994 32.2041 10.3659 24.8583 10.3659V10.3643ZM32.8616 27.2101C32.7642 27.0494 32.5045 26.952 32.1165 26.7605C31.7285 26.5673 29.8161 25.6338 29.4606 25.5072C29.1051 25.379 28.8437 25.314 28.5872 25.6988C28.3275 26.0851 27.584 26.9536 27.3551 27.2101C27.1294 27.4683 26.9038 27.4991 26.5142 27.3059C26.1246 27.1144 24.8729 26.7053 23.3892 25.3936C22.2349 24.3708 21.4557 23.1095 21.2268 22.7231C21.0012 22.3384 21.2041 22.1289 21.3973 21.9374C21.5726 21.7637 21.7869 21.4877 21.9801 21.2637C22.1749 21.038 22.2398 20.8757 22.3681 20.6192C22.4979 20.3611 22.433 20.137 22.3356 19.9455C22.2398 19.7523 21.4622 17.8562 21.1375 17.0835C20.8161 16.3123 20.4914 16.3416 20.2641 16.3416C20.0369 16.3416 19.618 16.4081 19.618 16.4081C19.618 16.4081 18.8388 16.5039 18.4833 16.8903C18.1278 17.275 17.1245 18.2085 17.1245 20.1046C17.1245 22.0007 18.5158 23.8351 18.7089 24.0916C18.9037 24.3497 21.3956 28.3692 25.347 29.9131C29.2967 31.4569 29.2967 30.9407 30.0093 30.8757C30.7204 30.8124 32.308 29.9439 32.6311 29.0429C32.9558 28.142 32.9558 27.3708 32.8584 27.2101H32.8616Z" fill="#E8E2CF"/>
</g>
<defs>
<clipPath id="clip0_6718_694">
<rect width="47.3525" height="47.3525" fill="white" transform="translate(0.886719 0.327148)"/>
</clipPath>
</defs>
</svg>
