<svg width="81" height="81" viewBox="0 0 81 81" fill="none" xmlns="http://www.w3.org/2000/svg">
<path d="M40.5156 74.8203C59.5695 74.8203 75.0156 59.3741 75.0156 40.3203C75.0156 21.2665 59.5695 5.82031 40.5156 5.82031C21.4618 5.82031 6.01562 21.2665 6.01562 40.3203C6.01562 59.3741 21.4618 74.8203 40.5156 74.8203Z" fill="#B49C80" stroke="#B49C80" strokeWidth="0.859163" strokeMiterlimit="10"/>
<path d="M32.2917 58.5805L32.2903 58.5801C32.1992 58.5549 32.1181 58.5956 32.0709 58.6776C32.0233 58.7603 32.0256 58.8607 32.0919 58.9356C32.1421 58.9881 32.2108 59.0558 32.2622 59.1064C32.2824 59.1263 32.3 59.1436 32.3126 59.1562C32.5489 59.3891 33.1198 59.8246 33.776 60.2704C34.426 60.7121 35.1429 61.1526 35.674 61.4045C35.6878 61.4092 35.6989 61.4144 35.707 61.4185C35.7121 61.421 35.7169 61.4236 35.7196 61.425L35.7202 61.4254L35.7254 61.4281C36.623 61.863 37.2087 62.7491 37.2815 63.7388C37.3279 64.3514 37.3872 65.2914 37.3988 66.1865C37.4046 66.6339 37.3985 67.0724 37.3726 67.4542C37.3469 67.8322 37.301 68.1682 37.2217 68.4033M32.2917 58.5805L37.0595 68.3486M32.2917 58.5805C32.3156 58.5869 32.3455 58.6012 32.378 58.6263M32.2917 58.5805L32.378 58.6263M37.2217 68.4033L37.0595 68.3486M37.2217 68.4033C37.2217 68.4032 37.2217 68.4032 37.2217 68.4031L37.0595 68.3486M37.2217 68.4033C37.1427 68.638 36.9922 68.7854 36.8101 68.8645C36.7831 68.8761 36.7558 68.8862 36.7282 68.8948M37.0595 68.3486C36.9506 68.6723 36.6861 68.7664 36.42 68.7685C36.5163 68.8101 36.6199 68.853 36.7282 68.8948M36.7282 68.8948C36.6144 68.9304 36.496 68.9416 36.3842 68.9394C36.6715 69.0623 37.0208 69.1945 37.3676 69.283C37.7682 69.3854 38.1654 69.4408 38.4608 69.4663C38.4142 69.4413 38.3683 69.4146 38.3244 69.3871C38.2602 69.347 38.197 69.3034 38.1392 69.2581M36.7282 68.8948C36.9439 68.9783 37.1781 69.058 37.4099 69.1172L37.41 69.1172C37.6628 69.1819 37.9148 69.2273 38.1392 69.2581M38.1392 69.2581C38.1159 69.2398 38.0935 69.2212 38.0721 69.2024C38.0007 69.1396 37.9305 69.065 37.8893 68.9841L37.8888 68.9831C37.7556 68.7165 37.6957 68.4182 37.7031 68.1257M38.1392 69.2581C38.2754 69.2767 38.4013 69.29 38.5112 69.2988C38.3068 69.1847 38.1049 69.0305 38.0419 68.9065C37.9221 68.6669 37.8673 68.3965 37.8742 68.1295M35.2659 56.1218C35.4216 56.1927 35.4217 56.1927 35.4217 56.1926L35.4218 56.1924L35.422 56.192L35.4226 56.1906L35.4247 56.1858L35.4322 56.1685C35.4386 56.1536 35.4477 56.1319 35.4591 56.1036C35.4818 56.047 35.5135 55.964 35.5504 55.8563C35.6243 55.6408 35.7194 55.326 35.8059 54.9247C35.9788 54.1223 36.1176 52.9735 35.984 51.581C35.9794 51.5239 36.0169 51.4836 36.0737 51.4836H36.1045C36.2244 51.4836 36.3182 51.5868 36.3072 51.7039L36.3072 51.7043C36.2661 52.1541 36.1953 52.9055 36.1155 53.5974C36.0756 53.9435 36.0336 54.2733 35.9922 54.5425C35.9499 54.8175 35.9104 55.0132 35.8785 55.1019L35.8784 55.1019L35.8771 55.1058C35.8749 55.1125 35.8735 55.118 35.8731 55.1195L35.8731 55.1196L35.8718 55.1252L35.8704 55.1322L35.8676 55.1466L35.8588 55.1923C35.8512 55.2309 35.8398 55.2862 35.8242 55.3548C35.7929 55.4922 35.7445 55.6828 35.6742 55.9001C35.533 56.3373 35.3073 56.8712 34.9648 57.2981C34.8384 57.455 34.8136 57.6669 34.8936 57.8473C35.0805 58.2727 35.5305 59.2783 36.0081 60.2155C36.2467 60.6836 36.4939 61.1381 36.7198 61.4955C36.8327 61.674 36.9422 61.8315 37.0445 61.9555C37.143 62.0748 37.2486 62.1804 37.3561 62.2342C37.4396 62.276 37.5281 62.272 37.6018 62.2543C37.6759 62.2365 37.7512 62.2011 37.8245 62.1577C37.9715 62.0707 38.1403 61.9332 38.3207 61.7651C38.6834 61.4273 39.1201 60.94 39.5663 60.4067C40.4598 59.3388 41.407 58.0673 41.904 57.3869M35.2659 56.1218L42.2621 57.6991M35.2659 56.1218L35.4216 56.1927L35.4159 56.2052L35.4145 56.2075L35.4133 56.2098L35.396 56.2453C35.3811 56.2755 35.3598 56.3174 35.3337 56.3659C35.282 56.4618 35.2088 56.5876 35.125 56.6991C35.0475 56.8022 34.9376 56.9258 34.8053 56.9742C34.7306 57.0015 34.6414 57.0073 34.5536 56.9647C34.471 56.9245 34.413 56.8525 34.3713 56.7725L34.3674 56.765L34.3643 56.7572L34.5231 56.6934M35.2659 56.1218L34.5231 56.6934M41.904 57.3869C41.9039 57.387 41.9038 57.3871 41.9038 57.3872L41.7661 57.2856L41.9043 57.3865C41.9042 57.3866 41.9041 57.3868 41.904 57.3869ZM41.904 57.3869C41.9948 57.2644 42.18 57.281 42.2471 57.4117L42.2471 57.4117L42.2479 57.4132L42.2821 57.4782C42.3193 57.549 42.3116 57.6366 42.2621 57.6991M42.2621 57.6991L42.3959 57.8059M42.2621 57.6991L42.3993 57.3335L42.4336 57.3985C42.502 57.5286 42.4883 57.6895 42.3959 57.8059M42.3959 57.8059C41.749 58.6171 39.1544 61.6635 38.5964 62.1804C37.9748 62.7559 37.9701 63.1764 37.9681 63.3624C37.9679 63.3833 37.9677 63.4012 37.9666 63.4161L37.8742 68.1295M42.3959 57.8059L42.2619 57.6994C41.9404 58.1025 41.1321 59.0646 40.3332 59.9918C39.5306 60.9233 38.7502 61.8047 38.4801 62.0548C38.1171 62.3909 37.944 62.6867 37.8636 62.9293C37.7979 63.1276 37.797 63.2924 37.7966 63.3692C37.7965 63.3845 37.7964 63.3963 37.7959 63.4042L37.7957 63.4042L37.7955 63.4127L37.7031 68.1251C37.7031 68.1253 37.7031 68.1255 37.7031 68.1257M37.7031 68.1257L37.7031 68.1262L37.8742 68.1295M37.7031 68.1257L37.8742 68.1295M34.5231 56.6934L34.3643 56.7572L34.3643 56.7572L34.3643 56.7571L34.3642 56.7569L34.3639 56.7562L34.3626 56.753L34.3578 56.7409L34.3394 56.6953L34.2754 56.5361C34.2232 56.4066 34.1558 56.2393 34.0943 56.0872C33.9162 55.6555 33.7048 54.8593 33.6815 54.7717C33.6809 54.7691 33.6804 54.7672 33.68 54.7659L33.6787 54.7611L33.6788 54.7611C33.5011 54.0092 33.3667 53.3084 33.2835 52.4228C33.2324 52.4747 33.2022 52.5464 33.2019 52.6222C33.2137 53.2907 33.4105 54.2515 33.6809 55.1998C33.9509 56.1468 34.289 57.0629 34.5738 57.6374C34.8435 58.1802 35.1626 58.8553 35.4138 59.4046C35.5395 59.6793 35.6485 59.9233 35.7262 60.1042C35.7649 60.1944 35.7964 60.2702 35.8184 60.3268C35.8292 60.3548 35.8385 60.38 35.8453 60.4009C35.8486 60.4111 35.8521 60.4225 35.8548 60.4339L35.855 60.4344C35.8567 60.4414 35.8625 60.4654 35.8613 60.4935L35.8613 60.4945C35.8567 60.5869 35.8323 60.6758 35.7753 60.7477C35.7166 60.8218 35.6375 60.86 35.5584 60.8751C35.4134 60.9026 35.2488 60.8563 35.1126 60.8028C34.8289 60.6913 34.5254 60.4884 34.4087 60.4078L34.4086 60.4077C34.4088 60.4079 34.4066 60.4065 34.3991 60.402C34.3936 60.3987 34.3853 60.3937 34.3731 60.3864C34.3488 60.3718 34.3155 60.3516 34.2744 60.326C34.1923 60.2748 34.0798 60.202 33.9463 60.1076C33.6796 59.9188 33.3284 59.6429 32.9673 59.2784L32.9605 59.2715L32.9607 59.2713L32.9607 59.2713L32.9606 59.2712L32.9603 59.2709L32.9592 59.2696L32.9546 59.2644L32.937 59.2446L32.8741 59.1736C32.8217 59.1147 32.7514 59.0357 32.6795 58.9555C32.6075 58.8752 32.5343 58.7941 32.4761 58.7307C32.447 58.6989 32.4221 58.6721 32.4032 58.6523C32.3915 58.64 32.3844 58.6329 32.3809 58.6293C32.3787 58.6271 32.3778 58.6263 32.378 58.6263M34.5231 56.6934L32.378 58.6263M32.4865 58.4939C32.4385 58.4562 32.3872 58.4288 32.3358 58.4151C31.9764 58.3159 31.7163 58.7745 31.9662 59.0518L32.3795 58.6275L32.4865 58.4939ZM32.4865 58.4939L32.3807 58.6284C32.3798 58.6277 32.3789 58.627 32.378 58.6263M32.4865 58.4939L32.378 58.6263M35.7109 68.6121C35.7109 68.6121 35.7144 68.6137 35.721 68.6165L35.7109 68.6121ZM38.7726 69.484C38.7707 69.4609 38.7733 69.4406 38.7786 69.4228C38.8197 69.4374 38.8576 69.4481 38.8908 69.4542C38.9661 69.468 38.9569 69.4788 38.8856 69.4827C38.8573 69.4843 38.8191 69.4848 38.7726 69.484Z" fill="white" stroke="white" strokeWidth="0.342296"/>
<path d="M51.6443 50.9365C51.3419 51.8818 50.925 52.4608 50.4855 52.9963C50.415 53.0822 50.3435 53.1674 50.2715 53.2532C49.8947 53.7021 49.5049 54.1666 49.1824 54.8221L49.1822 54.8223C49.0765 55.0381 48.9422 55.3016 48.7994 55.582C48.6098 55.9541 48.405 56.356 48.2315 56.7158C48.0772 57.0357 47.941 57.3355 47.8524 57.5722C47.8083 57.6899 47.7738 57.798 47.7555 57.888C47.7464 57.9329 47.7401 57.979 47.7405 58.0227C47.7409 58.0633 47.7471 58.1214 47.7804 58.1749L47.7805 58.1751C47.8254 58.2469 47.8863 58.3007 47.9603 58.3325C48.0326 58.3636 48.1073 58.3696 48.1757 58.3633C48.3078 58.3511 48.4406 58.2907 48.5504 58.2277C48.7349 58.1218 48.9142 57.971 48.9828 57.9132C48.9956 57.9024 49.0046 57.8949 49.009 57.8915L49.009 57.8915L49.0112 57.8897C49.0968 57.8216 49.3055 57.6491 49.491 57.4951C49.5842 57.4178 49.672 57.3447 49.7367 57.2909L49.8138 57.2266L49.8351 57.2089L49.8407 57.2042L49.8421 57.203L49.8425 57.2027L49.8426 57.2027L49.8426 57.2026L49.8426 57.2026L49.8442 57.2013C50.4684 56.6672 51.1869 55.9039 51.4315 55.6138L51.4317 55.614L51.4368 55.6073L51.4368 55.6073L51.3007 55.5035C51.0611 55.7876 50.3491 56.5441 49.733 57.0712C49.733 57.0712 49.0724 57.6223 48.9046 57.7558C48.8961 57.7623 48.8823 57.7739 48.8642 57.7891C48.6921 57.9331 48.1269 58.4064 47.9257 58.0844C47.8103 57.8993 48.4311 56.6813 48.9488 55.6656C49.0916 55.3857 49.2265 55.121 49.3359 54.8976C49.6486 54.2623 50.0238 53.815 50.4 53.3664C50.9217 52.7445 51.4454 52.1202 51.8073 50.9886M51.6443 50.9365C51.6443 50.9365 51.6443 50.9365 51.6443 50.9365L51.8073 50.9886M51.6443 50.9365L51.8073 50.9886M51.6443 50.9365C52.0334 49.7182 52.1864 48.8154 52.186 48.1738C52.1856 47.5256 52.0294 47.1787 51.844 47.0221L51.8437 47.0218C51.6796 46.8824 51.512 47.0051 51.5017 47.091M51.8073 50.9886C52.5912 48.5343 52.4405 47.3021 51.9545 46.8913C51.7046 46.6791 51.3589 46.8263 51.3315 47.0727M51.5017 47.091C51.5017 47.0907 51.5018 47.0903 51.5018 47.09L51.3315 47.0727M51.5017 47.091C51.5017 47.0912 51.5016 47.0914 51.5016 47.0916L51.3315 47.0727M51.5017 47.091C51.4906 47.2019 51.5078 47.2842 51.5416 47.3898C51.5498 47.4152 51.5593 47.443 51.5697 47.4732C51.6022 47.568 51.643 47.6867 51.6753 47.8334C51.7629 48.2298 51.7965 48.8431 51.5891 50.0322L51.5891 50.0323C51.2749 51.8303 50.4793 52.9001 49.9322 53.337M51.3315 47.0727C51.3132 47.2533 51.3557 47.3772 51.4099 47.5352C51.5282 47.8801 51.7023 48.3874 51.4205 50.0028C51.1124 51.7656 50.3354 52.7959 49.8254 53.2033M49.9322 53.337C49.9322 53.337 49.9323 53.3369 49.9323 53.3369L49.8254 53.2033M49.9322 53.337C49.8687 53.3878 49.7938 53.4159 49.7125 53.4163C49.6344 53.4166 49.5627 53.3914 49.5008 53.3569C49.3807 53.2898 49.2671 53.1706 49.1624 53.0334C48.9498 52.755 48.7271 52.3387 48.5219 51.8913C48.1114 50.9968 47.7473 49.9253 47.6615 49.4587L47.6614 49.4584C47.4735 48.4266 47.478 47.6224 47.4931 47.0006C47.4944 46.947 47.4958 46.8951 47.4971 46.8447C47.5035 46.6005 47.509 46.3926 47.5014 46.2093C47.4923 45.9889 47.4645 45.8225 47.4063 45.6905L47.4059 45.6897C47.3995 45.675 47.3935 45.6622 47.3878 45.651C47.3856 45.6579 47.3831 45.6651 47.3803 45.6726L47.3774 45.6801L47.3772 45.68C47.1618 46.1701 46.8316 47.7922 47.6604 50.3226L47.6631 50.3307L47.6629 50.3307L47.6629 50.3309L47.6631 50.3316L47.6641 50.3352L47.6682 50.3497C47.6719 50.3627 47.6775 50.3822 47.6849 50.4075C47.6999 50.4583 47.7223 50.5326 47.7522 50.6262C47.8119 50.8134 47.9011 51.0771 48.0186 51.3824C48.2543 51.9945 48.6013 52.7663 49.0493 53.4216L49.0495 53.4218C49.0974 53.4921 49.1069 53.5752 49.1071 53.6391C49.1072 53.7074 49.0965 53.7817 49.0809 53.855C49.0497 54.0022 48.9936 54.1708 48.9349 54.3278C48.8757 54.4859 48.8116 54.6386 48.7624 54.7547C48.7579 54.7653 48.7535 54.7756 48.7493 54.7855C48.7303 54.8304 48.7143 54.8679 48.7022 54.8974C48.6949 54.9155 48.6896 54.9287 48.6863 54.9377C48.686 54.9387 48.6857 54.9396 48.6854 54.9404C48.6723 55.0149 48.6309 55.1364 48.5785 55.2753C48.5205 55.4295 48.4408 55.6256 48.3463 55.8484C48.1571 56.2941 47.9063 56.8507 47.6441 57.3992C47.3821 57.9472 47.1074 58.4898 46.8707 58.9063C46.7526 59.1141 46.6419 59.2941 46.5456 59.4286C46.4975 59.4956 46.4506 59.5548 46.4059 59.6015C46.3656 59.6436 46.3108 59.6934 46.2452 59.7172L46.2447 59.7174C46.1531 59.7502 46.0485 59.7389 45.9579 59.7178C45.8612 59.6953 45.7514 59.6544 45.6341 59.5994C45.3988 59.4893 45.1158 59.3144 44.8166 59.0849C44.218 58.6258 43.5396 57.9363 43.0371 57.0753L43.037 57.0753C42.3032 55.8177 41.9812 54.3454 41.8085 53.556C41.7833 53.4405 41.7612 53.3397 41.7415 53.2563L41.7415 53.256C41.7292 53.2036 41.6731 53.1784 41.626 53.2036L41.625 53.2041L41.625 53.2041L41.4957 53.2721L47.5628 45.6214C47.6928 45.9159 47.6824 46.3128 47.6682 46.8512C47.6513 47.4895 47.6293 48.3267 47.8298 49.4277C47.9941 50.3211 49.2606 53.6551 49.8254 53.2033M49.9322 53.337L49.8254 53.2033M45.0743 59.878C45.3425 60.2367 45.3728 60.3178 45.4617 60.5562C45.467 60.5703 45.4725 60.585 45.4782 60.6003C45.646 61.0555 45.7213 61.5382 45.7316 62.0208C45.7339 62.1634 45.7366 62.3325 45.7397 62.5218C45.7686 64.3007 45.8267 67.8741 45.8205 68.1958C45.8079 68.7954 45.6476 69.1238 45.3616 69.3028C45.4404 69.3049 45.5329 69.3043 45.6379 69.2987M45.0743 59.878L47.0292 68.9876C46.9935 69.001 46.9543 69.0152 46.9123 69.03C46.8908 69.0375 46.8685 69.0452 46.8457 69.0529M45.0743 59.878C45.0103 59.7927 44.8517 59.6553 44.6385 59.4707C44.0996 59.0041 43.2122 58.2357 42.6235 57.2424C41.8553 55.947 41.4981 54.3415 41.3418 53.639L45.0743 59.878ZM45.6379 69.2987C45.5688 69.3697 45.4912 69.4277 45.4068 69.4748C45.5974 69.4771 45.8514 69.464 46.156 69.411M45.6379 69.2987C45.6739 69.2616 45.7077 69.221 45.739 69.1764C45.9035 68.942 45.9827 68.6216 45.9917 68.1994L45.9917 68.1991C45.9979 67.8739 45.9398 64.2993 45.9108 62.5212C45.9077 62.3308 45.905 62.161 45.9027 62.018L45.9027 62.0172C45.8921 61.5195 45.8144 61.0175 45.6388 60.5411L45.6385 60.5402C45.6328 60.525 45.6273 60.5103 45.622 60.496C45.5807 60.3852 45.5478 60.2969 45.4954 60.1985C45.4363 60.0875 45.3544 59.9667 45.2114 59.7755L45.2113 59.7754C45.141 59.6817 44.9929 59.5516 44.8238 59.4048C44.8 59.3842 44.7755 59.363 44.7503 59.3411C44.5874 59.2001 44.3951 59.0336 44.1888 58.8418C43.712 58.3984 43.1694 57.8278 42.7707 57.1551L42.7707 57.1551C42.0182 55.8862 41.6673 54.312 41.5096 53.605C41.4879 53.5074 41.4698 53.4263 41.4549 53.3648L41.2885 53.4052L46.1263 69.2424M45.6379 69.2987C45.7791 69.2911 45.943 69.2743 46.1263 69.2424M46.156 69.411C46.4764 69.3545 46.7882 69.2564 47.0098 69.177C46.9971 69.1704 46.9842 69.1632 46.9713 69.1552C46.9283 69.1285 46.8862 69.0948 46.8457 69.0529M46.156 69.411L46.1263 69.2424M46.156 69.411L46.1267 69.2424M46.8457 69.0529C46.6417 69.122 46.3861 69.1966 46.1267 69.2424M46.8457 69.0529C46.6926 68.8948 46.5608 68.6196 46.4772 68.1653C46.4366 67.9456 46.4148 67.5242 46.4039 67.0112C46.3929 66.4929 46.3928 65.8663 46.3986 65.227C46.4102 63.9481 46.4453 62.6136 46.4641 61.9815L46.4641 61.9812C46.4819 61.4179 46.5953 60.8574 46.8357 60.3372C47.0639 59.838 47.4391 59.2898 48.0449 58.9176C48.6249 58.5611 49.4184 57.9529 50.1194 57.3775C50.8222 56.8007 51.4169 56.2692 51.603 56.0683L51.6031 56.0683C51.8894 55.7597 51.9954 55.4823 52.033 55.2901C52.0519 55.1932 52.0538 55.116 52.0515 55.0652C52.0511 55.0571 52.0506 55.0497 52.0501 55.043C52.0465 55.044 52.0423 55.0453 52.0375 55.0469C51.9765 55.0683 51.8904 55.1281 51.7928 55.2168C51.6993 55.3018 51.6101 55.3993 51.5435 55.477C51.5104 55.5155 51.4834 55.5485 51.4648 55.5717L51.4436 55.5985L51.4383 55.6054L51.4371 55.6069L51.4368 55.6072L46.1267 69.2424M46.1267 69.2424L46.1263 69.2424M47.3992 45.6086C47.4018 45.607 47.4032 45.6065 47.4032 45.6065C47.4031 45.6065 47.4019 45.607 47.3994 45.6075L47.4006 45.6027L47.4027 45.5952C47.4028 45.5947 47.4029 45.5945 47.4029 45.5945C47.4029 45.5945 47.4017 45.5979 47.3987 45.6027C47.3975 45.6046 47.3962 45.6065 47.3948 45.6083L47.3992 45.6086Z" fill="white" stroke="white" strokeWidth="0.342296"/>
<path d="M56.5005 45.5528C56.4868 46.2066 56.3978 46.9288 56.189 47.6887C56.0898 48.0481 55.946 48.3973 55.7783 48.7327C55.6174 49.0476 55.3778 49.52 55.104 50.0745C55.0663 50.1498 55.0286 50.2286 54.991 50.3073C54.546 51.2075 54.0291 52.2823 53.6013 53.2408C53.0262 54.5244 52.6771 55.8696 52.5607 57.2353C52.5128 57.8001 52.4717 58.4745 52.4546 59.2652C52.4546 59.3884 52.4477 59.5116 52.4477 59.6417C52.4477 59.8676 52.4443 60.1004 52.4443 60.34C52.4443 61.0862 52.3656 61.7982 52.2424 62.4519C52.1328 63.0236 51.9925 63.5541 51.8384 64.0265C51.527 64.9884 51.1676 65.7209 50.9451 66.1282C50.9451 66.1282 50.9451 66.1316 50.9416 66.135C50.0927 67.4837 48.816 68.538 47.2996 69.1028C46.8923 69.2534 46.4678 69.3697 46.0331 69.4451C45.5197 69.534 44.9891 69.4348 44.5407 69.1678C44.5407 69.1678 44.5373 69.1678 44.5339 69.1644C44.1744 68.8871 43.9006 68.4763 43.7192 67.9663C43.6062 67.6514 43.5309 67.2988 43.4864 66.9155C43.4625 66.7238 43.4419 66.1727 43.4419 65.7893C43.4419 65.6456 43.4385 65.5018 43.4317 65.3615C43.3392 63.6123 42.6991 62.2568 41.9221 62.2568C41.1451 62.2568 40.505 63.6123 40.4126 65.3615C40.4058 65.5018 40.4023 65.6421 40.4023 65.7893C40.4023 66.1727 40.3818 66.7238 40.3578 66.9155C40.3133 67.2988 40.2346 67.6514 40.1251 67.9663C39.9437 68.4798 39.6698 68.8905 39.3104 69.1644C39.3104 69.1644 39.307 69.1644 39.3036 69.1678C38.8586 69.4348 38.328 69.534 37.8146 69.4451C37.3764 69.3697 36.952 69.2534 36.5447 69.0993C35.0283 68.5345 33.7515 67.4837 32.9026 66.1316L32.8992 66.1248C32.6767 65.7174 32.3173 64.9849 32.0058 64.0231C31.8518 63.5507 31.7114 63.0236 31.6019 62.4519C31.4787 61.7982 31.4 61.0862 31.4 60.34C31.4 60.1004 31.4 59.8676 31.3965 59.6451C31.3965 59.515 31.3931 59.3918 31.3897 59.2686C31.3692 58.4813 31.3281 57.8036 31.2836 57.2388C31.1672 55.873 30.8181 54.5278 30.243 53.2442C29.8117 52.2857 29.2983 51.2109 28.8533 50.3107C28.8156 50.232 28.778 50.1532 28.7403 50.0779C28.4665 49.5234 28.2269 49.0511 28.066 48.7361C27.8948 48.4007 27.7545 48.0515 27.6552 47.6921C27.4464 46.9357 27.3574 46.2134 27.3438 45.5562C27.4567 41.7191 30.5305 38.6281 34.354 38.4844H34.3848C34.8298 38.4946 35.2782 38.5323 35.7232 38.5836C36.199 38.6384 36.6679 38.7582 37.1095 38.9533C37.1095 38.9533 37.1163 38.9533 37.1197 38.9567C37.4209 39.0902 37.7256 39.2135 38.0405 39.3196C39.2591 39.7474 40.5735 39.9802 41.9392 39.9802C43.305 39.9802 44.616 39.7474 45.838 39.3196C46.1495 39.21 46.4576 39.0902 46.7588 38.9567C46.7588 38.9567 46.7656 38.9567 46.769 38.9533C47.2072 38.7582 47.6761 38.6418 48.1553 38.5836C48.5969 38.5323 49.0487 38.4981 49.4937 38.4844H49.5245C53.3514 38.6281 56.4218 41.7191 56.5348 45.5562L56.5005 45.5528Z" stroke="white" strokeWidth="0.510021" strokeMiterlimit="10"/>
<path d="M43.4816 11.1562L18.5 13.8262L18.5419 14.6134L42.8374 12.6932L43.6531 12.5939L43.4816 11.1562Z" fill="white" stroke="white" strokeWidth="0.42787" stroke-linecap="round" stroke-linejoin="round"/>
<path d="M43.976 18.7083L51.1276 37.6212L31.4113 38.1896L36.4452 19.076L43.976 18.7083Z" fill="url(#paint0_linear_2073_17023)" stroke="white" strokeWidth="0.342296"/>
<path d="M43.6315 13.5293L36.2891 13.9141L36.4777 17.5135L43.8201 17.1287L43.6315 13.5293Z" fill="white" stroke="white" strokeWidth="0.390217" stroke-linecap="round" stroke-linejoin="round"/>
<defs>
<linearGradient id="paint0_linear_2073_17023" x1="40.8952" y1="18.1677" x2="41.2766" y2="38.2884" gradientUnits="userSpaceOnUse">
<stop stop-color="white"/>
<stop offset="0.1" stop-color="#FCFAF9" stop-opacity="0.97"/>
<stop offset="0.27" stop-color="#F5F0EB" stop-opacity="0.87"/>
<stop offset="0.49" stop-color="#E9DED4" stop-opacity="0.72"/>
<stop offset="0.75" stop-color="#DAC6B4" stop-opacity="0.52"/>
<stop offset="1" stop-color="#CAAD94" stop-opacity="0.3"/>
</linearGradient>
</defs>
</svg>
